<svg xmlns="http://www.w3.org/2000/svg" width="207" height="149" viewBox="0 0 207 149" fill="none">
  <path
    opacity="0.2"
    d="M166.998 148.093L207 125.001L166.998 101.905L127 125.001L166.998 148.093Z"
    fill="url(#paint0_linear)"
  />
  <path
    opacity="0.2"
    d="M166.998 133.004L207 109.912L166.998 86.8196L127 109.912L166.998 133.004Z"
    fill="url(#paint1_linear)"
  />
  <path
    opacity="0.5"
    d="M139.906 52.5607C139.906 52.5607 138.474 84.2145 159.361 76.4375C169.756 55.9291 139.906 52.5607 139.906 52.5607Z"
    fill="url(#paint2_linear)"
  />
  <path
    opacity="0.5"
    d="M166.311 25C166.311 25 145.151 49.1155 166.431 55.7797C187.208 45.9732 166.311 25 166.311 25Z"
    fill="url(#paint3_linear)"
  />
  <path
    opacity="0.5"
    d="M150.51 66.2514C154.668 69.9303 158.125 74.3318 160.713 79.2429C164.551 86.5177 166.503 94.6394 166.388 102.864"
    stroke="#13AA52"
    stroke-width="3.46"
    stroke-linecap="round"
    stroke-linejoin="round"
  />
  <path
    opacity="0.5"
    d="M192.883 52.5607C192.883 52.5607 194.311 84.2145 173.423 76.4375C163.033 55.9291 192.883 52.5607 192.883 52.5607Z"
    fill="url(#paint4_linear)"
  />
  <path
    opacity="0.5"
    d="M182.279 66.2514C178.119 69.929 174.66 74.3308 172.072 79.2429C168.235 86.5185 166.284 94.6397 166.397 102.864"
    stroke="#13AA52"
    stroke-width="3.46"
    stroke-linecap="round"
    stroke-linejoin="round"
  />
  <path
    opacity="0.5"
    d="M166.388 43.8285V110.603"
    stroke="#13AA52"
    stroke-width="3.46"
    stroke-linecap="round"
    stroke-linejoin="round"
  />
  <path
    opacity="0.2"
    d="M20.9981 49.2762L42 37.1547L20.9981 25.0294L0 37.1547L20.9981 49.2762Z"
    fill="url(#paint5_linear)"
  />
  <path
    opacity="0.2"
    d="M20.9981 41.3543L42 29.2329L20.9981 17.1076L0 29.2329L20.9981 41.3543Z"
    fill="url(#paint6_linear)"
  />
  <path
    opacity="0.5"
    d="M5.48047 0.0878983C5.48047 0.0878983 8.11976 16.44 17.9706 10.094C21.1223 -1.62764 5.48047 0.0878983 5.48047 0.0878983Z"
    fill="url(#paint7_linear)"
  />
  <path
    opacity="0.5"
    d="M29.1372 7.44299C29.1372 7.44299 29.5641 16.8941 23.3152 14.5652C20.2373 8.44825 29.1372 7.44299 29.1372 7.44299Z"
    fill="url(#paint8_linear)"
  />
  <path
    opacity="0.5"
    d="M25.9817 11.5262C24.7403 12.6256 23.708 13.9406 22.9348 15.4076C21.7901 17.5799 21.2082 20.0047 21.2425 22.46"
    stroke="#13AA52"
    stroke-width="2"
    stroke-linecap="round"
    stroke-linejoin="round"
  />
  <path
    opacity="0.5"
    d="M11.71 4.84641C14.1273 6.10838 16.2155 7.91883 17.8075 10.1328C20.304 13.7421 21.4976 18.0936 21.1921 22.4715"
    stroke="#13AA52"
    stroke-width="2"
    stroke-linecap="round"
    stroke-linejoin="round"
  />
  <path
    opacity="0.5"
    d="M21.2385 22.4716V28.7478"
    stroke="#13AA52"
    stroke-width="2"
    stroke-linecap="round"
    stroke-linejoin="round"
  />
  <defs>
    <linearGradient
      id="paint0_linear"
      x1="298445"
      y1="177196"
      x2="298607"
      y2="183550"
      gradientUnits="userSpaceOnUse"
    >
      <stop stop-color="rgba(9, 128, 76, 0.5)" />
      <stop offset="1" stop-color="rgba(10, 208, 91, 0.5)" />
    </linearGradient>
    <linearGradient
      id="paint1_linear"
      x1="291093"
      y1="177522"
      x2="306103"
      y2="177522"
      gradientUnits="userSpaceOnUse"
    >
      <stop stop-color="rgba(9, 128, 76, 0.5)" />
      <stop offset="1" stop-color="rgba(10, 208, 91, 0.5)" />
    </linearGradient>
    <linearGradient
      id="paint2_linear"
      x1="22079.6"
      y1="11086.9"
      x2="22079.6"
      y2="9146.41"
      gradientUnits="userSpaceOnUse"
    >
      <stop stop-color="rgba(9, 128, 76, 0.5)" />
      <stop offset="1" stop-color="rgba(10, 208, 91, 0.5)" />
    </linearGradient>
    <linearGradient
      id="paint3_linear"
      x1="19002.9"
      y1="11148.1"
      x2="20262"
      y2="10706.7"
      gradientUnits="userSpaceOnUse"
    >
      <stop stop-color="rgba(9, 128, 76, 0.5)" />
      <stop offset="1" stop-color="rgba(10, 208, 91, 0.5)" />
    </linearGradient>
    <linearGradient
      id="paint4_linear"
      x1="23163.7"
      y1="10965.9"
      x2="24825.2"
      y2="9531.43"
      gradientUnits="userSpaceOnUse"
    >
      <stop stop-color="rgba(9, 128, 76, 0.5)" />
      <stop offset="1" stop-color="rgba(10, 208, 91, 0.5)" />
    </linearGradient>
    <linearGradient
      id="paint5_linear"
      x1="144048"
      y1="89141"
      x2="144098"
      y2="91064.6"
      gradientUnits="userSpaceOnUse"
    >
      <stop stop-color="rgba(9, 128, 76, 0.5)" />
      <stop offset="1" stop-color="rgba(10, 208, 91, 0.5)" />
    </linearGradient>
    <linearGradient
      id="paint6_linear"
      x1="141822"
      y1="89241.2"
      x2="146367"
      y2="89241.2"
      gradientUnits="userSpaceOnUse"
    >
      <stop stop-color="rgba(9, 128, 76, 0.5)" />
      <stop offset="1" stop-color="rgba(10, 208, 91, 0.5)" />
    </linearGradient>
    <linearGradient
      id="paint7_linear"
      x1="37302.4"
      y1="20560.3"
      x2="36873.3"
      y2="20283.5"
      gradientUnits="userSpaceOnUse"
    >
      <stop stop-color="rgba(9, 128, 76, 0.5)" />
      <stop offset="1" stop-color="rgba(10, 208, 91, 0.5)" />
    </linearGradient>
    <linearGradient
      id="paint8_linear"
      x1="18927.4"
      y1="13441.9"
      x2="19020.8"
      y2="13302.1"
      gradientUnits="userSpaceOnUse"
    >
      <stop stop-color="rgba(9, 128, 76, 0.5)" />
      <stop offset="1" stop-color="rgba(10, 208, 91, 0.5)" />
    </linearGradient>
  </defs>
</svg>
