<svg width="59" height="41" viewBox="0 0 59 41" fill="none" xmlns="http://www.w3.org/2000/svg">
<rect x="0.5" y="1.19446" width="58" height="39" rx="3.5" fill="#006FCF" stroke="#F3F3F3"/>
<path fill-rule="evenodd" clip-rule="evenodd" d="M12.0661 29.5882V21.3537H21.5506L22.5681 22.5732L23.6194 21.3537H58.0454V29.0203C58.0454 29.0203 57.1451 29.58 56.1039 29.5882H37.0415L35.8942 28.2902V29.5882H32.1346V27.3724C32.1346 27.3724 31.6211 27.6817 30.5108 27.6817H29.2312V29.5882H23.5389L22.5228 28.3426L21.4911 29.5882H12.0661ZM1.01562 15.1474L3.14955 10.5636H6.83994L8.05097 13.1313V10.5636H12.6385L13.3594 12.4194L14.0583 10.5636H34.6514V11.4966C34.6514 11.4966 35.734 10.5636 37.5131 10.5636L44.1948 10.5851L45.385 13.1192V10.5636H49.224L50.2807 12.0192V10.5636H54.1549V18.7982H50.2807L49.2681 17.3378V18.7982H43.6276L43.0604 17.5001H41.5441L40.9861 18.7982H37.1609C35.63 18.7982 34.6514 17.8842 34.6514 17.8842V18.7982H28.884L27.7394 17.5001V18.7982H6.29323L5.7264 17.5001H4.2149L3.65207 18.7982H1.01562V15.1474ZM1.02663 17.7445L3.90483 11.5788H6.08686L8.96231 17.7445H7.04718L6.51887 16.5099H3.43155L2.90049 17.7445H1.02663ZM5.91076 15.1712L4.9697 13.0137L4.0259 15.1712H5.91076ZM9.16042 17.7435V11.5777L11.8233 11.5868L13.3721 15.5621L14.8838 11.5777H17.5254V17.7435H15.8524V13.2003L14.079 17.7435H12.6118L10.8334 13.2003V17.7435H9.16042ZM18.67 17.7435V11.5777H24.1292V12.9569H20.3606V14.0116H24.0412V15.3096H20.3606V16.4049H24.1292V17.7435H18.67ZM25.0978 17.7445V11.5788H28.8208C30.0543 11.5788 31.1596 12.2816 31.1596 13.5791C31.1596 14.6883 30.2277 15.4027 29.3243 15.4729L31.5256 17.7445H29.4811L27.4752 15.5541H26.7708V17.7445H25.0978ZM28.6832 12.9579H26.7708V14.256H28.7079C29.0433 14.256 29.4756 14.0166 29.4756 13.607C29.4756 13.2886 29.1419 12.9579 28.6832 12.9579ZM33.5508 17.7435H31.8426V11.5777H33.5508V17.7435ZM37.6012 17.7435H37.2325C35.4484 17.7435 34.3653 16.4485 34.3653 14.686C34.3653 12.8799 35.4363 11.5777 37.6892 11.5777H39.5383V13.038H37.6216C36.7071 13.038 36.0603 13.6956 36.0603 14.7012C36.0603 15.8952 36.7999 16.3968 37.8653 16.3968H38.3056L37.6012 17.7435ZM38.3634 17.7445L41.2416 11.5788H43.4236L46.299 17.7445H44.3839L43.8556 16.5099H40.7683L40.2372 17.7445H38.3634ZM43.2475 15.1712L42.3064 13.0137L41.3626 15.1712H43.2475ZM46.4944 17.7435V11.5777H48.6214L51.3373 15.4516V11.5777H53.0103V17.7435H50.952L48.1674 13.7682V17.7435H46.4944ZM13.2108 28.5336V22.3678H18.67V23.747H14.9014V24.8017H18.582V26.0997H14.9014V27.1949H18.67V28.5336H13.2108ZM39.961 28.5336V22.3678H45.4202V23.747H41.6516V24.8017H45.3145V26.0997H41.6516V27.1949H45.4202V28.5336H39.961ZM18.8819 28.5336L21.54 25.4887L18.8186 22.3678H20.9264L22.5471 24.2971L24.1733 22.3678H26.1985L23.5129 25.4507L26.1758 28.5336H24.0684L22.4948 26.6346L20.9594 28.5336H18.8819ZM26.3746 28.5346V22.3688H30.07C31.5863 22.3688 32.4722 23.2693 32.4722 24.4427C32.4722 25.8591 31.3427 26.5875 29.8526 26.5875H28.0916V28.5346H26.3746ZM29.9462 23.7632H28.0916V25.183H29.9407C30.4293 25.183 30.7717 24.8846 30.7717 24.4731C30.7717 24.0351 30.4276 23.7632 29.9462 23.7632ZM33.1986 28.5336V22.3678H36.9215C38.1551 22.3678 39.2604 23.0706 39.2604 24.3681C39.2604 25.4773 38.3285 26.1917 37.4251 26.262L39.6264 28.5336H37.5819L35.576 26.3431H34.8716V28.5336H33.1986ZM36.7839 23.747H34.8716V25.045H36.8087C37.144 25.045 37.5764 24.8056 37.5764 24.396C37.5764 24.0776 37.2427 23.747 36.7839 23.747ZM46.195 28.5336V27.1949H49.5432C50.0386 27.1949 50.2531 26.9483 50.2531 26.6777C50.2531 26.4185 50.0393 26.1565 49.5432 26.1565H48.0302C46.7151 26.1565 45.9826 25.4182 45.9826 24.3098C45.9826 23.3212 46.6534 22.3678 48.6077 22.3678H51.8656L51.1612 23.7551H48.3435C47.8049 23.7551 47.6391 24.0155 47.6391 24.2642C47.6391 24.5198 47.844 24.8017 48.2555 24.8017H49.8404C51.3065 24.8017 51.9426 25.5679 51.9426 26.5713C51.9426 27.65 51.2337 28.5336 49.7606 28.5336H46.195ZM52.0901 28.5336V27.1949H55.4383C55.9337 27.1949 56.1482 26.9483 56.1482 26.6777C56.1482 26.4185 55.9344 26.1565 55.4383 26.1565H53.9253C52.6101 26.1565 51.8777 25.4182 51.8777 24.3098C51.8777 23.3212 52.5484 22.3678 54.5027 22.3678H57.7607L57.0562 23.7551H54.2386C53.7 23.7551 53.5342 24.0155 53.5342 24.2642C53.5342 24.5198 53.7391 24.8017 54.1505 24.8017H55.7355C57.2015 24.8017 57.8377 25.5679 57.8377 26.5713C57.8377 27.65 57.1288 28.5336 55.6557 28.5336H52.0901Z" fill="white"/>
</svg>
