<svg width="197" height="41" viewBox="0 0 197 41" fill="none" xmlns="http://www.w3.org/2000/svg">
<path d="M34.9007 29.6709H24.3711V11.2067H34.9007V29.6709Z" fill="#FF5F00"/>
<path d="M25.0462 20.4373C25.0462 16.6918 26.8436 13.3553 29.6424 11.2052C27.5957 9.63291 25.0126 8.69447 22.2053 8.69447C15.5592 8.69447 10.1719 13.9518 10.1719 20.4373C10.1719 26.9228 15.5592 32.1802 22.2053 32.1802C25.0126 32.1802 27.5957 31.2418 29.6424 29.6695C26.8436 27.5193 25.0462 24.1829 25.0462 20.4373Z" fill="#EB001B"/>
<path d="M49.1041 20.4373C49.1041 26.9228 43.7168 32.1802 37.0708 32.1802C34.2635 32.1802 31.6803 31.2418 29.6328 29.6695C32.4325 27.5193 34.2298 24.1829 34.2298 20.4373C34.2298 16.6918 32.4325 13.3553 29.6328 11.2052C31.6803 9.63291 34.2635 8.69447 37.0708 8.69447C43.7168 8.69447 49.1041 13.9518 49.1041 20.4373Z" fill="#F79E1B"/>
<path d="M95.1976 28.1277H91.2695L93.7264 14.127H97.6543L95.1976 28.1277Z" fill="#15195A"/>
<path d="M109.435 14.4693C108.661 14.186 107.432 13.8732 105.912 13.8732C102.033 13.8732 99.3016 15.7796 99.2848 18.5051C99.2526 20.516 101.241 21.6329 102.727 22.3034C104.247 22.9886 104.764 23.4358 104.764 24.0465C104.748 24.9844 103.536 25.4168 102.405 25.4168C100.837 25.4168 99.9962 25.1939 98.7193 24.6721L98.202 24.4484L97.6523 27.5912C98.5736 27.978 100.271 28.3213 102.033 28.3364C106.155 28.3364 108.838 26.4595 108.87 23.555C108.886 21.9612 107.836 20.7399 105.573 19.742C104.199 19.1014 103.357 18.6694 103.357 18.014C103.374 17.4181 104.069 16.8078 105.62 16.8078C106.897 16.7779 107.835 17.0608 108.546 17.3439L108.901 17.4926L109.435 14.4693Z" fill="#15195A"/>
<path fill-rule="evenodd" clip-rule="evenodd" d="M116.466 14.127H119.504L122.673 28.1275H119.036C119.036 28.1275 118.68 26.5188 118.567 26.0273H113.524C113.378 26.3995 112.7 28.1275 112.7 28.1275H108.578L114.413 15.2886C114.817 14.38 115.529 14.127 116.466 14.127ZM116.224 19.2505C116.224 19.2505 114.979 22.3634 114.656 23.1677H117.921C117.759 22.4677 117.015 19.1164 117.015 19.1164L116.741 17.91C116.625 18.2207 116.458 18.6478 116.345 18.9359C116.269 19.1311 116.217 19.2625 116.224 19.2505Z" fill="#15195A"/>
<path d="M80.5684 14.127C81.4248 14.1565 82.1195 14.4098 82.3457 15.3037L83.7197 21.7383L84.1406 23.6739L87.9873 14.127H92.1406L85.9668 28.1133H81.8125L78.3115 15.9473C77.1036 15.2965 75.7249 14.7734 74.1836 14.4102L74.248 14.127H80.5684Z" fill="#15195A"/>
<rect x="138.5" y="1.19446" width="58" height="39" rx="3.5" fill="#006FCF" stroke="#F3F3F3"/>
<path fill-rule="evenodd" clip-rule="evenodd" d="M150.066 29.5882V21.3537H159.551L160.568 22.5732L161.619 21.3537H196.045V29.0203C196.045 29.0203 195.145 29.58 194.104 29.5882H175.041L173.894 28.2902V29.5882H170.135V27.3724C170.135 27.3724 169.621 27.6817 168.511 27.6817H167.231V29.5882H161.539L160.523 28.3426L159.491 29.5882H150.066ZM139.016 15.1474L141.15 10.5636H144.84L146.051 13.1313V10.5636H150.638L151.359 12.4194L152.058 10.5636H172.651V11.4966C172.651 11.4966 173.734 10.5636 175.513 10.5636L182.195 10.5851L183.385 13.1192V10.5636H187.224L188.281 12.0192V10.5636H192.155V18.7982H188.281L187.268 17.3378V18.7982H181.628L181.06 17.5001H179.544L178.986 18.7982H175.161C173.63 18.7982 172.651 17.8842 172.651 17.8842V18.7982H166.884L165.739 17.5001V18.7982H144.293L143.726 17.5001H142.215L141.652 18.7982H139.016V15.1474ZM139.027 17.7445L141.905 11.5788H144.087L146.962 17.7445H145.047L144.519 16.5099H141.432L140.9 17.7445H139.027ZM143.911 15.1712L142.97 13.0137L142.026 15.1712H143.911ZM147.16 17.7435V11.5777L149.823 11.5868L151.372 15.5621L152.884 11.5777H155.525V17.7435H153.852V13.2003L152.079 17.7435H150.612L148.833 13.2003V17.7435H147.16ZM156.67 17.7435V11.5777H162.129V12.9569H158.361V14.0116H162.041V15.3096H158.361V16.4049H162.129V17.7435H156.67ZM163.098 17.7445V11.5788H166.821C168.054 11.5788 169.16 12.2816 169.16 13.5791C169.16 14.6883 168.228 15.4027 167.324 15.4729L169.526 17.7445H167.481L165.475 15.5541H164.771V17.7445H163.098ZM166.683 12.9579H164.771V14.256H166.708C167.043 14.256 167.476 14.0166 167.476 13.607C167.476 13.2886 167.142 12.9579 166.683 12.9579ZM171.551 17.7435H169.843V11.5777H171.551V17.7435ZM175.601 17.7435H175.232C173.448 17.7435 172.365 16.4485 172.365 14.686C172.365 12.8799 173.436 11.5777 175.689 11.5777H177.538V13.038H175.622C174.707 13.038 174.06 13.6956 174.06 14.7012C174.06 15.8952 174.8 16.3968 175.865 16.3968H176.306L175.601 17.7435ZM176.363 17.7445L179.242 11.5788H181.424L184.299 17.7445H182.384L181.856 16.5099H178.768L178.237 17.7445H176.363ZM181.248 15.1712L180.306 13.0137L179.363 15.1712H181.248ZM184.494 17.7435V11.5777H186.621L189.337 15.4516V11.5777H191.01V17.7435H188.952L186.167 13.7682V17.7435H184.494ZM151.211 28.5336V22.3678H156.67V23.747H152.901V24.8017H156.582V26.0997H152.901V27.1949H156.67V28.5336H151.211ZM177.961 28.5336V22.3678H183.42V23.747H179.652V24.8017H183.315V26.0997H179.652V27.1949H183.42V28.5336H177.961ZM156.882 28.5336L159.54 25.4887L156.819 22.3678H158.926L160.547 24.2971L162.173 22.3678H164.198L161.513 25.4507L164.176 28.5336H162.068L160.495 26.6346L158.959 28.5336H156.882ZM164.375 28.5346V22.3688H168.07C169.586 22.3688 170.472 23.2693 170.472 24.4427C170.472 25.8591 169.343 26.5875 167.853 26.5875H166.092V28.5346H164.375ZM167.946 23.7632H166.092V25.183H167.941C168.429 25.183 168.772 24.8846 168.772 24.4731C168.772 24.0351 168.428 23.7632 167.946 23.7632ZM171.199 28.5336V22.3678H174.922C176.155 22.3678 177.26 23.0706 177.26 24.3681C177.26 25.4773 176.328 26.1917 175.425 26.262L177.626 28.5336H175.582L173.576 26.3431H172.872V28.5336H171.199ZM174.784 23.747H172.872V25.045H174.809C175.144 25.045 175.576 24.8056 175.576 24.396C175.576 24.0776 175.243 23.747 174.784 23.747ZM184.195 28.5336V27.1949H187.543C188.039 27.1949 188.253 26.9483 188.253 26.6777C188.253 26.4185 188.039 26.1565 187.543 26.1565H186.03C184.715 26.1565 183.983 25.4182 183.983 24.3098C183.983 23.3212 184.653 22.3678 186.608 22.3678H189.866L189.161 23.7551H186.344C185.805 23.7551 185.639 24.0155 185.639 24.2642C185.639 24.5198 185.844 24.8017 186.255 24.8017H187.84C189.306 24.8017 189.943 25.5679 189.943 26.5713C189.943 27.65 189.234 28.5336 187.761 28.5336H184.195ZM190.09 28.5336V27.1949H193.438C193.934 27.1949 194.148 26.9483 194.148 26.6777C194.148 26.4185 193.934 26.1565 193.438 26.1565H191.925C190.61 26.1565 189.878 25.4182 189.878 24.3098C189.878 23.3212 190.548 22.3678 192.503 22.3678H195.761L195.056 23.7551H192.239C191.7 23.7551 191.534 24.0155 191.534 24.2642C191.534 24.5198 191.739 24.8017 192.151 24.8017H193.735C195.202 24.8017 195.838 25.5679 195.838 26.5713C195.838 27.65 195.129 28.5336 193.656 28.5336H190.09Z" fill="white"/>
</svg>
