<svg width="59" height="41" viewBox="0 0 59 41" fill="none" xmlns="http://www.w3.org/2000/svg">
<rect x="0.5" y="1.19446" width="58" height="39" rx="3.5" fill="white" stroke="#F3F3F3"/>
<path fill-rule="evenodd" clip-rule="evenodd" d="M28.3971 24.8127V20.3016V20.3007H30.8795C31.903 20.3013 32.7631 19.9851 33.4599 19.3522C34.1642 18.7516 34.5579 17.888 34.5378 16.9878C34.5518 16.0926 34.1588 15.2354 33.4599 14.6367C32.7692 14.0003 31.8403 13.6531 30.8795 13.6722H26.8945V24.8127H28.3971ZM28.3971 18.9327V15.0438V15.0429H30.9168C31.4784 15.0279 32.0198 15.2431 32.4035 15.634C32.7895 15.9915 33.0073 16.4825 33.0073 16.9953C33.0073 17.5082 32.7895 17.9992 32.4035 18.3567C32.0151 18.7393 31.4754 18.9484 30.9168 18.9327H28.3971Z" fill="#5F6368"/>
<path fill-rule="evenodd" clip-rule="evenodd" d="M40.6331 17.7896C39.9904 17.2242 39.1138 16.9416 38.0032 16.9416C36.5766 16.9416 35.4993 17.4393 34.7714 18.4349L36.0947 19.2287C36.5838 18.5543 37.2479 18.2171 38.0872 18.2171C38.6223 18.2111 39.1402 18.3975 39.5375 18.7389C39.9337 19.0509 40.1616 19.516 40.1581 20.0056V20.3327C39.5807 20.0216 38.846 19.866 37.9538 19.866C36.9085 19.8672 36.073 20.1007 35.4471 20.5664C34.8212 21.0322 34.5082 21.6595 34.5082 22.4482C34.4946 23.1664 34.8217 23.8522 35.3985 24.3149C35.9921 24.8127 36.7297 25.0616 37.6113 25.0616C38.6441 25.0616 39.4716 24.626 40.0937 23.7549H40.159V24.8127H41.5962V20.1149C41.5969 19.13 41.2758 18.3549 40.6331 17.7896ZM36.5577 23.4127C36.243 23.1966 36.0573 22.8489 36.0594 22.4793C36.0594 22.0642 36.2637 21.7184 36.6753 21.434C37.0828 21.1537 37.5918 21.0136 38.2021 21.0136C39.0402 21.0136 39.6934 21.1913 40.1619 21.5469C40.1619 22.1478 39.9131 22.6713 39.4153 23.1176C38.967 23.5446 38.3593 23.785 37.7252 23.786C37.3025 23.7935 36.89 23.6616 36.5577 23.4127Z" fill="#5F6368"/>
<path fill-rule="evenodd" clip-rule="evenodd" d="M49.8453 17.1905L44.8281 28.1727H43.277L45.1389 24.33L41.8398 17.1905H43.473L45.8575 22.666H45.8901L48.2093 17.1905H49.8453Z" fill="#5F6368"/>
<path fill-rule="evenodd" clip-rule="evenodd" d="M22.3275 19.3291C22.328 18.893 22.2893 18.4576 22.2118 18.0278H15.875V20.4927H19.5044C19.3543 21.2882 18.8695 21.9908 18.1624 22.4376V24.0376H20.3285C21.5967 22.9238 22.3275 21.2767 22.3275 19.3291Z" fill="#4285F4"/>
<path fill-rule="evenodd" clip-rule="evenodd" d="M15.8747 25.5833C17.688 25.5833 19.2148 25.0162 20.3281 24.0385L18.1621 22.4385C17.5592 22.8278 16.7827 23.05 15.8747 23.05C14.122 23.05 12.6344 21.9247 12.1025 20.4082H9.87109V22.0571C11.0117 24.2189 13.3346 25.5832 15.8747 25.5833Z" fill="#34A853"/>
<path fill-rule="evenodd" clip-rule="evenodd" d="M12.1031 20.4082C11.8219 19.6136 11.8219 18.7531 12.1031 17.9585V16.3096H9.87175C8.91775 18.1177 8.91775 20.249 9.87175 22.0571L12.1031 20.4082Z" fill="#FBBC04"/>
<path fill-rule="evenodd" clip-rule="evenodd" d="M15.8747 15.3167C16.8329 15.3018 17.7589 15.6466 18.4523 16.2767L20.3701 14.45C19.154 13.3621 17.543 12.7648 15.8747 12.7833C13.3346 12.7835 11.0117 14.1478 9.87109 16.3096L12.1025 17.9585C12.6344 16.442 14.122 15.3167 15.8747 15.3167Z" fill="#EA4335"/>
</svg>
