<svg width="59" height="41" viewBox="0 0 59 41" fill="none" xmlns="http://www.w3.org/2000/svg">
<path d="M34.9007 29.6709H24.3711V11.2067H34.9007V29.6709Z" fill="#FF5F00"/>
<path d="M25.0462 20.4373C25.0462 16.6918 26.8436 13.3553 29.6424 11.2052C27.5957 9.63291 25.0126 8.69447 22.2053 8.69447C15.5592 8.69447 10.1719 13.9518 10.1719 20.4373C10.1719 26.9228 15.5592 32.1802 22.2053 32.1802C25.0126 32.1802 27.5957 31.2418 29.6424 29.6695C26.8436 27.5193 25.0462 24.1829 25.0462 20.4373Z" fill="#EB001B"/>
<path d="M49.1041 20.4373C49.1041 26.9228 43.7168 32.1802 37.0708 32.1802C34.2635 32.1802 31.6803 31.2418 29.6328 29.6695C32.4325 27.5193 34.2298 24.1829 34.2298 20.4373C34.2298 16.6918 32.4325 13.3553 29.6328 11.2052C31.6803 9.63291 34.2635 8.69447 37.0708 8.69447C43.7168 8.69447 49.1041 13.9518 49.1041 20.4373Z" fill="#F79E1B"/>
</svg>
