<svg width="59" height="41" viewBox="0 0 59 41" fill="none" xmlns="http://www.w3.org/2000/svg">
<rect y="0.694458" width="59" height="40" rx="4" fill="white"/>
<path fill-rule="evenodd" clip-rule="evenodd" d="M26.8953 20.9506L27.1521 19.3422L26.5799 19.329H23.8477L25.7465 7.45948C25.7524 7.42354 25.7715 7.39017 25.7995 7.36644C25.8275 7.3427 25.8633 7.32968 25.9007 7.32968H30.5078C32.0373 7.32968 33.0928 7.6434 33.6438 8.26269C33.9022 8.55321 34.0667 8.85689 34.1464 9.19095C34.2299 9.54156 34.2313 9.96039 34.1498 10.4713L34.1439 10.5085V10.8359L34.4023 10.9802C34.6198 11.094 34.7927 11.2242 34.9253 11.3733C35.1463 11.6217 35.2892 11.9375 35.3496 12.3117C35.4121 12.6966 35.3915 13.1548 35.2892 13.6734C35.1713 14.2699 34.9808 14.7896 34.7234 15.2146C34.4867 15.6063 34.1852 15.9313 33.8271 16.183C33.4852 16.4223 33.0791 16.6039 32.6198 16.7201C32.1748 16.8343 31.6674 16.892 31.1109 16.892H30.7524C30.4961 16.892 30.247 16.983 30.0515 17.1461C29.8555 17.3127 29.7259 17.5403 29.6861 17.7892L29.659 17.934L29.2052 20.7691L29.1847 20.8732C29.1792 20.9061 29.1698 20.9225 29.1561 20.9337C29.1438 20.9438 29.1262 20.9506 29.109 20.9506H26.8953Z" fill="#28356A"/>
<path fill-rule="evenodd" clip-rule="evenodd" d="M34.6479 10.5463C34.6343 10.633 34.6185 10.7216 34.6009 10.8126C33.9933 13.8879 31.9147 14.9503 29.26 14.9503H27.9083C27.5836 14.9503 27.31 15.1826 27.2595 15.4984L26.3714 21.0518C26.3386 21.2592 26.5006 21.4459 26.7128 21.4459H29.1102C29.394 21.4459 29.6352 21.2426 29.6799 20.9666L29.7034 20.8466L30.1548 18.0226L30.1838 17.8677C30.228 17.5908 30.4697 17.3873 30.7535 17.3873H31.1121C33.4348 17.3873 35.2531 16.4577 35.7846 13.7673C36.0065 12.6435 35.8916 11.705 35.3042 11.045C35.1264 10.8461 34.9059 10.6809 34.6479 10.5463Z" fill="#298FC2"/>
<path fill-rule="evenodd" clip-rule="evenodd" d="M34.0108 10.2965C33.9179 10.2698 33.8222 10.2456 33.7239 10.2238C33.6251 10.2025 33.524 10.1836 33.4199 10.1671C33.0554 10.109 32.6561 10.0815 32.2283 10.0815H28.6173C28.5283 10.0815 28.4439 10.1013 28.3683 10.1371C28.2017 10.2161 28.078 10.3715 28.0481 10.5618L27.2798 15.3585L27.2578 15.4984C27.3083 15.1826 27.5819 14.9503 27.9066 14.9503H29.2583C31.913 14.9503 33.9916 13.8873 34.5992 10.8126C34.6173 10.7216 34.6326 10.633 34.6462 10.5463C34.4926 10.4659 34.3261 10.3971 34.1468 10.3385C34.1025 10.324 34.0569 10.3101 34.0108 10.2965Z" fill="#22284F"/>
<path fill-rule="evenodd" clip-rule="evenodd" d="M28.0462 10.5618C28.0762 10.3715 28.1999 10.216 28.3665 10.1376C28.4426 10.1017 28.5265 10.0819 28.6155 10.0819H32.2265C32.6542 10.0819 33.0536 10.1096 33.4181 10.1676C33.5222 10.184 33.6233 10.203 33.7221 10.2243C33.8203 10.246 33.9161 10.2703 34.0089 10.2969C34.055 10.3104 34.1007 10.3245 34.1454 10.3385C34.3247 10.3971 34.4913 10.4664 34.645 10.5463C34.8257 9.40985 34.6435 8.63607 34.0202 7.9354C33.333 7.16393 32.0929 6.8338 30.506 6.8338H25.8988C25.5747 6.8338 25.2981 7.06614 25.2481 7.38243L23.3291 19.374C23.2913 19.6112 23.4769 19.8253 23.7196 19.8253H26.5638L28.0462 10.5618Z" fill="#28356A"/>
<path fill-rule="evenodd" clip-rule="evenodd" d="M13.3192 24.2153H9.9601C9.73021 24.2153 9.53471 24.3799 9.4988 24.6037L8.14023 33.0954C8.11327 33.263 8.24493 33.4139 8.41731 33.4139H10.0209C10.2508 33.4139 10.4463 33.2494 10.4822 33.0252L10.8486 30.7348C10.8839 30.5106 11.0798 30.346 11.3093 30.346H12.3726C14.5853 30.346 15.8623 29.2903 16.1959 27.1986C16.3461 26.2834 16.2022 25.5644 15.7675 25.0608C15.2901 24.5078 14.4433 24.2153 13.3192 24.2153ZM13.7065 27.3168C13.5228 28.505 12.6019 28.505 11.7115 28.505H11.2045L11.5602 26.2858C11.5814 26.1517 11.6991 26.053 11.8367 26.053H12.0691C12.6756 26.053 13.2478 26.053 13.5435 26.3938C13.7198 26.5971 13.7738 26.8993 13.7065 27.3168Z" fill="#28356A"/>
<path fill-rule="evenodd" clip-rule="evenodd" d="M23.4479 27.2143H21.8394C21.7024 27.2143 21.5839 27.3131 21.5629 27.4472L21.4916 27.8907L21.3792 27.73C21.031 27.2317 20.2544 27.0651 19.4794 27.0651C17.7018 27.0651 16.1836 28.3924 15.8879 30.2542C15.7343 31.1829 15.9527 32.071 16.4872 32.6903C16.9774 33.2597 17.6788 33.4971 18.5132 33.4971C19.9455 33.4971 20.7396 32.5891 20.7396 32.5891L20.6679 33.0298C20.6409 33.1983 20.7726 33.3494 20.944 33.3494H22.3929C22.6233 33.3494 22.8178 33.1847 22.8541 32.9605L23.7235 27.5329C23.751 27.3658 23.6198 27.2143 23.4479 27.2143ZM21.2057 30.3008C21.0505 31.2066 20.3212 31.8148 19.3909 31.8148C18.9238 31.8148 18.5506 31.6671 18.3108 31.3873C18.0731 31.1094 17.9828 30.7138 18.0583 30.2731C18.2033 29.3749 18.9449 28.7468 19.861 28.7468C20.3178 28.7468 20.6891 28.8966 20.9337 29.1787C21.1787 29.4639 21.276 29.862 21.2057 30.3008Z" fill="#28356A"/>
<path fill-rule="evenodd" clip-rule="evenodd" d="M31.8891 27.3501H30.2725C30.1183 27.3501 29.9734 27.4257 29.8861 27.5521L27.6567 30.7895L26.7116 27.6784C26.6522 27.4837 26.4701 27.3501 26.2637 27.3501H24.6754C24.4822 27.3501 24.3482 27.5361 24.4096 27.7152L26.1901 32.8663L24.5162 35.1959C24.3845 35.3794 24.5171 35.6316 24.7446 35.6316H26.359C26.5123 35.6316 26.6556 35.558 26.7426 35.4342L32.1188 27.7835C32.2476 27.6005 32.1154 27.3501 31.8891 27.3501Z" fill="#28356A"/>
<path fill-rule="evenodd" clip-rule="evenodd" d="M37.28 24.2153H33.9205C33.6911 24.2153 33.4956 24.3799 33.4597 24.6037L32.1012 33.0954C32.0742 33.263 32.2059 33.4139 32.3773 33.4139H34.1013C34.2613 33.4139 34.3983 33.2988 34.4233 33.1419L34.809 30.7348C34.8443 30.5106 35.0404 30.346 35.2697 30.346H36.3326C38.5457 30.346 39.8223 29.2903 40.1563 27.1986C40.3071 26.2834 40.1622 25.5644 39.7275 25.0608C39.2505 24.5078 38.4043 24.2153 37.28 24.2153ZM37.6676 27.3168C37.4843 28.505 36.5634 28.505 35.6724 28.505H35.1662L35.5222 26.2858C35.5433 26.1517 35.6602 26.053 35.7982 26.053H36.0306C36.6366 26.053 37.2093 26.053 37.505 26.3938C37.6813 26.5971 37.7349 26.8993 37.6676 27.3168Z" fill="#298FC2"/>
<path fill-rule="evenodd" clip-rule="evenodd" d="M47.4028 27.2143H45.7952C45.6572 27.2143 45.5399 27.3131 45.5192 27.4472L45.448 27.8907L45.335 27.73C44.9868 27.2317 44.2107 27.0651 43.4356 27.0651C41.6581 27.0651 40.1405 28.3924 39.8449 30.2542C39.6916 31.1829 39.9091 32.071 40.4435 32.6903C40.9348 33.2597 41.635 33.4971 42.4696 33.4971C43.9017 33.4971 44.696 32.5891 44.696 32.5891L44.6243 33.0298C44.5973 33.1983 44.7289 33.3494 44.9014 33.3494H46.3498C46.5791 33.3494 46.7746 33.1847 46.8105 32.9605L47.6803 27.5329C47.7068 27.3658 47.5752 27.2143 47.4028 27.2143ZM45.1606 30.3008C45.0064 31.2066 44.276 31.8148 43.3457 31.8148C42.8796 31.8148 42.5054 31.6671 42.2656 31.3873C42.028 31.1094 41.9386 30.7138 42.0131 30.2731C42.1591 29.3749 42.8997 28.7468 43.8158 28.7468C44.2726 28.7468 44.6439 28.8966 44.8885 29.1787C45.1345 29.4639 45.2317 29.862 45.1606 30.3008Z" fill="#298FC2"/>
<path fill-rule="evenodd" clip-rule="evenodd" d="M49.1673 24.4487L47.7887 33.0958C47.7617 33.2634 47.8932 33.4144 48.0647 33.4144H49.4507C49.6812 33.4144 49.8765 33.2498 49.9119 33.0256L51.2714 24.5344C51.2985 24.3668 51.1669 24.2153 50.9955 24.2153H49.4434C49.3064 24.2157 49.1885 24.3146 49.1673 24.4487Z" fill="#298FC2"/>
</svg>
