<svg width="59" height="41" viewBox="0 0 59 41" fill="none" xmlns="http://www.w3.org/2000/svg">
<path d="M26.1976 28.1277H22.2695L24.7264 14.127H28.6543L26.1976 28.1277Z" fill="#15195A"/>
<path d="M40.4355 14.4693C39.6607 14.186 38.4318 13.8732 36.9123 13.8732C33.0332 13.8732 30.3016 15.7796 30.2848 18.5051C30.2526 20.516 32.2406 21.6329 33.7274 22.3034C35.2472 22.9886 35.7638 23.4358 35.7638 24.0465C35.7483 24.9844 34.5357 25.4168 33.4048 25.4168C31.8366 25.4168 30.9962 25.1939 29.7193 24.6721L29.202 24.4484L28.6523 27.5912C29.5736 27.978 31.271 28.3213 33.0332 28.3364C37.1548 28.3364 39.8381 26.4595 39.8699 23.555C39.8856 21.9612 38.8358 20.7399 36.5727 19.742C35.1988 19.1014 34.3575 18.6694 34.3575 18.014C34.3736 17.4181 35.0691 16.8078 36.6199 16.8078C37.8969 16.7779 38.8352 17.0608 39.546 17.3439L39.9012 17.4926L40.4355 14.4693Z" fill="#15195A"/>
<path fill-rule="evenodd" clip-rule="evenodd" d="M47.4658 14.127H50.5042L53.6731 28.1275H50.0361C50.0361 28.1275 49.6802 26.5188 49.5674 26.0273H44.5241C44.3783 26.3995 43.6997 28.1275 43.6997 28.1275H39.5781L45.4128 15.2886C45.817 14.38 46.5289 14.127 47.4658 14.127ZM47.2238 19.2505C47.2238 19.2505 45.9791 22.3634 45.6556 23.1677H48.9205C48.759 22.4677 48.0152 19.1164 48.0152 19.1164L47.7406 17.91C47.625 18.2207 47.4578 18.6478 47.3451 18.9359C47.2687 19.1311 47.2172 19.2625 47.2238 19.2505Z" fill="#15195A"/>
<path d="M11.5684 14.127C12.4248 14.1565 13.1195 14.4098 13.3457 15.3037L14.7197 21.7383L15.1406 23.6739L18.9873 14.127H23.1406L16.9668 28.1133H12.8125L9.31152 15.9473C8.1036 15.2965 6.72491 14.7734 5.18359 14.4102L5.24805 14.127H11.5684Z" fill="#15195A"/>
</svg>
