<svg xmlns="http://www.w3.org/2000/svg" width="48" height="48" viewBox="0 0 48 48" fill="none">
<path d="M2.16235 45.5214H45.0409" stroke="#13AA52" stroke-width="1.5" stroke-linecap="round" stroke-linejoin="round"/>
<path fill-rule="evenodd" clip-rule="evenodd" d="M6.1051 36.65H11.5285C12.0729 36.65 12.5142 37.0913 12.5142 37.6357V45.5214H5.11938V37.6357C5.11938 37.0913 5.5607 36.65 6.1051 36.65Z" stroke="#13AA52" stroke-width="1.5" stroke-linecap="round" stroke-linejoin="round"/>
<path fill-rule="evenodd" clip-rule="evenodd" d="M20.891 18.9071H26.3144C26.8588 18.9071 27.3001 19.3485 27.3001 19.8928V45.5214H19.9053V19.8928C19.9053 19.3485 20.3466 18.9071 20.891 18.9071Z" stroke="#13AA52" stroke-width="1.5" stroke-linecap="round" stroke-linejoin="round"/>
<path fill-rule="evenodd" clip-rule="evenodd" d="M35.6766 27.7786H41.1C41.6444 27.7786 42.0857 28.2199 42.0857 28.7643V45.5214H34.6929V28.7643C34.6929 28.2207 35.133 27.7797 35.6766 27.7786Z" stroke="#13AA52" stroke-width="1.5" stroke-linecap="round" stroke-linejoin="round"/>
<path d="M14.2552 9.7814L6.33594 17.6927" stroke="#116149" stroke-width="1.5" stroke-linecap="round" stroke-linejoin="round"/>
<path d="M28.8988 12.155L19.6843 9.6907" stroke="#116149" stroke-width="1.5" stroke-linecap="round" stroke-linejoin="round"/>
<path d="M40.8871 5.38116L33.8274 10.9012" stroke="#116149" stroke-width="1.5" stroke-linecap="round" stroke-linejoin="round"/>
<path fill-rule="evenodd" clip-rule="evenodd" d="M16.9481 11.5162C18.5813 11.5162 19.9053 10.1923 19.9053 8.5591C19.9053 6.92592 18.5813 5.60196 16.9481 5.60196C15.3149 5.60196 13.991 6.92592 13.991 8.5591C13.991 10.1923 15.3149 11.5162 16.9481 11.5162Z" stroke="#116149" stroke-width="1.5" stroke-linecap="round" stroke-linejoin="round"/>
<path fill-rule="evenodd" clip-rule="evenodd" d="M43.5643 7.07856C45.1975 7.07856 46.5215 5.7546 46.5215 4.12142C46.5215 2.48823 45.1975 1.16428 43.5643 1.16428C41.9311 1.16428 40.6072 2.48823 40.6072 4.12142C40.6072 5.7546 41.9311 7.07856 43.5643 7.07856Z" stroke="#116149" stroke-width="1.5" stroke-linecap="round" stroke-linejoin="round"/>
<path fill-rule="evenodd" clip-rule="evenodd" d="M31.7357 15.95C33.3689 15.95 34.6929 14.626 34.6929 12.9928C34.6929 11.3597 33.3689 10.0357 31.7357 10.0357C30.1025 10.0357 28.7786 11.3597 28.7786 12.9928C28.7786 14.626 30.1025 15.95 31.7357 15.95Z" stroke="#116149" stroke-width="1.5" stroke-linecap="round" stroke-linejoin="round"/>
<path fill-rule="evenodd" clip-rule="evenodd" d="M5.1195 23.3448C6.75268 23.3448 8.07664 22.0209 8.07664 20.3877C8.07664 18.7545 6.75268 17.4305 5.1195 17.4305C3.48631 17.4305 2.16235 18.7545 2.16235 20.3877C2.16235 22.0209 3.48631 23.3448 5.1195 23.3448Z" stroke="#116149" stroke-width="1.5" stroke-linecap="round" stroke-linejoin="round"/>
</svg>
