<svg xmlns="http://www.w3.org/2000/svg" width="48" height="48" viewBox="0 0 48 48" fill="none">
<path d="M23.3721 23.4813L37.4155 9.43778" stroke="#116149" stroke-width="1.5" stroke-linecap="round" stroke-linejoin="round"/>
<path d="M32.0789 9.43778H37.4154V14.7743" stroke="#116149" stroke-width="1.5" stroke-linecap="round" stroke-linejoin="round"/>
<path d="M11.002 2.14688C9.73521 2.14688 8.70825 3.17384 8.70825 4.44065" stroke="#13AA52" stroke-width="1.5" stroke-linecap="round" stroke-linejoin="round"/>
<path d="M43.1147 2.14688C44.3816 2.14688 45.4085 3.17384 45.4085 4.44065" stroke="#13AA52" stroke-width="1.5" stroke-linecap="round" stroke-linejoin="round"/>
<path d="M16.7364 2.14688H14.4426" stroke="#13AA52" stroke-width="1.5" stroke-linecap="round" stroke-linejoin="round"/>
<path d="M22.4708 2.14688H20.177" stroke="#13AA52" stroke-width="1.5" stroke-linecap="round" stroke-linejoin="round"/>
<path d="M28.2051 2.14688H25.9114" stroke="#13AA52" stroke-width="1.5" stroke-linecap="round" stroke-linejoin="round"/>
<path d="M33.9398 2.14688H31.646" stroke="#13AA52" stroke-width="1.5" stroke-linecap="round" stroke-linejoin="round"/>
<path d="M39.6741 2.14688H37.3804" stroke="#13AA52" stroke-width="1.5" stroke-linecap="round" stroke-linejoin="round"/>
<path d="M43.1147 38.8472C44.3816 38.8472 45.4085 37.8202 45.4085 36.5534" stroke="#13AA52" stroke-width="1.5" stroke-linecap="round" stroke-linejoin="round"/>
<path d="M45.4086 33.1127V30.819" stroke="#13AA52" stroke-width="1.5" stroke-linecap="round" stroke-linejoin="round"/>
<path d="M45.4086 27.3783V25.0845" stroke="#13AA52" stroke-width="1.5" stroke-linecap="round" stroke-linejoin="round"/>
<path d="M45.4086 21.6439V19.3501" stroke="#13AA52" stroke-width="1.5" stroke-linecap="round" stroke-linejoin="round"/>
<path d="M45.4086 15.9095V13.6157" stroke="#13AA52" stroke-width="1.5" stroke-linecap="round" stroke-linejoin="round"/>
<path d="M45.4086 10.1751V7.8813" stroke="#13AA52" stroke-width="1.5" stroke-linecap="round" stroke-linejoin="round"/>
<path d="M3.49176 7.2095C2.59116 7.2095 1.86108 7.9422 1.86108 8.84602" stroke="#13AA52" stroke-width="1.5" stroke-linecap="round" stroke-linejoin="round"/>
<path d="M16.5371 7.2095C17.4377 7.2095 18.1678 7.9422 18.1678 8.84602" stroke="#13AA52" stroke-width="1.5" stroke-linecap="round" stroke-linejoin="round"/>
<path d="M1.86099 12.119V13.7556" stroke="#13AA52" stroke-width="1.5" stroke-linecap="round" stroke-linejoin="round"/>
<path d="M8.3836 7.2095H6.75293" stroke="#13AA52" stroke-width="1.5" stroke-linecap="round" stroke-linejoin="round"/>
<path d="M13.2757 7.2095H11.645" stroke="#13AA52" stroke-width="1.5" stroke-linecap="round" stroke-linejoin="round"/>
<path d="M16.5371 23.5747C17.4377 23.5747 18.1678 22.842 18.1678 21.9382" stroke="#13AA52" stroke-width="1.5" stroke-linecap="round" stroke-linejoin="round"/>
<path d="M18.1676 18.6651V17.0286" stroke="#13AA52" stroke-width="1.5" stroke-linecap="round" stroke-linejoin="round"/>
<path d="M3.49176 23.5747C2.59116 23.5747 1.86108 22.842 1.86108 21.9382" stroke="#13AA52" stroke-width="1.5" stroke-linecap="round" stroke-linejoin="round"/>
<path d="M1.86099 18.6651V17.0286" stroke="#13AA52" stroke-width="1.5" stroke-linecap="round" stroke-linejoin="round"/>
<path d="M18.1676 13.7556V12.119" stroke="#13AA52" stroke-width="1.5" stroke-linecap="round" stroke-linejoin="round"/>
<path d="M25.5057 28.4842C24.6051 28.4842 23.875 29.2169 23.875 30.1207" stroke="#13AA52" stroke-width="1.5" stroke-linecap="round" stroke-linejoin="round"/>
<path d="M38.551 28.4842C39.4516 28.4842 40.1817 29.2169 40.1817 30.1207" stroke="#13AA52" stroke-width="1.5" stroke-linecap="round" stroke-linejoin="round"/>
<path d="M30.3978 28.4842H28.7671" stroke="#13AA52" stroke-width="1.5" stroke-linecap="round" stroke-linejoin="round"/>
<path d="M30.3978 44.8494H28.7671" stroke="#13AA52" stroke-width="1.5" stroke-linecap="round" stroke-linejoin="round"/>
<path d="M35.2899 28.4842H33.6592" stroke="#13AA52" stroke-width="1.5" stroke-linecap="round" stroke-linejoin="round"/>
<path d="M35.2899 44.8494H33.6592" stroke="#13AA52" stroke-width="1.5" stroke-linecap="round" stroke-linejoin="round"/>
<path d="M38.551 44.8494C39.4516 44.8494 40.1817 44.1167 40.1817 43.2129" stroke="#13AA52" stroke-width="1.5" stroke-linecap="round" stroke-linejoin="round"/>
<path d="M40.1818 39.9398V38.3033" stroke="#13AA52" stroke-width="1.5" stroke-linecap="round" stroke-linejoin="round"/>
<path d="M25.5057 44.8494C24.6051 44.8494 23.875 44.1167 23.875 43.2129" stroke="#13AA52" stroke-width="1.5" stroke-linecap="round" stroke-linejoin="round"/>
<path d="M40.1818 35.0303V33.3938" stroke="#13AA52" stroke-width="1.5" stroke-linecap="round" stroke-linejoin="round"/>
<path d="M12.8545 28.4843H16.7987C17.5547 28.4843 18.1676 29.0972 18.1676 29.8532C18.1676 31.7786 18.1676 33.2226 18.1676 34.1853" stroke="#13AA52" stroke-width="1.5" stroke-linecap="round" stroke-linejoin="round"/>
<path d="M18.1678 39.9278C18.1678 40.6508 18.1678 41.835 18.1678 43.4805C18.1678 44.2365 17.5549 44.8494 16.7988 44.8494H3.23004C2.47399 44.8494 1.86108 44.2365 1.86108 43.4805V29.8532C1.86108 29.0972 2.47399 28.4843 3.23004 28.4843H7.07743" stroke="#13AA52" stroke-width="1.5" stroke-linecap="round" stroke-linejoin="round"/>
<path d="M13.1681 17.5338L9.77632 14.1298L6.38452 17.5338" stroke="#116149" stroke-width="1.5" stroke-linecap="round" stroke-linejoin="round"/>
<path d="M9.77642 36.9093V14.1771" stroke="#116149" stroke-width="1.5" stroke-linecap="round" stroke-linejoin="round"/>
<path d="M29.3194 40.4895L32.7234 37.0977L29.3194 33.7059" stroke="#116149" stroke-width="1.5" stroke-linecap="round" stroke-linejoin="round"/>
<path d="M9.94382 37.0977L32.676 37.0977" stroke="#116149" stroke-width="1.5" stroke-linecap="round" stroke-linejoin="round"/>
</svg>
