<svg xmlns="http://www.w3.org/2000/svg" width="48" height="48" viewBox="0 0 48 48" fill="none">
<path d="M30.1541 17.9075L35.7258 12.3741" stroke="#116149" stroke-width="1.5" stroke-linecap="round" stroke-linejoin="round"/>
<path d="M30.1372 30.1487L35.6687 35.7051" stroke="#116149" stroke-width="1.5" stroke-linecap="round" stroke-linejoin="round"/>
<path d="M17.8766 17.8962L12.3145 12.3743" stroke="#116149" stroke-width="1.5" stroke-linecap="round" stroke-linejoin="round"/>
<path d="M17.8878 30.1655L12.3735 35.7066" stroke="#116149" stroke-width="1.5" stroke-linecap="round" stroke-linejoin="round"/>
<path d="M32.6455 24H38.3955" stroke="#116149" stroke-width="1.5" stroke-linecap="round" stroke-linejoin="round"/>
<path d="M15.3965 24H9.64648" stroke="#116149" stroke-width="1.5" stroke-linecap="round" stroke-linejoin="round"/>
<path d="M24.0215 32.625V38.375" stroke="#116149" stroke-width="1.5" stroke-linecap="round" stroke-linejoin="round"/>
<path d="M24.0215 15.375V9.625" stroke="#116149" stroke-width="1.5" stroke-linecap="round" stroke-linejoin="round"/>
<path fill-rule="evenodd" clip-rule="evenodd" d="M23.9998 15.3535C28.7743 15.3535 32.6459 19.2252 32.6459 23.9996C32.6459 28.774 28.7743 32.6457 23.9998 32.6457C19.2254 32.6457 15.3538 28.774 15.3538 23.9996C15.3538 19.2252 19.2254 15.3535 23.9998 15.3535Z" stroke="#13AA52" stroke-width="1.5" stroke-linecap="round" stroke-linejoin="round"/>
<path fill-rule="evenodd" clip-rule="evenodd" d="M38.3953 5.79169C40.5113 5.79169 42.2287 7.50902 42.2287 9.62502C42.2287 11.741 40.5113 13.4584 38.3953 13.4584C36.2793 13.4584 34.562 11.741 34.562 9.62502C34.562 7.50902 36.2793 5.79169 38.3953 5.79169Z" stroke="#13AA52" stroke-width="1.5" stroke-linecap="round" stroke-linejoin="round"/>
<path fill-rule="evenodd" clip-rule="evenodd" d="M38.4161 34.5417C40.5321 34.5417 42.2494 36.259 42.2494 38.375C42.2494 40.491 40.5321 42.2084 38.4161 42.2084C36.2982 42.2084 34.5828 40.491 34.5828 38.375C34.5828 36.259 36.2982 34.5417 38.4161 34.5417Z" stroke="#13AA52" stroke-width="1.5" stroke-linecap="round" stroke-linejoin="round"/>
<path fill-rule="evenodd" clip-rule="evenodd" d="M9.64632 5.79169C11.7623 5.79169 13.4797 7.50902 13.4797 9.62502C13.4797 11.741 11.7623 13.4584 9.64632 13.4584C7.5284 13.4584 5.81299 11.741 5.81299 9.62502C5.81299 7.50902 7.5284 5.79169 9.64632 5.79169Z" stroke="#13AA52" stroke-width="1.5" stroke-linecap="round" stroke-linejoin="round"/>
<path fill-rule="evenodd" clip-rule="evenodd" d="M9.62484 34.5417C11.7408 34.5417 13.4582 36.259 13.4582 38.375C13.4582 40.491 11.7408 42.2084 9.62484 42.2084C7.50884 42.2084 5.7915 40.491 5.7915 38.375C5.7915 36.259 7.50884 34.5417 9.62484 34.5417Z" stroke="#13AA52" stroke-width="1.5" stroke-linecap="round" stroke-linejoin="round"/>
<path fill-rule="evenodd" clip-rule="evenodd" d="M42.2288 20.1667C44.3448 20.1667 46.0622 21.884 46.0622 24C46.0622 26.116 44.3448 27.8334 42.2288 27.8334C40.1128 27.8334 38.3955 26.116 38.3955 24C38.3955 21.884 40.1128 20.1667 42.2288 20.1667Z" stroke="#13AA52" stroke-width="1.5" stroke-linecap="round" stroke-linejoin="round"/>
<path fill-rule="evenodd" clip-rule="evenodd" d="M5.81307 20.1667C7.92907 20.1667 9.6464 21.884 9.6464 24C9.6464 26.116 7.92907 27.8334 5.81307 27.8334C3.69515 27.8334 1.97974 26.116 1.97974 24C1.97974 21.884 3.69515 20.1667 5.81307 20.1667Z" stroke="#13AA52" stroke-width="1.5" stroke-linecap="round" stroke-linejoin="round"/>
<path fill-rule="evenodd" clip-rule="evenodd" d="M27.8537 42.2083C27.8537 44.3243 26.1363 46.0417 24.0203 46.0417C21.9043 46.0417 20.187 44.3243 20.187 42.2083C20.187 40.0923 21.9043 38.375 24.0203 38.375C26.1363 38.375 27.8537 40.0923 27.8537 42.2083Z" stroke="#13AA52" stroke-width="1.5" stroke-linecap="round" stroke-linejoin="round"/>
<path fill-rule="evenodd" clip-rule="evenodd" d="M27.8537 5.79168C27.8537 7.90768 26.1363 9.62501 24.0203 9.62501C21.9043 9.62501 20.187 7.90768 20.187 5.79168C20.187 3.67568 21.9043 1.95834 24.0203 1.95834C26.1363 1.95834 27.8537 3.67568 27.8537 5.79168Z" stroke="#13AA52" stroke-width="1.5" stroke-linecap="round" stroke-linejoin="round"/>
</svg>
