<svg xmlns="http://www.w3.org/2000/svg" width="336" height="56" viewBox="0 0 336 56" fill="none">
<path d="M23.7665 0.230174C27.4549 -0.259435 31.2354 0.0439308 34.8201 1.02699C42.0568 3.16591 48.5791 7.39191 53.8899 12.7085C54.5831 13.2864 54.8327 14.3789 54.2912 15.1373C53.7191 15.9745 52.3616 16.0014 51.7069 15.2487C48.6732 12.2611 45.2671 9.64412 41.5633 7.53784C36.7383 4.8037 31.197 3.00463 25.5982 3.4232C20.2816 3.86288 15.2473 6.00949 10.8005 8.87994C8.01643 10.7078 5.38022 12.7757 3.03586 15.145C2.4272 15.8631 1.20606 16.0551 0.516768 15.3562C-0.272367 14.6765 -0.101484 13.3978 0.649251 12.7565C3.64451 9.73628 7.05257 7.12695 10.7179 4.96883C13.0565 3.5768 15.543 2.42862 18.1293 1.57804C19.9399 0.881451 21.8503 0.485923 23.7665 0.230174Z" fill="#F3603C"/>
<path d="M16.9984 10.3065C18.6496 9.6172 20.5159 9.67865 22.2439 10.0089C22.1076 10.9247 22.0231 11.8464 21.8772 12.7603C20.8173 12.5126 19.6154 12.2803 18.6131 12.8352C17.7088 13.3613 17.5225 14.4826 17.4841 15.4388C17.4438 16.9306 17.4784 18.4225 17.4707 19.9144C18.6957 19.9182 19.9207 19.9163 21.1476 19.9163C21.1456 20.8206 21.1476 21.7269 21.1456 22.6312C19.913 22.6312 18.6803 22.6293 17.4477 22.6312V36.2827H14.3391C14.341 31.7322 14.3391 27.1836 14.3391 22.6331C13.1564 22.6274 11.9717 22.6351 10.789 22.6255C10.787 21.725 10.787 20.8225 10.787 19.922C11.9698 19.9124 13.1545 19.9182 14.3372 19.9163C14.4313 17.6737 14.0876 15.3754 14.6943 13.1827C15.0169 11.9635 15.8003 10.7999 16.9984 10.3065ZM24.1351 36.2831C24.1371 27.5891 24.1275 18.8933 24.139 10.1974C25.172 10.1994 26.2049 10.1994 27.2398 10.1994C27.2456 18.8933 27.2398 27.5891 27.2418 36.2831H24.1351ZM66.9942 13.8355C67.9542 13.4496 69.1562 13.9949 69.3846 15.0298C69.7936 16.3623 68.1981 17.6814 66.9635 17.0285C65.5926 16.5236 65.6271 14.3255 66.9942 13.8355ZM112.013 20.0564C114.041 19.275 116.393 19.3172 118.378 20.2139C119.323 20.6094 120.033 21.3717 120.627 22.1819C119.818 22.8098 119.004 23.4261 118.184 24.0348C117.57 23.4012 116.881 22.7791 115.999 22.5679C114.893 22.301 113.62 22.3739 112.674 23.0575C111.948 23.6028 111.942 24.7817 112.584 25.3941C113.482 26.2754 114.772 26.4905 115.961 26.7132C117.407 27.0281 118.958 27.4447 119.997 28.5737C121.089 29.72 121.251 31.4749 120.865 32.9514C120.381 34.666 118.824 35.8948 117.142 36.3345C115.204 36.8452 113.106 36.8337 111.199 36.2059C109.911 35.7854 108.87 34.8523 108.083 33.7751C108.878 33.1377 109.667 32.4887 110.45 31.8359C111.384 32.6903 112.42 33.5812 113.73 33.7309C114.88 33.8462 116.155 33.7175 117.092 32.9764C117.796 32.4445 117.937 31.304 117.33 30.6474C116.671 29.9062 115.673 29.6355 114.746 29.4147C113.065 29.0269 111.226 28.7254 109.919 27.5062C108.791 26.4329 108.607 24.7279 108.943 23.2763C109.329 21.7618 110.587 20.6075 112.013 20.0564ZM47.2236 19.924C48.5695 19.9124 49.9174 19.9144 51.2633 19.9201C52.567 21.8478 53.888 23.7621 55.1975 25.6841C56.4974 23.7679 57.7838 21.844 59.074 19.924C60.3394 19.9144 61.6066 19.9086 62.8719 19.9278C61.0133 22.4623 59.1489 24.9967 57.2999 27.5407C59.483 30.4669 61.7141 33.3585 63.9068 36.2788C62.5608 36.2865 61.2168 36.2831 59.8709 36.2831C58.2696 34.0059 56.6855 31.7134 55.0573 29.4554C53.4464 31.7249 51.8547 34.0078 50.2515 36.2831C48.9612 36.2811 47.671 36.2888 46.3807 36.2773C48.6003 33.3704 50.8064 30.4558 53.0106 27.5373C51.0713 25.0067 49.1513 22.4626 47.2236 19.9243V19.924Z" fill="#004F6D"/>
<path d="M66.1667 19.9162H69.2867V37.3122C69.2694 38.7656 69.3942 40.2709 68.8912 41.6668C68.4457 42.9724 67.3244 44.0496 65.9747 44.3702C64.765 44.6659 63.494 44.5814 62.2959 44.2819C62.3573 43.3123 62.5071 42.3503 62.6107 41.3845C63.4728 41.6111 64.4828 41.8242 65.2623 41.2521C66.0342 40.6492 66.1225 39.572 66.1667 38.6677V19.9166V19.9162ZM36.3638 29.2284H46.8837C46.9164 27.6866 46.9029 26.1103 46.3711 24.6414C45.7202 22.5832 44.14 20.8263 42.1201 20.041C40.7818 19.49 39.3053 19.4535 37.8845 19.561C35.6534 19.7953 33.5203 20.9684 32.1954 22.7905C30.3925 25.204 30.0546 28.5218 31.0281 31.3366C31.6098 33.0531 32.7811 34.5872 34.3555 35.505C36.3734 36.73 38.8676 36.9239 41.1447 36.4785C43.1358 36.0945 44.9579 34.9501 46.1752 33.3296C45.3899 32.7344 44.6085 32.1334 43.8232 31.5401C42.9016 32.577 41.8033 33.5946 40.3978 33.873C38.7735 34.1859 37.0339 33.7789 35.6995 32.8112C34.6013 31.9952 33.8716 30.7068 33.7987 29.3359C34.6435 29.165 35.5075 29.2346 36.3638 29.2284ZM33.7776 26.7059C33.9235 25.477 34.438 24.2866 35.3385 23.4245C37.0762 21.7176 40.1137 21.5064 42.026 23.0348C43.1262 23.9218 43.5045 25.3657 43.612 26.7155C40.3345 26.7231 37.0551 26.7404 33.7776 26.7059ZM78.5106 19.6186C80.2616 19.369 82.103 19.5245 83.712 20.2964C86.2234 21.4292 88.1146 23.8465 88.585 26.5634C88.9268 28.5122 88.6138 30.584 87.6288 32.3062C86.4096 34.5162 84.1516 36.0906 81.6786 36.5495C79.6684 36.9086 77.5256 36.6129 75.7419 35.6014C73.3975 34.338 71.7328 31.9092 71.4045 29.2672C71.2355 27.6908 71.3796 26.0531 72.0669 24.6073C73.1997 22.0037 75.7112 20.0779 78.5106 19.619V19.6186ZM78.6488 22.5759C76.9515 22.9349 75.5307 24.2617 75.0084 25.909C74.3402 27.9424 74.5899 30.3808 76.0049 32.0474C78.092 34.4782 82.4543 34.3342 84.3187 31.7018C85.8413 29.4592 85.7645 26.1548 83.9808 24.0754C82.6751 22.6027 80.5189 22.1496 78.6488 22.5759ZM90.5377 10.1974C91.5707 10.1993 92.6036 10.1974 93.6366 10.1993C93.6405 14.2237 93.6366 18.2481 93.6385 22.2725C94.9038 20.4561 97.1445 19.4865 99.3257 19.5153C101.048 19.4616 102.788 19.9454 104.21 20.9227C106.03 22.1535 107.196 24.2098 107.542 26.3583C107.939 28.7949 107.53 31.4503 106.036 33.4644C104.796 35.2193 102.778 36.356 100.656 36.6171C98.0681 37.003 95.2187 36.0852 93.6385 33.931C93.6385 34.7143 93.6366 35.4977 93.6385 36.2811C92.6017 36.2849 91.5668 36.283 90.5338 36.283C90.5358 27.5872 90.5281 18.8932 90.5377 10.1974ZM97.2847 22.6642C95.9925 23.0482 94.877 23.9813 94.2798 25.191C93.5752 26.6214 93.4657 28.3091 93.8497 29.847C94.203 31.2832 95.163 32.5965 96.5224 33.2244C98.7612 34.3188 101.841 33.787 103.3 31.6807C104.905 29.3056 104.725 25.717 102.597 23.7144C101.173 22.4491 99.0818 22.1477 97.2847 22.6642Z" fill="#004F6D"/>
<path d="M75.8149 40.1288C76.5387 39.6699 77.5045 39.9464 78.0632 40.5416C80.2713 42.7804 82.7424 44.7504 85.3478 46.5072C88.9383 48.8496 92.8533 50.7889 97.0582 51.7316C100.57 52.5534 104.27 52.5361 107.776 51.6836C110.856 50.9886 113.78 49.7213 116.527 48.1834C120.166 46.1366 123.524 43.5868 126.479 40.6376C126.922 40.2133 127.491 39.8255 128.14 39.908C128.963 39.9445 129.666 40.7164 129.612 41.5439C129.647 42.2908 129.054 42.8438 128.581 43.3391C123.764 48.0067 118.056 51.8679 111.681 54.0529C107.979 55.3355 104.016 55.8635 100.109 55.5563C93.8863 55.0571 88.0359 52.4075 82.9152 48.9456C80.2502 47.1139 77.7311 45.0537 75.4981 42.7132C74.7435 42.0086 74.8721 40.6108 75.8149 40.1288Z" fill="#F3603C"/>
<path fill-rule="evenodd" clip-rule="evenodd" d="M134.592 23.9067H139.857V25.22H136.044V27.3627H139.638V28.676H136.044V32.063H134.592V23.9067ZM142.382 23.9067H143.833V32.063H142.382V23.9067ZM146.83 23.9067H148.754L152.706 29.9663H152.729V23.9067H154.18V32.063H152.337L148.305 25.8075H148.282V32.063H146.83V23.9067ZM157.212 23.9067H160.426C160.964 23.9067 161.482 23.9892 161.981 24.1543C162.481 24.3195 162.922 24.571 163.306 24.9089C163.69 25.2468 163.997 25.6712 164.228 26.1819C164.458 26.6926 164.573 27.2936 164.573 27.9848C164.573 28.6837 164.441 29.2885 164.176 29.7992C163.911 30.31 163.569 30.7324 163.151 31.0665C162.732 31.4006 162.267 31.6502 161.757 31.8153C161.246 31.9804 160.745 32.063 160.253 32.063H157.212V23.9067ZM159.746 30.7497C160.2 30.7497 160.628 30.6978 161.031 30.5941C161.434 30.4905 161.785 30.3292 162.085 30.1103C162.385 29.8914 162.621 29.6072 162.793 29.2578C162.966 28.9083 163.053 28.484 163.053 27.9848C163.053 27.4933 162.976 27.0709 162.822 26.7176C162.669 26.3643 162.456 26.0782 162.183 25.8593C161.91 25.6404 161.588 25.4792 161.215 25.3755C160.843 25.2718 160.434 25.22 159.988 25.22H158.663V30.7497H159.746ZM174.427 23.9067H175.683L179.196 32.063H177.537L176.777 30.1967H173.24L172.503 32.063H170.879L174.427 23.9067ZM176.27 28.9525L175.015 25.6347L173.736 28.9525H176.27ZM238.946 23.9067H240.536L242.068 29.782H242.091L243.923 23.9067H245.351L247.148 29.782H247.171L248.773 23.9067H250.247L247.874 32.063H246.492L244.602 25.8536H244.579L242.69 32.063H241.354L238.946 23.9067ZM254.719 23.9067H255.975L259.488 32.063H257.83L257.069 30.1967H253.532L252.795 32.063H251.171L254.719 23.9067ZM256.562 28.9525L255.307 25.6347L254.028 28.9525H256.562ZM262.751 28.5723L259.686 23.9067H261.506L263.511 27.1554L265.538 23.9067H267.267L264.202 28.5723V32.063H262.751V28.5723ZM275.519 25.22H273.019V23.9067H279.47V25.22H276.97V32.063H275.519V25.22ZM281.235 28.0194C281.235 27.3666 281.342 26.7733 281.557 26.2395C281.772 25.7057 282.07 25.2507 282.45 24.8744C282.83 24.498 283.283 24.2081 283.81 24.0046C284.336 23.801 284.914 23.6993 285.543 23.6993C286.181 23.6916 286.765 23.7857 287.294 23.9815C287.824 24.1774 288.281 24.4635 288.665 24.8398C289.049 25.2161 289.349 25.6692 289.564 26.1992C289.779 26.7291 289.886 27.3205 289.886 27.9733C289.886 28.6107 289.779 29.1906 289.564 29.7128C289.349 30.2351 289.049 30.6844 288.665 31.0607C288.281 31.437 287.824 31.7308 287.294 31.942C286.765 32.1532 286.181 32.2627 285.543 32.2703C284.914 32.2703 284.336 32.1686 283.81 31.965C283.283 31.7615 282.83 31.4735 282.45 31.101C282.07 30.7285 281.772 30.2812 281.557 29.7589C281.342 29.2367 281.235 28.6568 281.235 28.0194ZM282.755 27.9272C282.755 28.365 282.823 28.7682 282.957 29.1368C283.091 29.5055 283.282 29.8242 283.527 30.093C283.773 30.3618 284.067 30.573 284.409 30.7266C284.75 30.8802 285.132 30.957 285.555 30.957C285.977 30.957 286.361 30.8802 286.707 30.7266C287.053 30.573 287.348 30.3618 287.594 30.093C287.84 29.8242 288.03 29.5055 288.164 29.1368C288.299 28.7682 288.366 28.365 288.366 27.9272C288.366 27.5202 288.299 27.14 288.164 26.7867C288.03 26.4334 287.84 26.1243 287.594 25.8593C287.348 25.5944 287.053 25.387 286.707 25.2372C286.361 25.0875 285.977 25.0126 285.555 25.0126C285.132 25.0126 284.75 25.0875 284.409 25.2372C284.067 25.387 283.773 25.5944 283.527 25.8593C283.282 26.1243 283.091 26.4334 282.957 26.7867C282.823 27.14 282.755 27.5202 282.755 27.9272ZM296.192 23.9067H297.782L299.314 29.782H299.337L301.169 23.9067H302.597L304.394 29.782H304.417L306.019 23.9067H307.493L305.12 32.063H303.738L301.848 25.8536H301.825L299.936 32.063H298.6L296.192 23.9067ZM309.177 28.0194C309.177 27.3666 309.285 26.7733 309.5 26.2395C309.715 25.7057 310.012 25.2507 310.392 24.8744C310.773 24.498 311.226 24.2081 311.752 24.0046C312.278 23.801 312.856 23.6993 313.486 23.6993C314.123 23.6916 314.707 23.7857 315.237 23.9815C315.767 24.1774 316.224 24.4635 316.608 24.8398C316.992 25.2161 317.291 25.6692 317.506 26.1992C317.721 26.7291 317.829 27.3205 317.829 27.9733C317.829 28.6107 317.721 29.1906 317.506 29.7128C317.291 30.2351 316.992 30.6844 316.608 31.0607C316.224 31.437 315.767 31.7308 315.237 31.942C314.707 32.1532 314.123 32.2627 313.486 32.2703C312.856 32.2703 312.278 32.1686 311.752 31.965C311.226 31.7615 310.773 31.4735 310.392 31.101C310.012 30.7285 309.715 30.2812 309.5 29.7589C309.285 29.2367 309.177 28.6568 309.177 28.0194ZM310.698 27.9272C310.698 28.365 310.765 28.7682 310.899 29.1368C311.034 29.5055 311.224 29.8242 311.47 30.093C311.715 30.3618 312.009 30.573 312.351 30.7266C312.693 30.8802 313.075 30.957 313.497 30.957C313.92 30.957 314.304 30.8802 314.649 30.7266C314.995 30.573 315.29 30.3618 315.536 30.093C315.782 29.8242 315.972 29.5055 316.107 29.1368C316.241 28.7682 316.308 28.365 316.308 27.9272C316.308 27.5202 316.241 27.14 316.107 26.7867C315.972 26.4334 315.782 26.1243 315.536 25.8593C315.29 25.5944 314.995 25.387 314.649 25.2372C314.304 25.0875 313.92 25.0126 313.497 25.0126C313.075 25.0126 312.693 25.0875 312.351 25.2372C312.009 25.387 311.715 25.5944 311.47 25.8593C311.224 26.1243 311.034 26.4334 310.899 26.7867C310.765 27.14 310.698 27.5202 310.698 27.9272ZM320.423 23.9067H323.257C323.648 23.9067 324.027 23.9431 324.391 24.0161C324.756 24.0891 325.081 24.2139 325.365 24.3905C325.649 24.5671 325.876 24.8052 326.045 25.1048C326.214 25.4043 326.298 25.7844 326.298 26.2453C326.298 26.8366 326.135 27.332 325.808 27.7314C325.482 28.1307 325.015 28.3727 324.409 28.4571L326.575 32.063H324.823L322.934 28.6069H321.874V32.063H320.423V23.9067ZM323.003 27.3627C323.211 27.3627 323.418 27.3531 323.625 27.3339C323.833 27.3147 324.023 27.2686 324.196 27.1957C324.368 27.1227 324.509 27.0114 324.616 26.8616C324.724 26.7118 324.777 26.5025 324.777 26.2337C324.777 25.9957 324.727 25.8036 324.628 25.6577C324.528 25.5118 324.397 25.4024 324.236 25.3294C324.075 25.2564 323.896 25.2084 323.7 25.1854C323.504 25.1624 323.314 25.1508 323.13 25.1508H321.874V27.3627H323.003ZM328.892 23.9067H330.344V27.3627H330.413L333.788 23.9067H335.747L331.933 27.6738L336 32.063H333.961L330.424 28.0539H330.344V32.063H328.892V23.9067Z" fill="#004F6D"/>
<path fill-rule="evenodd" clip-rule="evenodd" d="M185.857 23.8909H189.037C189.344 23.8909 189.647 23.9273 189.947 24.0003C190.246 24.0733 190.513 24.1923 190.747 24.3574C190.982 24.5226 191.172 24.7357 191.318 24.9968C191.463 25.2579 191.536 25.5728 191.536 25.9415C191.536 26.4023 191.406 26.7824 191.145 27.082C190.884 27.3815 190.542 27.5965 190.119 27.7271V27.7501C190.373 27.7809 190.609 27.8519 190.828 27.9633C191.047 28.0746 191.233 28.2167 191.387 28.3895C191.54 28.5623 191.661 28.762 191.75 28.9886C191.838 29.2151 191.882 29.459 191.882 29.7201C191.882 30.1656 191.794 30.5361 191.617 30.8318C191.44 31.1275 191.208 31.3656 190.92 31.5461C190.632 31.7265 190.302 31.8552 189.929 31.932C189.557 32.0088 189.179 32.0472 188.795 32.0472H185.857V23.8909ZM187.308 27.2087H188.633C189.117 27.2087 189.48 27.1146 189.722 26.9264C189.964 26.7383 190.085 26.4906 190.085 26.1834C190.085 25.8301 189.96 25.5671 189.71 25.3943C189.461 25.2215 189.06 25.1351 188.507 25.1351H187.308V27.2087ZM187.308 30.803H188.645C188.829 30.803 189.027 30.7915 189.238 30.7684C189.449 30.7454 189.643 30.6916 189.82 30.6072C189.997 30.5227 190.142 30.4017 190.258 30.2443C190.373 30.0868 190.43 29.8737 190.43 29.6049C190.43 29.1748 190.29 28.8753 190.01 28.7063C189.73 28.5374 189.294 28.4529 188.702 28.4529H187.308V30.803ZM194.534 23.8909H199.937V25.2042H195.985V27.2087H199.729V28.522H195.985V30.7339H200.144V32.0472H194.534V23.8909ZM204.454 25.2042H201.955V23.8909H208.406V25.2042H205.906V32.0472H204.454V25.2042ZM212.279 25.2042H209.779V23.8909H216.23V25.2042H213.73V32.0472H212.279V25.2042ZM218.432 23.8909H223.835V25.2042H219.884V27.2087H223.628V28.522H219.884V30.7339H224.043V32.0472H218.432V23.8909ZM226.683 23.8909H229.517C229.908 23.8909 230.287 23.9273 230.651 24.0003C231.016 24.0733 231.341 24.1981 231.625 24.3747C231.909 24.5514 232.136 24.7894 232.305 25.089C232.474 25.3885 232.558 25.7687 232.558 26.2295C232.558 26.8208 232.395 27.3162 232.068 27.7156C231.742 28.115 231.275 28.3569 230.669 28.4414L232.834 32.0472H231.083L229.194 28.5911H228.134V32.0472H226.683V23.8909ZM229.263 27.3469C229.471 27.3469 229.678 27.3373 229.885 27.3181C230.093 27.2989 230.283 27.2529 230.456 27.1799C230.628 27.1069 230.769 26.9956 230.876 26.8458C230.984 26.696 231.037 26.4868 231.037 26.218C231.037 25.9799 230.987 25.7879 230.888 25.6419C230.788 25.496 230.657 25.3866 230.496 25.3136C230.335 25.2407 230.156 25.1927 229.96 25.1696C229.764 25.1466 229.574 25.1351 229.39 25.1351H228.134V27.3469H229.263Z" fill="#F3603C"/>
</svg>
