<svg xmlns="http://www.w3.org/2000/svg" width="37" height="36" viewBox="0 0 37 36" fill="none">
<g clip-path="url(#clip0)">
<path d="M32.1977 10.6323H26.8195C26.9656 9.78738 27.4856 9.31614 28.5418 8.78001L29.533 8.27622C31.3041 7.36652 32.2463 6.34277 32.2463 4.66912C32.2463 3.61303 31.8401 2.78432 31.0278 2.18315C30.2317 1.58198 29.2568 1.28955 28.1357 1.28955C27.2419 1.28955 26.4296 1.51687 25.6821 1.98811C24.951 2.44317 24.3985 3.02803 24.0574 3.75914L25.6172 5.31923C26.2184 4.1005 27.0958 3.49933 28.2495 3.49933C29.2243 3.49933 29.8255 4.00312 29.8255 4.70168C29.8255 5.28668 29.533 5.77408 28.412 6.34277L27.7782 6.65151C26.397 7.35007 25.4384 8.14629 24.8859 9.05627C24.3336 9.94987 24.0574 11.1035 24.0574 12.4847V12.8583H32.1977V10.6323Z" fill="white"/>
<path d="M31.4786 15.4291H22.573L18.1201 23.1416H27.0258L31.4786 30.8541L35.9315 23.1416L31.4786 15.4291Z" fill="white"/>
<path d="M18.8875 28.2833C13.2172 28.2833 8.60418 23.6702 8.60418 18C8.60418 12.3298 13.2172 7.71666 18.8875 7.71666L22.4081 0.349385C21.2694 0.123541 20.0925 0.00415039 18.8875 0.00415039C8.94864 0.00415039 0.891602 8.06119 0.891602 18C0.891602 27.9388 8.94864 35.9959 18.8875 35.9959C22.8501 35.9959 26.5128 34.7141 29.4857 32.5439L25.5872 25.7915C23.7861 27.3425 21.4453 28.2833 18.8875 28.2833Z" fill="white"/>
</g>
<defs>
<clipPath id="clip0">
<rect width="36" height="36" fill="white" transform="translate(0.891602)"/>
</clipPath>
</defs>
</svg>
