<svg xmlns="http://www.w3.org/2000/svg" width="286" height="206" viewBox="0 0 286 206" fill="none">
<mask id="path-1-inside-1" fill="white">
<path fill-rule="evenodd" clip-rule="evenodd" d="M4 0C1.79086 0 0 1.79086 0 4V18C0 20.2091 1.79086 22 4 22H10L14 26L18 22H24C26.2091 22 28 20.2091 28 18V4C28 1.79086 26.2091 0 24 0H4Z"/>
</mask>
<path fill-rule="evenodd" clip-rule="evenodd" d="M4 0C1.79086 0 0 1.79086 0 4V18C0 20.2091 1.79086 22 4 22H10L14 26L18 22H24C26.2091 22 28 20.2091 28 18V4C28 1.79086 26.2091 0 24 0H4Z" fill="#FFC400"/>
<path d="M10 22L11.4142 20.5858L10.8284 20H10V22ZM14 26L12.5858 27.4142L14 28.8284L15.4142 27.4142L14 26ZM18 22V20H17.1716L16.5858 20.5858L18 22ZM2 4C2 2.89543 2.89543 2 4 2V-2C0.686292 -2 -2 0.686292 -2 4H2ZM2 18V4H-2V18H2ZM4 20C2.89543 20 2 19.1046 2 18H-2C-2 21.3137 0.686291 24 4 24V20ZM10 20H4V24H10V20ZM8.58579 23.4142L12.5858 27.4142L15.4142 24.5858L11.4142 20.5858L8.58579 23.4142ZM15.4142 27.4142L19.4142 23.4142L16.5858 20.5858L12.5858 24.5858L15.4142 27.4142ZM24 20H18V24H24V20ZM26 18C26 19.1046 25.1046 20 24 20V24C27.3137 24 30 21.3137 30 18H26ZM26 4V18H30V4H26ZM24 2C25.1046 2 26 2.89543 26 4H30C30 0.686292 27.3137 -2 24 -2V2ZM4 2H24V-2H4V2Z" fill="white" mask="url(#path-1-inside-1)"/>
<rect x="8" y="8" width="12" height="2" rx="1" fill="white"/>
<rect x="8" y="12" width="12" height="2" rx="1" fill="white"/>
<path fill-rule="evenodd" clip-rule="evenodd" d="M264.071 184.071L285.284 191.142L275.686 195.828L271.142 205.284L264.071 184.071Z" fill="#FF9900"/>
<path d="M70 169C84.3295 180.333 121.141 174.072 169.59 169C201.5 165.66 226.908 170 257 180" stroke="#FF9900" stroke-width="2" stroke-linecap="round"/>
<path fill-rule="evenodd" clip-rule="evenodd" d="M230.904 32.8703L237.975 11.6571L242.66 21.2553L252.117 25.7993L230.904 32.8703Z" fill="#9D28B2"/>
</svg>
