<svg xmlns="http://www.w3.org/2000/svg" width="48" height="48" viewBox="0 0 48 48" fill="none">
<path fill-rule="evenodd" clip-rule="evenodd" d="M24.0001 46.8309C36.6092 46.8309 46.831 36.6091 46.831 24C46.831 11.3908 36.6092 1.16911 24.0001 1.16911C11.3909 1.16911 1.16919 11.3908 1.16919 24C1.16919 36.6091 11.3909 46.8309 24.0001 46.8309Z" stroke="#13AA52" stroke-width="1.5" stroke-linecap="round" stroke-linejoin="round"/>
<path fill-rule="evenodd" clip-rule="evenodd" d="M24.0002 25.5221C25.6814 25.5221 27.0443 24.1592 27.0443 22.4779C27.0443 20.7967 25.6814 19.4338 24.0002 19.4338C22.319 19.4338 20.9561 20.7967 20.9561 22.4779C20.9561 24.1592 22.319 25.5221 24.0002 25.5221Z" stroke="#13AA52" stroke-width="1.5" stroke-linecap="round" stroke-linejoin="round"/>
<path fill-rule="evenodd" clip-rule="evenodd" d="M33.1324 34.6544C33.1324 36.3356 31.7695 37.6985 30.0883 37.6985H17.9118C16.2306 37.6985 14.8677 36.3356 14.8677 34.6544C14.8677 32.9732 16.2306 31.6103 17.9118 31.6103H30.0883C31.7695 31.6103 33.1324 32.9732 33.1324 34.6544Z" stroke="#116149" stroke-width="1.5" stroke-linecap="round" stroke-linejoin="round"/>
<path d="M18.273 6.74594L19.3141 9.60538" stroke="#116149" stroke-width="1.5" stroke-linecap="round" stroke-linejoin="round"/>
<path d="M9.5 14.1066L12.1362 15.6287" stroke="#116149" stroke-width="1.5" stroke-linecap="round" stroke-linejoin="round"/>
<path d="M7.51099 25.3861L10.5105 24.8564" stroke="#116149" stroke-width="1.5" stroke-linecap="round" stroke-linejoin="round"/>
<path d="M29.7271 6.74594L28.6861 9.60538" stroke="#116149" stroke-width="1.5" stroke-linecap="round" stroke-linejoin="round"/>
<path d="M38.5002 14.1066L26.6362 20.9559" stroke="#13AA52" stroke-width="1.5" stroke-linecap="round" stroke-linejoin="round"/>
<path d="M40.489 25.3861L37.4895 24.8564" stroke="#116149" stroke-width="1.5" stroke-linecap="round" stroke-linejoin="round"/>
</svg>
