<svg xmlns="http://www.w3.org/2000/svg" width="65" height="65" viewBox="0 0 65 65" fill="none">
<path d="M61.9898 32.4873L64.8448 25.0514C65.1621 24.2266 64.9083 23.3003 64.2231 22.742L58.0434 17.7297L56.7872 9.86242C56.6476 8.99955 55.9624 8.31433 55.0995 8.17475L47.2322 6.91852L42.2326 0.751552C41.6743 0.0663333 40.7353 -0.174762 39.9359 0.129779L32.4873 2.99755L25.0514 0.142469C24.2266 -0.174762 23.3003 0.0790225 22.7547 0.764241L17.7424 6.9439L9.87511 8.20013C9.01224 8.32702 8.32702 9.01224 8.18744 9.87511L6.93121 17.7424L0.751552 22.7547C0.0663333 23.313 -0.174762 24.2393 0.129779 25.0514L2.98486 32.4873L0.142469 39.9232C-0.174762 40.748 0.0790225 41.6743 0.764241 42.22L6.9439 47.2322L8.20013 55.0995C8.33971 55.9624 9.01224 56.6476 9.8878 56.7872L17.7551 58.0434L22.7674 64.2231C23.3257 64.9083 24.252 65.1621 25.0768 64.8448L32.5127 62.0025L39.9486 64.8575C40.1897 64.9464 40.4308 64.9971 40.6719 64.9971C41.2683 64.9971 41.852 64.7306 42.2453 64.2358L47.2576 58.0561L55.1249 56.7999C55.9878 56.6603 56.673 55.9751 56.8126 55.1122L58.0688 47.2449L64.2485 42.2326C64.9337 41.6743 65.1748 40.748 64.8702 39.9359L61.9898 32.4873Z" fill="#EE704F"/>
<path d="M18.3164 28L18.9043 18.9834H21.0508L23.1152 25.5596L25.1797 18.9834L27.3262 18.9834L27.9072 28H26.2051L25.8223 21.5264L23.7783 28H22.4385L20.4287 21.7793L20.0459 28H18.3164ZM29.2607 24.8008C29.2607 25.8216 29.5798 26.642 30.2178 27.2617C30.8558 27.877 31.6829 28.1846 32.6992 28.1846C33.2643 28.1846 33.7702 28.0889 34.2168 27.8975C34.668 27.7015 35.028 27.4418 35.2969 27.1182C35.5703 26.7946 35.7777 26.4369 35.9189 26.045C36.0602 25.6485 36.1309 25.2338 36.1309 24.8008C36.1309 23.78 35.8073 22.9574 35.1602 22.333C34.5176 21.7087 33.6973 21.3965 32.6992 21.3965C31.6829 21.3965 30.8558 21.7064 30.2178 22.3262C29.5798 22.946 29.2607 23.7709 29.2607 24.8008ZM31.0107 24.8008C31.0107 24.459 31.0677 24.1491 31.1816 23.8711C31.2956 23.5886 31.4824 23.3539 31.7422 23.167C32.0065 22.9802 32.3255 22.8867 32.6992 22.8867C33.2415 22.8867 33.6562 23.0736 33.9434 23.4473C34.235 23.8164 34.3809 24.2676 34.3809 24.8008C34.3809 25.0469 34.3444 25.2816 34.2715 25.5049C34.2031 25.7237 34.1006 25.9242 33.9639 26.1065C33.8317 26.2842 33.6562 26.4278 33.4375 26.5371C33.2188 26.642 32.9727 26.6944 32.6992 26.6944C32.3255 26.6944 32.0065 26.6009 31.7422 26.4141C31.4824 26.2272 31.2956 25.9948 31.1816 25.7168C31.0677 25.4388 31.0107 25.1335 31.0107 24.8008ZM37.0127 27.3096C37.2633 27.542 37.6689 27.7471 38.2295 27.9248C38.7946 28.098 39.3506 28.1846 39.8975 28.1846C40.7816 28.1846 41.4743 27.9955 41.9756 27.6172C42.4814 27.239 42.7344 26.7445 42.7344 26.1338C42.7344 25.7784 42.6615 25.4753 42.5156 25.2246C42.3743 24.9694 42.1898 24.7757 41.9619 24.6436C41.734 24.5114 41.4834 24.402 41.21 24.3155C40.9365 24.2289 40.6608 24.1628 40.3828 24.1172C40.1094 24.0671 39.8587 24.0147 39.6309 23.96C39.403 23.9053 39.2161 23.8256 39.0703 23.7207C38.929 23.6159 38.8584 23.4838 38.8584 23.3242C38.8584 23.142 38.9427 22.9984 39.1113 22.8936C39.2845 22.7888 39.542 22.7364 39.8838 22.7364C40.5492 22.7364 41.1986 22.9392 41.832 23.3448L42.5088 22.169C42.085 21.9138 41.6702 21.7224 41.2646 21.5948C40.859 21.4626 40.3988 21.3965 39.8838 21.3965C39.0589 21.3965 38.4095 21.5948 37.9355 21.9912C37.4616 22.3877 37.2246 22.8708 37.2246 23.4405C37.2246 23.7412 37.2793 24.0056 37.3887 24.2334C37.498 24.4567 37.6439 24.6322 37.8262 24.7598C38.0085 24.8874 38.2135 24.9991 38.4414 25.0948C38.6738 25.1905 38.9085 25.2611 39.1455 25.3067C39.387 25.3522 39.6217 25.4024 39.8496 25.4571C40.082 25.5117 40.2894 25.5642 40.4717 25.6143C40.654 25.6644 40.7998 25.7396 40.9092 25.8399C41.0186 25.9401 41.0732 26.0609 41.0732 26.2022C41.0732 26.3981 40.9798 26.5554 40.793 26.6739C40.6107 26.7878 40.3395 26.8448 39.9795 26.8448C39.6058 26.8448 39.1911 26.7627 38.7354 26.5987C38.2796 26.43 37.9401 26.2546 37.7168 26.0723L37.0127 27.3096ZM43.5137 22.9483V21.5811H44.4775V19.5782H46.1797V21.5811H47.8408L47.7109 22.9483H46.1797V25.3614C46.1797 25.6804 46.2207 25.9447 46.3027 26.1543C46.3848 26.364 46.4896 26.5144 46.6172 26.6055C46.7448 26.6966 46.902 26.7513 47.0889 26.7696C47.1527 26.7741 47.2142 26.7741 47.2734 26.7696C47.3919 26.7696 47.5081 26.7604 47.6221 26.7422C47.7907 26.7103 47.9798 26.6579 48.1895 26.585L48.1689 27.9522C47.7907 28.0935 47.4238 28.1732 47.0684 28.1914C47.0091 28.196 46.9521 28.196 46.8975 28.1914C46.6058 28.1914 46.3278 28.1459 46.0635 28.0547C45.749 27.9453 45.4733 27.7767 45.2363 27.5489C45.0039 27.321 44.8193 27.0088 44.6826 26.6123C44.5459 26.2113 44.4775 25.7442 44.4775 25.211V22.9483H43.5137ZM9.2998 43L9.2998 33.9903H12.2734C13.5449 33.9903 14.502 34.2705 15.1445 34.8311C15.7871 35.3871 16.1084 36.1618 16.1084 37.1553C16.1084 38.1488 15.7871 38.9235 15.1445 39.4795C14.502 40.0355 13.5449 40.3135 12.2734 40.3135H11.0225L11.0225 43H9.2998ZM11.0225 38.6934H12.2734C12.9434 38.6934 13.4561 38.5635 13.8115 38.3037C14.1715 38.044 14.3516 37.6543 14.3516 37.1348C14.3516 36.597 14.167 36.1937 13.7979 35.9248C13.4333 35.656 12.9251 35.5215 12.2734 35.5215H11.0225V38.6934ZM17.3389 39.8008C17.3389 40.8216 17.6579 41.642 18.2959 42.2617C18.9339 42.877 19.7611 43.1846 20.7773 43.1846C21.3424 43.1846 21.8483 43.0889 22.2949 42.8975C22.7461 42.7015 23.1061 42.4418 23.375 42.1182C23.6484 41.7946 23.8558 41.4369 23.9971 41.045C24.1383 40.6485 24.209 40.2338 24.209 39.8008C24.209 38.78 23.8854 37.9574 23.2383 37.333C22.5957 36.7087 21.7754 36.3965 20.7773 36.3965C19.7611 36.3965 18.9339 36.7064 18.2959 37.3262C17.6579 37.946 17.3389 38.7709 17.3389 39.8008ZM19.0889 39.8008C19.0889 39.459 19.1458 39.1491 19.2598 38.8711C19.3737 38.5886 19.5605 38.3539 19.8203 38.167C20.0846 37.9802 20.4036 37.8867 20.7773 37.8867C21.3197 37.8867 21.7344 38.0736 22.0215 38.4473C22.3132 38.8164 22.459 39.2676 22.459 39.8008C22.459 40.0469 22.4225 40.2816 22.3496 40.5049C22.2812 40.7237 22.1787 40.9242 22.042 41.1065C21.9098 41.2842 21.7344 41.4278 21.5156 41.5371C21.2969 41.642 21.0508 41.6944 20.7773 41.6944C20.4036 41.6944 20.0846 41.6009 19.8203 41.4141C19.5605 41.2272 19.3737 40.9948 19.2598 40.7168C19.1458 40.4388 19.0889 40.1335 19.0889 39.8008ZM25.4258 46.5L25.4258 36.5811H26.6973L27.0186 37.5039C27.5016 36.7657 28.2217 36.3965 29.1787 36.3965C30.0856 36.3965 30.8079 36.7132 31.3457 37.3467C31.8835 37.9802 32.1523 38.7982 32.1523 39.8008C32.1523 40.8034 31.8835 41.6192 31.3457 42.2481C30.8079 42.8724 30.0742 43.1846 29.1445 43.1846C28.2467 43.1846 27.5632 42.8701 27.0937 42.2412V46.5H25.4258ZM27.5518 38.4336C27.2464 38.78 27.0937 39.2334 27.0937 39.794C27.0937 40.3545 27.2464 40.808 27.5518 41.1543C27.8571 41.4961 28.2627 41.667 28.7686 41.667C29.2744 41.667 29.68 41.4938 29.9854 41.1475C30.2952 40.8011 30.4502 40.35 30.4502 39.794C30.4502 39.238 30.2952 38.7868 29.9854 38.4405C29.6755 38.0895 29.2699 37.9141 28.7686 37.9141C28.2627 37.9141 27.8571 38.0873 27.5518 38.4336ZM33.4443 40.5254L33.4443 36.5811H35.208L35.1943 40.0469C35.1943 40.489 35.2673 40.8216 35.4131 41.045C35.5635 41.2683 35.8164 41.3799 36.1719 41.3799C36.4772 41.3799 36.7507 41.2956 36.9922 41.127C37.2383 40.9538 37.4958 40.6918 37.7646 40.3409L37.7646 36.5811H39.5146L39.5146 43H38.1475L37.8535 42.1114C37.252 42.8223 36.5592 43.1778 35.7754 43.1778C35.4427 43.1778 35.1419 43.1322 34.873 43.041C34.6087 42.9499 34.3649 42.8063 34.1416 42.6104C33.9229 42.4144 33.752 42.141 33.6289 41.7901C33.5059 41.4346 33.4443 41.0131 33.4443 40.5254ZM41.1553 41.1475C41.1553 41.6214 41.2282 42.0111 41.374 42.3164C41.5107 42.6263 41.7113 42.8428 41.9756 42.9659C42.2035 43.0752 42.4632 43.1299 42.7549 43.1299C42.7959 43.1299 42.8392 43.1276 42.8848 43.1231C43.2266 43.1048 43.6094 43.0205 44.0332 42.8701L43.7666 41.544C43.6299 41.5759 43.5114 41.5918 43.4111 41.5918C43.2744 41.5918 43.165 41.5645 43.083 41.5098C42.9372 41.4187 42.862 41.2318 42.8574 40.9492V33.2451H41.1553V41.1475ZM45.5098 42.2549C44.9674 41.6306 44.6963 40.8125 44.6963 39.8008C44.6963 38.7891 44.9674 37.9688 45.5098 37.3399C46.0566 36.711 46.7767 36.3965 47.6699 36.3965C48.6042 36.3965 49.3083 36.7748 49.7822 37.5313V36.5811H51.416V43H50.1172L49.8301 42.0567C49.3926 42.8086 48.6839 43.1846 47.7041 43.1846C46.7881 43.1846 46.0566 42.8747 45.5098 42.2549ZM46.8633 38.4336C46.5625 38.78 46.4121 39.2334 46.4121 39.794C46.4121 40.3545 46.5625 40.808 46.8633 41.1543C47.1641 41.4961 47.5719 41.667 48.0869 41.667C48.5973 41.667 49.0029 41.4961 49.3037 41.1543C49.6045 40.8125 49.7549 40.3591 49.7549 39.794C49.7549 39.2334 49.6045 38.78 49.3037 38.4336C49.0075 38.0873 48.6019 37.9141 48.0869 37.9141C47.5719 37.9141 47.1641 38.0873 46.8633 38.4336ZM53.2207 43V36.5811H54.5059L54.7998 37.4561C55.1644 36.7497 55.6725 36.3965 56.3242 36.3965C56.7572 36.3965 57.1855 36.5218 57.6094 36.7725L56.8506 38.3311C56.5726 38.1761 56.3128 38.0987 56.0713 38.0987C55.7295 38.0987 55.4561 38.2696 55.251 38.6114C55.0459 38.9486 54.9251 39.3382 54.8887 39.7803V43H53.2207Z" fill="white"/>
</svg>
