<svg width="136" height="31" viewBox="0 0 136 31" fill="none" xmlns="http://www.w3.org/2000/svg">
<path d="M43.6394 2.31862C48.0939 2.31862 50.6736 4.89202 50.6736 8.35549C50.6736 10.6743 49.2091 12.5786 47.3617 13.1825C49.4006 13.6601 51.3743 15.5328 51.3743 18.4555C51.3743 22.1041 48.6284 24.787 44.4348 24.8396H35.2017V2.31862H43.6394ZM43.2564 15.4697H40.1044V20.7427H43.2564C45.1986 20.7427 46.3748 19.7264 46.3748 18.1062C46.3748 16.566 45.2533 15.4907 43.3153 15.4697H43.2564ZM42.7767 6.48067H40.1044V11.3413H42.8398C44.5905 11.3413 45.7372 10.4197 45.7372 8.89416C45.7372 7.44859 44.7693 6.49961 42.8335 6.48067H42.7767ZM55.4585 7.08246C57.0472 7.08246 58.3202 5.81155 58.3202 4.25446C58.3202 2.69737 57.0472 1.42645 55.4585 1.42645C53.9351 1.42645 52.6642 2.69737 52.6642 4.25446C52.6642 5.81155 53.9351 7.08246 55.4585 7.08246ZM57.9204 24.8396V9.0667H53.0598V24.8396H57.9204ZM65.2219 24.8396V17.9358C65.2219 14.7858 66.9662 13.6412 68.9 13.6412C69.3755 13.6412 69.8826 13.6727 70.4213 13.799V9.02672C70.1057 8.93203 69.6301 8.8668 69.1525 8.8668C67.8858 8.8668 65.8868 9.37601 65.062 11.1603V9.02672H60.4012V24.8396H65.2198H65.2219ZM87.3599 1.82414V22.2136L87.362 22.3945V22.5124L87.3662 22.6849L87.3704 22.8532L87.3746 22.9584L87.3809 23.1689L87.3893 23.3709L87.3977 23.5602L87.4104 23.7812L87.4251 24.0252L87.444 24.2756L87.4588 24.4861L87.4861 24.7891H82.8569L82.8464 24.7133L82.8254 24.5597L82.8106 24.4503L82.798 24.3283L82.7833 24.1936L82.777 24.1241L82.7643 23.9769L82.758 23.9011L82.7496 23.7854L82.7454 23.7054L82.7412 23.6255L82.7349 23.5055L82.7328 23.3856V23.2656C82.0026 24.3451 80.4182 25.1384 78.516 25.1384C74.0783 25.1384 70.7201 21.7128 70.7201 16.8584C70.7201 12.1661 73.889 8.64376 78.3582 8.64376C80.4329 8.64376 81.6049 9.24555 82.2088 9.79685L82.253 9.83893C82.2993 9.88101 82.3393 9.9252 82.3793 9.96518L82.4151 10.0073L82.4487 10.0493L82.4824 10.0893L82.514 10.1293L82.5413 10.1672L82.5687 10.2051L82.5939 10.2429L82.6044 10.2619V1.82414H87.3599ZM79.1157 12.9889C77.2472 12.9889 75.566 14.2577 75.566 16.89C75.566 19.4908 77.2472 20.8248 79.1157 20.8248C80.9863 20.8248 82.6655 19.4908 82.6655 16.89C82.6655 14.2598 80.9863 12.9889 79.1157 12.9889ZM96.5467 8.57011C101.435 8.57011 104.45 11.5917 104.45 16.6817C104.45 17.3508 104.387 18.0831 104.355 18.1778H93.3736C93.4683 19.96 95.0885 21.233 96.9612 21.233C98.7077 21.233 99.6903 20.404 100.134 19.1646L104.166 20.3093C103.404 23.0447 100.896 25.3361 96.896 25.3361C92.5487 25.3361 88.6771 22.2178 88.6771 16.9047C88.6771 11.8147 92.4541 8.57011 96.5467 8.57011ZM96.6098 12.3871C94.5793 12.3871 93.5651 13.881 93.4683 15.0594H99.785C99.7219 13.8516 98.897 12.3871 96.6119 12.3871H96.6098Z" fill="#212121"/>
<path d="M111.594 30.8912L121.317 9.06671H116.2L112.705 17.5044L108.86 9.06671H103.459L110.1 22.7081L106.51 30.8912H111.594ZM128.097 8.57013C132.985 8.57013 136 11.5917 136 16.6817C136 17.3508 135.937 18.0831 135.905 18.1778H124.922C125.018 19.96 126.636 21.233 128.509 21.233C130.256 21.233 131.238 20.404 131.682 19.1646L135.714 20.3093C134.952 23.0447 132.444 25.3362 128.446 25.3362C124.097 25.3362 120.225 22.2178 120.225 16.9048C120.225 11.8148 124.002 8.57013 128.095 8.57013H128.097ZM128.16 12.3871C126.129 12.3871 125.113 13.8811 125.018 15.0594H131.333C131.27 13.8516 130.445 12.3871 128.16 12.3871Z" fill="#212121"/>
<path fill-rule="evenodd" clip-rule="evenodd" d="M17.6909 14.7417L17.6867 14.7396L17.5015 14.6659L11.1932 12.1725C11.0185 12.0967 10.8292 12.0546 10.6272 12.0546C9.85704 12.0546 9.2342 12.6754 9.2342 13.4392C9.2342 13.7548 9.34151 14.0473 9.52037 14.2808L9.53089 14.2935C9.56245 14.3334 9.59612 14.3713 9.63399 14.4092L14.158 19.577C14.7198 20.2083 15.5425 20.6081 16.4599 20.6081C18.1601 20.6081 19.5383 19.2383 19.5383 17.5486C19.5383 16.2924 18.7787 15.213 17.6909 14.7417ZM15.5762 4.40807C17.0049 3.96199 18.5431 4.69634 19.0123 6.04933C19.4836 7.3981 18.7072 8.85419 17.2784 9.30027C15.8518 9.74425 14.3116 9.0099 13.8423 7.65902C13.3731 6.30814 14.1495 4.85205 15.5762 4.40807ZM25.5015 6.02197C25.2932 5.72739 24.9923 5.54222 24.6641 5.45805V5.45385L23.431 5.13191C23.4142 5.07299 23.4016 5.01407 23.3826 4.95726C22.1054 1.17396 17.9202 -0.881814 14.0359 0.363856C12.0243 1.00773 10.4946 2.41542 9.65924 4.14505L7.43303 7.68427L2.15156 5.59903L2.14946 5.60324C1.817 5.46647 1.43825 5.43701 1.06791 5.55485C0.251494 5.81787 -0.190382 6.67427 0.0789518 7.46964C0.116827 7.58327 0.171535 7.69058 0.23466 7.78948L0.226244 7.8L5.73707 15.0973L5.74759 15.1183L5.76442 15.1372L9.70764 20.667C11.4289 23.7433 15.1574 25.5971 18.7535 24.444C22.6357 23.1983 24.7483 19.1225 23.4689 15.3392C23.0712 14.1609 22.3916 13.153 21.5268 12.3576C22.6167 11.3161 23.3574 9.9715 23.633 8.51331L24.824 8.17033V8.1556C24.9292 8.11562 25.0323 8.06933 25.1291 8.002C25.794 7.55591 25.9603 6.67006 25.5015 6.02197Z" fill="#1976D2"/>
</svg>
