<svg xmlns="http://www.w3.org/2000/svg" width="223" height="25" viewBox="0 0 223 25" fill="none">
<g clip-path="url(#clip0)">
<path fill-rule="evenodd" clip-rule="evenodd" d="M202.862 2.16866C202.862 0.993961 203.826 0.0301056 205 0.0301056H220.768C221.943 0.0301056 222.907 0.993961 222.907 2.16866V9.90963C222.907 11.0843 221.943 12.0482 220.768 12.0482H219.127C217.952 12.0482 216.16 12.515 215.121 13.0873L209.398 16.265C208.374 16.8373 207.937 16.4307 208.419 15.3614L209.082 13.9157C209.564 12.8464 209.006 11.9729 207.832 11.9729H204.985C203.811 11.9729 202.847 11.009 202.847 9.83432V2.16866" fill="url(#paint0_linear)"/>
<path fill-rule="evenodd" clip-rule="evenodd" d="M202.877 22.3042C202.997 22.3042 203.103 22.2891 203.193 22.2439C203.268 22.1988 203.313 22.1235 203.313 21.9729C203.313 21.8976 203.298 21.8373 203.268 21.8072C203.238 21.762 203.193 21.7319 203.148 21.7168C203.103 21.7018 203.042 21.6867 202.982 21.6717C202.922 21.6717 202.862 21.6566 202.816 21.6566H202.44V22.3042H202.877ZM202.877 21.2048C203.208 21.2048 203.464 21.2801 203.63 21.4156C203.795 21.5512 203.886 21.762 203.886 22.018C203.886 22.2439 203.826 22.4096 203.705 22.5301C203.585 22.6506 203.434 22.7259 203.253 22.7409L203.901 23.8102H203.268L202.651 22.756H202.44V23.8102H201.868V21.2048H202.877ZM201.25 23.1777C201.341 23.3885 201.446 23.5692 201.597 23.7349C201.747 23.8855 201.928 24.0211 202.124 24.1114C202.335 24.2018 202.56 24.247 202.801 24.247C203.042 24.247 203.268 24.2018 203.479 24.1114C203.69 24.0211 203.871 23.9006 204.006 23.7349C204.157 23.5843 204.277 23.3885 204.353 23.1777C204.443 22.9668 204.473 22.7409 204.473 22.515C204.473 22.2741 204.428 22.0632 204.353 21.8524C204.262 21.6415 204.157 21.4608 204.006 21.2952C203.856 21.1445 203.675 21.009 203.464 20.9186C203.253 20.8283 203.027 20.7831 202.786 20.7831C202.545 20.7831 202.319 20.8283 202.109 20.9186C201.898 21.009 201.717 21.1295 201.566 21.2952C201.416 21.4458 201.295 21.6415 201.22 21.8524C201.13 22.0632 201.1 22.2891 201.1 22.515C201.115 22.756 201.16 22.9668 201.25 23.1777ZM200.572 21.5662C200.693 21.265 200.874 21.009 201.085 20.7982C201.295 20.5723 201.551 20.4066 201.853 20.2861C202.139 20.1656 202.455 20.0903 202.801 20.0903C203.133 20.0903 203.449 20.1506 203.75 20.2711C204.036 20.3915 204.307 20.5723 204.518 20.7831C204.744 21.009 204.91 21.265 205.03 21.5512C205.151 21.8373 205.226 22.1536 205.226 22.5C205.226 22.8464 205.166 23.1476 205.045 23.4488C204.925 23.75 204.744 23.9909 204.533 24.2168C204.307 24.4277 204.051 24.6084 203.765 24.7289C203.479 24.8494 203.163 24.9096 202.816 24.9096C202.485 24.9096 202.169 24.8494 201.868 24.7289C201.566 24.6084 201.31 24.4427 201.1 24.2168C200.874 24.006 200.708 23.75 200.572 23.4488C200.452 23.1626 200.377 22.8464 200.377 22.5C200.392 22.1837 200.452 21.8674 200.572 21.5662Z" fill="white"/>
<path fill-rule="evenodd" clip-rule="evenodd" d="M194.895 15.2711H191.416C191.16 15.2711 191.069 15.1054 191.069 14.9247L191.099 14.4729C191.16 13.5542 192.033 12.8765 193.178 12.8765C194.292 12.8765 195.181 13.5392 195.256 14.4428L195.286 14.8946C195.286 15.1054 195.211 15.2711 194.895 15.2711ZM193.042 9.23193C189.277 9.23193 186.596 11.9428 186.596 15.0452V19.1566C186.596 22.6054 189.157 25 193.042 25C195.151 25 196.672 24.2621 197.756 23.2078C198.268 22.6958 198.675 22.0934 199.036 21.491C199.232 21.1747 199.127 20.8133 198.946 20.7229L195.783 19.1265C195.587 19.0361 195.392 19.0964 195.301 19.3825C194.864 20.497 194.127 21.009 193.042 21.009C191.868 21.009 191.024 20.2108 191.024 19.1868V18.4789C191.024 18.253 191.114 18.1325 191.401 18.1325H199.096C199.292 18.1325 199.413 18.0422 199.413 17.8163V15.0452C199.428 11.9729 196.777 9.23193 193.042 9.23193Z" fill="white"/>
<path fill-rule="evenodd" clip-rule="evenodd" d="M179.262 13.1626C180.256 13.1626 180.979 13.7952 181.521 15.0753C181.612 15.3012 181.777 15.3614 182.003 15.2711L185.136 13.8705C185.332 13.7801 185.392 13.5843 185.301 13.3283C185.015 12.6657 184.699 12.0482 184.277 11.5361C183.223 10.1355 181.657 9.33734 179.232 9.33734C175.271 9.33734 172.877 11.7319 172.877 15.1807V19.0663C172.877 22.5151 175.271 24.8795 179.232 24.8795C181.461 24.8795 182.937 24.2169 183.991 23.0271C184.533 22.4247 184.955 21.6867 185.301 20.8584C185.392 20.6024 185.332 20.4367 185.136 20.3464L182.003 18.9157C181.777 18.8253 181.627 18.8855 181.521 19.1114C180.979 20.3916 180.241 21.0542 179.262 21.0542C178.088 21.0542 177.32 20.2259 177.32 19.2018V15.0151C177.304 13.991 178.073 13.1626 179.262 13.1626Z" fill="white"/>
<path fill-rule="evenodd" clip-rule="evenodd" d="M170.06 9.68369H166.265C166.039 9.68369 165.949 9.77405 165.949 9.99995V24.2018C165.949 24.4277 166.039 24.518 166.265 24.518H170.06C170.241 24.518 170.347 24.4277 170.347 24.2018V9.99995C170.347 9.77405 170.211 9.68369 170.06 9.68369Z" fill="white"/>
<path fill-rule="evenodd" clip-rule="evenodd" d="M168.133 3.41866C166.898 3.41866 165.889 4.42769 165.889 5.66263C165.889 6.89757 166.898 7.90661 168.133 7.90661C169.368 7.90661 170.377 6.89757 170.377 5.66263C170.377 4.42769 169.383 3.41866 168.133 3.41866Z" fill="white"/>
<path fill-rule="evenodd" clip-rule="evenodd" d="M163.946 9.68369H159.895C159.729 9.68369 159.609 9.77405 159.548 9.93971L157.154 16.8072C157.033 17.1536 156.837 17.9819 156.777 18.4036H156.687C156.627 17.9819 156.461 17.2289 156.31 16.8072L153.825 9.90959C153.765 9.74393 153.675 9.68369 153.509 9.68369H149.458C149.172 9.68369 149.081 9.87947 149.172 10.1355L154.88 24.3072C154.94 24.4578 155.06 24.5331 155.196 24.5331H158.163C158.328 24.5331 158.449 24.4728 158.509 24.3072L164.247 10.1355C164.337 9.87947 164.247 9.68369 163.946 9.68369Z" fill="white"/>
<path fill-rule="evenodd" clip-rule="evenodd" d="M143.027 19.006C143.027 20.0602 142.169 20.8584 141.054 20.8584C139.91 20.8584 139.112 20.0602 139.112 19.006V15.1807C139.112 14.1566 139.91 13.3886 141.054 13.3886C142.199 13.3886 143.027 14.1566 143.027 15.1807V19.006ZM147.109 4.41266H143.344C143.193 4.41266 143.027 4.50302 143.027 4.72892V9.1717C143.027 9.65362 143.118 10.5723 143.118 10.5723C142.485 10 141.431 9.68374 140.663 9.68374C137.184 9.68374 134.669 12.0181 134.669 15.497V18.7199C134.669 22.4247 136.838 24.5331 140.738 24.5331C141.627 24.5331 142.681 24.247 143.359 23.6747C143.554 23.509 143.78 23.5693 143.78 23.8253V24.3072C143.78 24.4277 143.871 24.5331 144.036 24.5331H147.124C147.32 24.5331 147.44 24.4428 147.44 24.2169V4.72892C147.425 4.51808 147.304 4.41266 147.109 4.41266Z" fill="white"/>
<path fill-rule="evenodd" clip-rule="evenodd" d="M126.371 17.6657H124.428C124.112 17.6657 123.976 17.4699 124.051 17.2892L124.714 14.6988C125.03 13.5241 125.286 12.1084 125.346 11.2801H125.482C125.542 12.1084 125.738 13.509 126.054 14.6988L126.732 17.2892C126.792 17.4699 126.657 17.6657 126.371 17.6657ZM127.139 4.63856C127.078 4.4729 126.973 4.41266 126.822 4.41266H123.976C123.78 4.41266 123.72 4.4729 123.66 4.63856L117.38 24.1115C117.289 24.3675 117.41 24.5331 117.696 24.5331H121.717C121.883 24.5331 121.943 24.4729 122.003 24.3072L122.922 21.4006C122.982 21.2349 123.042 21.2048 123.268 21.2048H127.485C127.711 21.2048 127.771 21.2349 127.831 21.4006L128.72 24.3072C128.78 24.4578 128.855 24.5331 129.036 24.5331H133.087C133.404 24.5331 133.509 24.3675 133.404 24.1115L127.139 4.63856Z" fill="white"/>
<path fill-rule="evenodd" clip-rule="evenodd" d="M105.919 15.2711H102.44C102.184 15.2711 102.093 15.1054 102.093 14.9247L102.124 14.4729C102.184 13.5542 103.057 12.8765 104.202 12.8765C105.316 12.8765 106.22 13.5392 106.28 14.4428L106.31 14.8946C106.295 15.1054 106.235 15.2711 105.919 15.2711ZM104.066 9.23193C100.301 9.23193 97.6206 11.9428 97.6206 15.0452V19.1566C97.6206 22.6054 100.166 25 104.066 25C106.175 25 107.711 24.2621 108.795 23.2078C109.307 22.6958 109.729 22.0934 110.075 21.491C110.271 21.1747 110.166 20.8133 109.985 20.7229L106.822 19.1265C106.627 19.0361 106.446 19.0964 106.34 19.3825C105.889 20.497 105.166 21.009 104.081 21.009C102.907 21.009 102.063 20.2108 102.063 19.1868V18.4789C102.063 18.253 102.154 18.1325 102.455 18.1325H110.151C110.347 18.1325 110.467 18.0422 110.467 17.8163V15.0452C110.452 11.9729 107.801 9.23193 104.066 9.23193Z" fill="white"/>
<path fill-rule="evenodd" clip-rule="evenodd" d="M95.708 9.74393C95.4821 9.7138 95.2261 9.68369 94.8797 9.68369C93.6749 9.68369 92.5153 10.256 92.0032 10.8885C91.8375 11.0391 91.5815 11.024 91.5815 10.7379V9.99995C91.5815 9.77405 91.4912 9.68369 91.2653 9.68369H88.2381C88.0424 9.68369 87.9219 9.77405 87.9219 9.99995V24.2018C87.9219 24.4277 88.0424 24.518 88.2381 24.518H92.0032C92.199 24.518 92.3195 24.4277 92.3195 24.2018V15.7379C92.3195 14.6234 93.1177 13.8253 94.2321 13.8253C94.714 13.8253 95.1207 13.8855 95.5122 13.9909C95.7984 14.0512 95.9942 13.9608 95.9942 13.6746V10.0602C95.9942 9.90959 95.8887 9.77405 95.708 9.74393Z" fill="white"/>
<path fill-rule="evenodd" clip-rule="evenodd" d="M78.7803 21.0693H77.6056C76.9279 21.0693 76.5514 20.6476 76.5514 19.759C76.5514 19.1265 77.0032 18.6747 77.6357 18.6747H80.3466C80.5423 18.6747 80.6026 19.0211 80.6026 19.1265C80.5273 20.3012 79.6387 21.0693 78.7803 21.0693ZM78.6899 9.33734C76.7171 9.33734 75.2412 9.96987 74.1568 10.9638C73.5544 11.506 73.0725 12.1385 72.696 12.8464C72.5002 13.1626 72.6056 13.5241 72.7863 13.6145L75.949 15.2108C76.1448 15.3012 76.3255 15.241 76.4309 14.9548C76.8827 13.8404 77.6056 13.3283 78.6899 13.3283C79.8646 13.3283 80.6026 14.1265 80.6026 15.1506V15.3163C80.6026 15.5422 80.5122 15.6626 80.2863 15.6626H77.4701C74.6689 15.6626 72.3948 17.1988 72.3948 19.8795V20.1958C72.3948 22.9066 74.443 24.5331 77.1839 24.5331H78.2984C79.1568 24.5331 80.1207 24.247 80.7833 23.7048C80.9038 23.6145 81.0695 23.6446 81.0996 23.7349L81.1899 24.2771C81.2201 24.4428 81.3556 24.5331 81.5363 24.5331H84.6688C84.8646 24.5331 84.9851 24.4428 84.9851 24.2169V15.1807C85.0002 11.7319 82.5755 9.33734 78.6899 9.33734Z" fill="white"/>
<path fill-rule="evenodd" clip-rule="evenodd" d="M71.1146 9.68369H67.2592C67.0634 9.68369 66.9429 9.77405 66.9128 9.93971L65.4821 15.9337C65.3164 16.6114 65.1959 17.5602 65.1658 18.2379H65.0604C65.0303 17.5602 64.8947 16.7018 64.714 15.9337L63.2682 9.93971C63.2381 9.77405 63.1025 9.68369 62.9218 9.68369H59.7592C59.5634 9.68369 59.473 9.77405 59.4429 9.93971L58.0423 15.9036C57.8766 16.5662 57.7562 17.4397 57.6959 18.0722H57.6056C57.5754 17.4397 57.455 16.5662 57.2893 15.9036L55.7983 9.93971C55.7682 9.77405 55.6778 9.68369 55.4821 9.68369H51.5212C51.2351 9.68369 51.1297 9.84935 51.2351 10.1054L55.7381 24.3072C55.7983 24.4578 55.9038 24.5331 56.0544 24.5331H58.8706C59.0664 24.5331 59.1568 24.4728 59.1869 24.3072L60.9489 17.6957C61.1447 16.9578 61.2953 15.7228 61.2953 15.7228H61.3857C61.3857 15.7228 61.5513 16.9728 61.7321 17.6957L63.4489 24.262C63.479 24.4277 63.5694 24.518 63.7652 24.518H66.5363C66.7019 24.518 66.7923 24.4578 66.8525 24.2921L71.4158 10.0903C71.5062 9.87947 71.4007 9.68369 71.1146 9.68369Z" fill="white"/>
<path fill-rule="evenodd" clip-rule="evenodd" d="M49.5935 9.68371H47.4549C47.1688 9.68371 47.0784 9.59335 47.0784 9.36745V7.34938C47.0784 7.12347 47.0182 7.06323 46.7923 7.06323H44.7742C44.6537 7.06323 44.4881 7.12347 44.3977 7.22889L40.4067 11.2199V13.3885C40.4067 13.6144 40.4971 13.6747 40.723 13.6747H42.3194C42.6055 13.6747 42.6959 13.8102 42.6959 14.0211V19.006C42.6959 22.8313 45.0905 24.8193 48.1176 24.8193H49.4579C49.7441 24.8193 49.8796 24.6988 49.8796 24.4729V21.1897C49.8796 20.994 49.7893 20.8735 49.5634 20.8735H49.0212C47.711 20.8735 47.0784 20.0753 47.0784 18.7048V14.0211C47.0784 13.7952 47.1688 13.6747 47.4549 13.6747H49.5935C49.8194 13.6747 49.8796 13.6144 49.8796 13.3885V9.99998C49.8796 9.77408 49.8194 9.68371 49.5935 9.68371Z" fill="white"/>
<path fill-rule="evenodd" clip-rule="evenodd" d="M40.0604 4.26205C39.5183 4.14157 38.6297 4.03615 37.8014 4.03615C33.0725 4.03615 31.2954 7.31928 31.2954 9.90964V10.7078C31.2954 10.9337 31.205 11.0241 30.949 11.0241H30.211C30.0153 11.0241 29.8948 11.1145 29.8948 11.3404V14.6988C29.8948 14.9247 30.0153 15.0151 30.211 15.0151H30.949C31.2351 15.0151 31.2954 15.1054 31.2954 15.3313V24.2018C31.2954 24.4277 31.3857 24.5181 31.6116 24.5181H35.3767C35.6026 24.5181 35.693 24.4277 35.693 24.2018V15.3313C35.693 15.1054 35.7833 15.0151 36.0394 15.0151H38.1026C38.3285 15.0151 38.4189 14.9247 38.4189 14.6988V11.3404C38.4189 11.1145 38.3285 11.0241 38.1026 11.0241H36.0243C35.7683 11.0241 35.6779 10.9337 35.6779 10.7078V9.8494C35.6779 8.73494 36.4761 8.02711 37.6809 8.02711C38.1026 8.02711 38.5394 8.08735 38.8857 8.19278C39.1116 8.25302 39.2321 8.19277 39.3074 7.99699L40.3014 4.71386C40.3767 4.48796 40.3165 4.32229 40.0604 4.26205Z" fill="white"/>
<path fill-rule="evenodd" clip-rule="evenodd" d="M23.5543 19.1867C23.5543 20.2108 22.726 21.0391 21.6116 21.0391C20.4369 21.0391 19.5935 20.2108 19.5935 19.1867V15.0151C19.5935 14.0211 20.4218 13.1626 21.6116 13.1626C22.726 13.1626 23.5543 13.991 23.5543 15.0151V19.1867ZM21.6116 9.33734C17.711 9.33734 15.1658 11.7319 15.1658 15.1807V19.0663C15.1658 22.5151 17.711 24.8795 21.6116 24.8795C25.4369 24.8795 27.9971 22.5452 27.9971 19.0663V15.1807C27.9971 11.6867 25.4369 9.33734 21.6116 9.33734Z" fill="white"/>
<path fill-rule="evenodd" clip-rule="evenodd" d="M8.31339 12.5151C6.55134 11.8524 4.66881 11.3705 4.66881 9.93976C4.66881 8.79518 5.52724 8.02711 6.6417 8.02711H7.12363C8.20797 8.02711 8.94592 8.53916 9.39773 9.65362C9.48809 9.93976 9.68387 10 9.87965 9.90964L13.0423 8.31326C13.2381 8.2229 13.3284 7.86145 13.1327 7.54518C12.8766 7.06326 12.5604 6.59639 12.1688 6.1747C11.0544 4.9247 9.45797 4.03615 7.12363 4.03615H6.6417C2.65074 4.03615 0.195918 6.40061 0.195918 10C0.195918 13.6747 2.56038 15.0452 5.49712 16.2199C7.40977 16.988 9.0664 17.3946 9.0664 18.991C9.0664 20.3012 8.0423 20.8735 6.89773 20.8735H6.09953C5.0152 20.8735 4.27724 20.3615 3.8405 19.247C3.75014 18.9608 3.55435 18.9006 3.35857 18.991L0.195918 20.5874C0.000135012 20.6777 -0.0902264 21.0392 0.105557 21.3554C0.391701 21.8675 0.738087 22.3795 1.15977 22.8313C2.24411 24.0361 3.8405 24.8645 6.09953 24.8645H7.12363C11.1748 24.8645 13.5393 22.5301 13.5393 18.9307C13.5393 15.2108 11.3405 13.7048 8.31339 12.5151Z" fill="white"/>
</g>
<defs>
<linearGradient id="paint0_linear" x1="212.872" y1="3.04625" x2="212.872" y2="18.0692" gradientUnits="userSpaceOnUse">
<stop stop-color="#F2C069"/>
<stop offset="1" stop-color="#EB8F3B"/>
</linearGradient>
<clipPath id="clip0">
<rect width="222.892" height="25" fill="white"/>
</clipPath>
</defs>
</svg>
