<svg width="142" height="16" viewBox="0 0 142 16" fill="none" xmlns="http://www.w3.org/2000/svg">
<path d="M18.8105 10.2051L20.498 10.041C20.5996 10.6074 20.8047 11.0234 21.1133 11.2891C21.4258 11.5547 21.8457 11.6875 22.373 11.6875C22.9316 11.6875 23.3516 11.5703 23.6328 11.3359C23.918 11.0977 24.0605 10.8203 24.0605 10.5039C24.0605 10.3008 24 10.1289 23.8789 9.98828C23.7617 9.84375 23.5547 9.71875 23.2578 9.61328C23.0547 9.54297 22.5918 9.41797 21.8691 9.23828C20.9395 9.00781 20.2871 8.72461 19.9121 8.38867C19.3848 7.91602 19.1211 7.33984 19.1211 6.66016C19.1211 6.22266 19.2441 5.81445 19.4902 5.43555C19.7402 5.05273 20.0977 4.76172 20.5625 4.5625C21.0312 4.36328 21.5957 4.26367 22.2559 4.26367C23.334 4.26367 24.1445 4.5 24.6875 4.97266C25.2344 5.44531 25.5215 6.07617 25.5488 6.86523L23.8145 6.94141C23.7402 6.5 23.5801 6.18359 23.334 5.99219C23.0918 5.79688 22.7266 5.69922 22.2383 5.69922C21.7344 5.69922 21.3398 5.80273 21.0547 6.00977C20.8711 6.14258 20.7793 6.32031 20.7793 6.54297C20.7793 6.74609 20.8652 6.91992 21.0371 7.06445C21.2559 7.24805 21.7871 7.43945 22.6309 7.63867C23.4746 7.83789 24.0977 8.04492 24.5 8.25977C24.9062 8.4707 25.2227 8.76172 25.4492 9.13281C25.6797 9.5 25.7949 9.95508 25.7949 10.498C25.7949 10.9902 25.6582 11.4512 25.3848 11.8809C25.1113 12.3105 24.7246 12.6309 24.2246 12.8418C23.7246 13.0488 23.1016 13.1523 22.3555 13.1523C21.2695 13.1523 20.4355 12.9023 19.8535 12.4023C19.2715 11.8984 18.9238 11.166 18.8105 10.2051ZM26.8145 10.2051L28.502 10.041C28.6035 10.6074 28.8086 11.0234 29.1172 11.2891C29.4297 11.5547 29.8496 11.6875 30.377 11.6875C30.9355 11.6875 31.3555 11.5703 31.6367 11.3359C31.9219 11.0977 32.0645 10.8203 32.0645 10.5039C32.0645 10.3008 32.0039 10.1289 31.8828 9.98828C31.7656 9.84375 31.5586 9.71875 31.2617 9.61328C31.0586 9.54297 30.5957 9.41797 29.873 9.23828C28.9434 9.00781 28.291 8.72461 27.916 8.38867C27.3887 7.91602 27.125 7.33984 27.125 6.66016C27.125 6.22266 27.248 5.81445 27.4941 5.43555C27.7441 5.05273 28.1016 4.76172 28.5664 4.5625C29.0352 4.36328 29.5996 4.26367 30.2598 4.26367C31.3379 4.26367 32.1484 4.5 32.6914 4.97266C33.2383 5.44531 33.5254 6.07617 33.5527 6.86523L31.8184 6.94141C31.7441 6.5 31.584 6.18359 31.3379 5.99219C31.0957 5.79688 30.7305 5.69922 30.2422 5.69922C29.7383 5.69922 29.3438 5.80273 29.0586 6.00977C28.875 6.14258 28.7832 6.32031 28.7832 6.54297C28.7832 6.74609 28.8691 6.91992 29.041 7.06445C29.2598 7.24805 29.791 7.43945 30.6348 7.63867C31.4785 7.83789 32.1016 8.04492 32.5039 8.25977C32.9102 8.4707 33.2266 8.76172 33.4531 9.13281C33.6836 9.5 33.7988 9.95508 33.7988 10.498C33.7988 10.9902 33.6621 11.4512 33.3887 11.8809C33.1152 12.3105 32.7285 12.6309 32.2285 12.8418C31.7285 13.0488 31.1055 13.1523 30.3594 13.1523C29.2734 13.1523 28.4395 12.9023 27.8574 12.4023C27.2754 11.8984 26.9277 11.166 26.8145 10.2051ZM35.3047 13V4.48047H37.0391V11.5527H41.3516V13H35.3047ZM48.6113 10.2051L50.2988 10.041C50.4004 10.6074 50.6055 11.0234 50.9141 11.2891C51.2266 11.5547 51.6465 11.6875 52.1738 11.6875C52.7324 11.6875 53.1523 11.5703 53.4336 11.3359C53.7188 11.0977 53.8613 10.8203 53.8613 10.5039C53.8613 10.3008 53.8008 10.1289 53.6797 9.98828C53.5625 9.84375 53.3555 9.71875 53.0586 9.61328C52.8555 9.54297 52.3926 9.41797 51.6699 9.23828C50.7402 9.00781 50.0879 8.72461 49.7129 8.38867C49.1855 7.91602 48.9219 7.33984 48.9219 6.66016C48.9219 6.22266 49.0449 5.81445 49.291 5.43555C49.541 5.05273 49.8984 4.76172 50.3633 4.5625C50.832 4.36328 51.3965 4.26367 52.0566 4.26367C53.1348 4.26367 53.9453 4.5 54.4883 4.97266C55.0352 5.44531 55.3223 6.07617 55.3496 6.86523L53.6152 6.94141C53.541 6.5 53.3809 6.18359 53.1348 5.99219C52.8926 5.79688 52.5273 5.69922 52.0391 5.69922C51.5352 5.69922 51.1406 5.80273 50.8555 6.00977C50.6719 6.14258 50.5801 6.32031 50.5801 6.54297C50.5801 6.74609 50.666 6.91992 50.8379 7.06445C51.0566 7.24805 51.5879 7.43945 52.4316 7.63867C53.2754 7.83789 53.8984 8.04492 54.3008 8.25977C54.707 8.4707 55.0234 8.76172 55.25 9.13281C55.4805 9.5 55.5957 9.95508 55.5957 10.498C55.5957 10.9902 55.459 11.4512 55.1855 11.8809C54.9121 12.3105 54.5254 12.6309 54.0254 12.8418C53.5254 13.0488 52.9023 13.1523 52.1562 13.1523C51.0703 13.1523 50.2363 12.9023 49.6543 12.4023C49.0723 11.8984 48.7246 11.166 48.6113 10.2051ZM60.6465 11.0195L62.2871 11.2949C62.0762 11.8965 61.7422 12.3555 61.2852 12.6719C60.832 12.9844 60.2637 13.1406 59.5801 13.1406C58.498 13.1406 57.6973 12.7871 57.1777 12.0801C56.7676 11.5137 56.5625 10.7988 56.5625 9.93555C56.5625 8.9043 56.832 8.09766 57.3711 7.51562C57.9102 6.92969 58.5918 6.63672 59.416 6.63672C60.3418 6.63672 61.0723 6.94336 61.6074 7.55664C62.1426 8.16602 62.3984 9.10156 62.375 10.3633H58.25C58.2617 10.8516 58.3945 11.2324 58.6484 11.5059C58.9023 11.7754 59.2188 11.9102 59.5977 11.9102C59.8555 11.9102 60.0723 11.8398 60.248 11.6992C60.4238 11.5586 60.5566 11.332 60.6465 11.0195ZM60.7402 9.35547C60.7285 8.87891 60.6055 8.51758 60.3711 8.27148C60.1367 8.02148 59.8516 7.89648 59.5156 7.89648C59.1562 7.89648 58.8594 8.02734 58.625 8.28906C58.3906 8.55078 58.2754 8.90625 58.2793 9.35547H60.7402ZM69.1484 8.61719L67.5254 8.91016C67.4707 8.58594 67.3457 8.3418 67.1504 8.17773C66.959 8.01367 66.709 7.93164 66.4004 7.93164C65.9902 7.93164 65.6621 8.07422 65.416 8.35938C65.1738 8.64062 65.0527 9.11328 65.0527 9.77734C65.0527 10.5156 65.1758 11.0371 65.4219 11.3418C65.6719 11.6465 66.0059 11.7988 66.4238 11.7988C66.7363 11.7988 66.9922 11.7109 67.1914 11.5352C67.3906 11.3555 67.5312 11.0488 67.6133 10.6152L69.2305 10.8906C69.0625 11.6328 68.7402 12.1934 68.2637 12.5723C67.7871 12.9512 67.1484 13.1406 66.3477 13.1406C65.4375 13.1406 64.7109 12.8535 64.168 12.2793C63.6289 11.7051 63.3594 10.9102 63.3594 9.89453C63.3594 8.86719 63.6309 8.06836 64.1738 7.49805C64.7168 6.92383 65.4512 6.63672 66.377 6.63672C67.1348 6.63672 67.7363 6.80078 68.1816 7.12891C68.6309 7.45312 68.9531 7.94922 69.1484 8.61719ZM74.498 13V12.0684C74.2715 12.4004 73.9727 12.6621 73.6016 12.8535C73.2344 13.0449 72.8457 13.1406 72.4355 13.1406C72.0176 13.1406 71.6426 13.0488 71.3105 12.8652C70.9785 12.6816 70.7383 12.4238 70.5898 12.0918C70.4414 11.7598 70.3672 11.3008 70.3672 10.7148V6.77734H72.0137V9.63672C72.0137 10.5117 72.043 11.0488 72.1016 11.248C72.1641 11.4434 72.2754 11.5996 72.4355 11.7168C72.5957 11.8301 72.7988 11.8867 73.0449 11.8867C73.3262 11.8867 73.5781 11.8105 73.8008 11.6582C74.0234 11.502 74.1758 11.3105 74.2578 11.084C74.3398 10.8535 74.3809 10.293 74.3809 9.40234V6.77734H76.0273V13H74.498ZM79.3145 13H77.668V6.77734H79.1973V7.66211C79.459 7.24414 79.6934 6.96875 79.9004 6.83594C80.1113 6.70312 80.3496 6.63672 80.6152 6.63672C80.9902 6.63672 81.3516 6.74023 81.6992 6.94727L81.1895 8.38281C80.9121 8.20312 80.6543 8.11328 80.416 8.11328C80.1855 8.11328 79.9902 8.17773 79.8301 8.30664C79.6699 8.43164 79.543 8.66016 79.4492 8.99219C79.3594 9.32422 79.3145 10.0195 79.3145 11.0781V13ZM86.0176 11.0195L87.6582 11.2949C87.4473 11.8965 87.1133 12.3555 86.6562 12.6719C86.2031 12.9844 85.6348 13.1406 84.9512 13.1406C83.8691 13.1406 83.0684 12.7871 82.5488 12.0801C82.1387 11.5137 81.9336 10.7988 81.9336 9.93555C81.9336 8.9043 82.2031 8.09766 82.7422 7.51562C83.2812 6.92969 83.9629 6.63672 84.7871 6.63672C85.7129 6.63672 86.4434 6.94336 86.9785 7.55664C87.5137 8.16602 87.7695 9.10156 87.7461 10.3633H83.6211C83.6328 10.8516 83.7656 11.2324 84.0195 11.5059C84.2734 11.7754 84.5898 11.9102 84.9688 11.9102C85.2266 11.9102 85.4434 11.8398 85.6191 11.6992C85.7949 11.5586 85.9277 11.332 86.0176 11.0195ZM86.1113 9.35547C86.0996 8.87891 85.9766 8.51758 85.7422 8.27148C85.5078 8.02148 85.2227 7.89648 84.8867 7.89648C84.5273 7.89648 84.2305 8.02734 83.9961 8.28906C83.7617 8.55078 83.6465 8.90625 83.6504 9.35547H86.1113ZM92.4453 13V4.41016H95.2285C96.2832 4.41016 96.9707 4.45312 97.291 4.53906C97.7832 4.66797 98.1953 4.94922 98.5273 5.38281C98.8594 5.8125 99.0254 6.36914 99.0254 7.05273C99.0254 7.58008 98.9297 8.02344 98.7383 8.38281C98.5469 8.74219 98.3027 9.02539 98.0059 9.23242C97.7129 9.43555 97.4141 9.57031 97.1094 9.63672C96.6953 9.71875 96.0957 9.75977 95.3105 9.75977H94.1797V13H92.4453ZM94.1797 5.86328V8.30078H95.1289C95.8125 8.30078 96.2695 8.25586 96.5 8.16602C96.7305 8.07617 96.9102 7.93555 97.0391 7.74414C97.1719 7.55273 97.2383 7.33008 97.2383 7.07617C97.2383 6.76367 97.1465 6.50586 96.9629 6.30273C96.7793 6.09961 96.5469 5.97266 96.2656 5.92188C96.0586 5.88281 95.6426 5.86328 95.0176 5.86328H94.1797ZM101.668 8.67578L100.174 8.40625C100.342 7.80469 100.631 7.35938 101.041 7.07031C101.451 6.78125 102.061 6.63672 102.869 6.63672C103.604 6.63672 104.15 6.72461 104.51 6.90039C104.869 7.07227 105.121 7.29297 105.266 7.5625C105.414 7.82812 105.488 8.31836 105.488 9.0332L105.471 10.9551C105.471 11.502 105.496 11.9062 105.547 12.168C105.602 12.4258 105.701 12.7031 105.846 13H104.217C104.174 12.8906 104.121 12.7285 104.059 12.5137C104.031 12.416 104.012 12.3516 104 12.3203C103.719 12.5938 103.418 12.7988 103.098 12.9355C102.777 13.0723 102.436 13.1406 102.072 13.1406C101.432 13.1406 100.926 12.9668 100.555 12.6191C100.188 12.2715 100.004 11.832 100.004 11.3008C100.004 10.9492 100.088 10.6367 100.256 10.3633C100.424 10.0859 100.658 9.875 100.959 9.73047C101.264 9.58203 101.701 9.45312 102.271 9.34375C103.041 9.19922 103.574 9.06445 103.871 8.93945V8.77539C103.871 8.45898 103.793 8.23438 103.637 8.10156C103.48 7.96484 103.186 7.89648 102.752 7.89648C102.459 7.89648 102.23 7.95508 102.066 8.07227C101.902 8.18555 101.77 8.38672 101.668 8.67578ZM103.871 10.0117C103.66 10.082 103.326 10.166 102.869 10.2637C102.412 10.3613 102.113 10.457 101.973 10.5508C101.758 10.7031 101.65 10.8965 101.65 11.1309C101.65 11.3613 101.736 11.5605 101.908 11.7285C102.08 11.8965 102.299 11.9805 102.564 11.9805C102.861 11.9805 103.145 11.8828 103.414 11.6875C103.613 11.5391 103.744 11.3574 103.807 11.1426C103.85 11.002 103.871 10.7344 103.871 10.3398V10.0117ZM106.338 6.77734H108.09L109.578 11.1953L111.031 6.77734H112.736L110.539 12.7656L110.146 13.8496C110.002 14.2129 109.863 14.4902 109.73 14.6816C109.602 14.873 109.451 15.0273 109.279 15.1445C109.111 15.2656 108.902 15.3594 108.652 15.4258C108.406 15.4922 108.127 15.5254 107.814 15.5254C107.498 15.5254 107.188 15.4922 106.883 15.4258L106.736 14.1367C106.994 14.1875 107.227 14.2129 107.434 14.2129C107.816 14.2129 108.1 14.0996 108.283 13.873C108.467 13.6504 108.607 13.3652 108.705 13.0176L106.338 6.77734ZM113.674 6.77734H115.191V7.62695C115.734 6.9668 116.381 6.63672 117.131 6.63672C117.529 6.63672 117.875 6.71875 118.168 6.88281C118.461 7.04688 118.701 7.29492 118.889 7.62695C119.162 7.29492 119.457 7.04688 119.773 6.88281C120.09 6.71875 120.428 6.63672 120.787 6.63672C121.244 6.63672 121.631 6.73047 121.947 6.91797C122.264 7.10156 122.5 7.37305 122.656 7.73242C122.77 7.99805 122.826 8.42773 122.826 9.02148V13H121.18V9.44336C121.18 8.82617 121.123 8.42773 121.01 8.24805C120.857 8.01367 120.623 7.89648 120.307 7.89648C120.076 7.89648 119.859 7.9668 119.656 8.10742C119.453 8.24805 119.307 8.45508 119.217 8.72852C119.127 8.99805 119.082 9.42578 119.082 10.0117V13H117.436V9.58984C117.436 8.98438 117.406 8.59375 117.348 8.41797C117.289 8.24219 117.197 8.11133 117.072 8.02539C116.951 7.93945 116.785 7.89648 116.574 7.89648C116.32 7.89648 116.092 7.96484 115.889 8.10156C115.686 8.23828 115.539 8.43555 115.449 8.69336C115.363 8.95117 115.32 9.37891 115.32 9.97656V13H113.674V6.77734ZM128.076 11.0195L129.717 11.2949C129.506 11.8965 129.172 12.3555 128.715 12.6719C128.262 12.9844 127.693 13.1406 127.01 13.1406C125.928 13.1406 125.127 12.7871 124.607 12.0801C124.197 11.5137 123.992 10.7988 123.992 9.93555C123.992 8.9043 124.262 8.09766 124.801 7.51562C125.34 6.92969 126.021 6.63672 126.846 6.63672C127.771 6.63672 128.502 6.94336 129.037 7.55664C129.572 8.16602 129.828 9.10156 129.805 10.3633H125.68C125.691 10.8516 125.824 11.2324 126.078 11.5059C126.332 11.7754 126.648 11.9102 127.027 11.9102C127.285 11.9102 127.502 11.8398 127.678 11.6992C127.854 11.5586 127.986 11.332 128.076 11.0195ZM128.17 9.35547C128.158 8.87891 128.035 8.51758 127.801 8.27148C127.566 8.02148 127.281 7.89648 126.945 7.89648C126.586 7.89648 126.289 8.02734 126.055 8.28906C125.82 8.55078 125.705 8.90625 125.709 9.35547H128.17ZM136.812 13H135.166V9.82422C135.166 9.15234 135.131 8.71875 135.061 8.52344C134.99 8.32422 134.875 8.16992 134.715 8.06055C134.559 7.95117 134.369 7.89648 134.146 7.89648C133.861 7.89648 133.605 7.97461 133.379 8.13086C133.152 8.28711 132.996 8.49414 132.91 8.75195C132.828 9.00977 132.787 9.48633 132.787 10.1816V13H131.141V6.77734H132.67V7.69141C133.213 6.98828 133.896 6.63672 134.721 6.63672C135.084 6.63672 135.416 6.70312 135.717 6.83594C136.018 6.96484 136.244 7.13086 136.396 7.33398C136.553 7.53711 136.66 7.76758 136.719 8.02539C136.781 8.2832 136.812 8.65234 136.812 9.13281V13ZM141.342 6.77734V8.08984H140.217V10.5977C140.217 11.1055 140.227 11.4023 140.246 11.4883C140.27 11.5703 140.318 11.6387 140.393 11.6934C140.471 11.748 140.564 11.7754 140.674 11.7754C140.826 11.7754 141.047 11.7227 141.336 11.6172L141.477 12.8945C141.094 13.0586 140.66 13.1406 140.176 13.1406C139.879 13.1406 139.611 13.0918 139.373 12.9941C139.135 12.8926 138.959 12.7637 138.846 12.6074C138.736 12.4473 138.66 12.2324 138.617 11.9629C138.582 11.7715 138.564 11.3848 138.564 10.8027V8.08984H137.809V6.77734H138.564V5.54102L140.217 4.58008V6.77734H141.342Z" fill="#B0C1D1"/>
<path d="M12.3115 10.0086C11.8941 11.1038 11.2722 12.0402 10.4714 12.8345C9.54287 13.7208 8.33319 14.4315 6.85942 14.9331C6.8083 14.9415 6.76571 14.9666 6.71459 14.9749C6.64644 14.9833 6.56977 15 6.51014 15H6.50162C6.42495 15 6.3568 14.9916 6.28013 14.9749C6.22902 14.9666 6.18642 14.9498 6.13531 14.9331C4.67005 14.4398 3.45185 13.7291 2.52329 12.8345C1.70547 12.057 1.08359 11.1122 0.6832 10.0086C-0.057946 8.02702 -0.0238703 5.84483 0.0187243 4.08068V4.0556C0.0272433 3.91346 0.0272432 3.76297 0.0272432 3.58739C0.0357621 2.75966 0.708757 2.07407 1.55213 2.03227C3.30703 1.9403 4.67005 1.38012 5.82863 0.259758L5.83715 0.251397C6.02456 0.0758181 6.27161 -0.00779083 6.51866 0.00057006C6.75719 0.00057006 6.9872 0.0841789 7.17462 0.251397L7.18313 0.259758C8.35023 1.37176 9.70473 1.93193 11.4596 2.03227C12.303 2.08243 12.9675 2.75966 12.9845 3.58739C12.9845 3.75461 12.993 3.91346 12.993 4.0556V4.06396C13.0101 5.83647 13.0527 8.02702 12.3115 10.0086Z" fill="#44C523"/>
<path d="M6.4153 9.9387C6.34183 10.0138 6.21785 10.0221 6.13519 9.95122L3.06319 7.3061C2.98053 7.23517 2.98053 7.11835 3.05401 7.04325L4.03209 6.10452C4.11015 6.02943 4.23872 6.02943 4.32138 6.09618L6.00203 7.53973C6.08468 7.61066 6.20866 7.60232 6.28213 7.52722L9.56077 4.06436C9.63424 3.98926 9.76282 3.97674 9.85006 4.0435L10.9292 4.88627C11.0118 4.95302 11.0256 5.06984 10.9521 5.14911L6.4153 9.9387Z" fill="white"/>
</svg>
