<svg xmlns="http://www.w3.org/2000/svg" width="512" height="48" viewBox="0 0 512 48" fill="none">
<g clip-path="url(#clip0)">
<path fill-rule="evenodd" clip-rule="evenodd" d="M167.129 17.0382C163.403 17.0382 160.514 19.5959 159.339 23.802C157.545 20.9599 156.189 17.5474 155.394 14.6721H151.382V25.6977C151.382 27.8702 149.704 29.6426 147.647 29.6426C145.591 29.6426 143.913 27.8702 143.913 25.6977V14.6728H139.901V25.6977C139.886 30.213 143.366 33.9199 147.639 33.9199C151.914 33.9199 155.394 30.213 155.394 25.6977V23.8492C156.174 25.5674 157.129 27.3005 158.289 28.842L155.829 41.0464H159.936L161.716 32.1932C163.277 33.2488 165.071 33.9115 167.129 33.9115C171.525 33.9115 175.109 30.106 175.109 25.459C175.109 20.8205 171.526 17.0375 167.129 17.0375L167.129 17.0382ZM167.129 29.6581C165.51 29.6581 163.993 28.9335 162.615 27.7547L162.951 26.0914L162.966 26.0294C163.263 24.2569 164.212 21.2831 167.129 21.2831C169.317 21.2831 171.098 23.1626 171.098 25.4738C171.09 27.7779 169.311 29.6581 167.129 29.6581Z" fill="#9B99AF"/>
<path fill-rule="evenodd" clip-rule="evenodd" d="M233.512 24.8579C235.94 23.4101 237.589 20.6588 237.589 17.5075H234.168C234.168 20.1651 232.127 22.3228 229.611 22.3228H229.15V9.82471H225.73V33.4413H229.15V25.9381H229.559C229.895 25.9381 230.332 26.1691 230.529 26.4536L235.387 33.4427H239.487L233.512 24.8565L233.513 24.8579H233.512ZM222.031 21.082C219.749 21.082 217.904 23.0389 217.904 25.4438V33.4413H214.481V17.5159H217.904V19.9658C217.904 19.9658 219.363 17.5075 222.359 17.5075H223.41V21.0834H222.031V21.0827V21.082ZM204.328 30.4443C201.733 30.4443 199.632 28.2253 199.632 25.4825C199.632 22.739 201.74 20.5193 204.328 20.5193C206.926 20.5193 209.026 22.739 209.026 25.4825C209.026 28.2176 206.926 30.4443 204.329 30.4443H204.328ZM204.328 17.0385C199.917 17.0385 196.342 20.82 196.342 25.4741C196.342 30.1358 199.923 33.911 204.329 33.911C208.742 33.911 212.323 30.1372 212.323 25.4741C212.323 20.8137 208.742 17.0385 204.329 17.0385H204.328ZM187.356 17.5152L189.945 28.5408L192.796 17.5152H196.196L191.813 33.4491H188.413L185.722 22.3531L183.038 33.4413H179.639L175.255 17.5061H178.654L181.505 28.5317L184.095 17.5068H187.355V17.5152H187.356Z" fill="#9B99AF"/>
</g>
<path d="M478.765 40.5C493.483 40.5 501.531 28.382 501.531 17.8743C501.531 17.5297 501.524 17.1877 501.509 16.8463C503.066 15.7295 504.418 14.335 505.5 12.7287C504.035 13.3734 502.487 13.7953 500.905 13.9801C502.557 12.996 503.826 11.4385 504.424 9.58226C502.846 10.511 501.128 11.1635 499.343 11.512C497.882 9.96614 495.804 9 493.503 9C489.084 9 485.5 12.5618 485.5 16.9507C485.5 17.5748 485.571 18.1822 485.708 18.7638C479.058 18.4314 473.16 15.2677 469.214 10.4556C468.505 11.6607 468.131 13.043 468.131 14.4522C468.131 17.2115 469.543 19.6475 471.692 21.0722C470.425 21.0349 469.184 20.6941 468.068 20.0771C468.066 20.1106 468.066 20.1434 468.066 20.1789C468.066 24.0299 470.825 27.2452 474.486 27.9743C473.305 28.2925 472.072 28.3395 470.872 28.1102C471.891 31.2695 474.845 33.5696 478.347 33.6333C475.608 35.7666 472.158 37.0374 468.409 37.0374C467.763 37.0374 467.126 37.0006 466.5 36.9272C470.041 39.1835 474.246 40.5 478.765 40.5Z" fill="#9B99AF"/>
<path fill-rule="evenodd" clip-rule="evenodd" d="M22.8745 20.4482L22.8747 20.4482L22.8748 20.4481C23.7874 20.4298 24.6813 20.4118 25.3557 20.4118V24.3851C23.6412 24.3851 21.6363 24.3851 20.1867 24.4595V30.369C20.8321 30.3267 21.4775 30.2804 22.1234 30.234L22.1235 30.234C23.7497 30.1172 25.3791 30.0003 27.0208 29.947V33.7701L16.3239 34.6392V11.1748H27.0208V15.1474H20.1867V20.4862V20.4869C20.9511 20.4869 21.9229 20.4673 22.8745 20.4482ZM37.3823 15.1467H41.3913V11.1748H29.5104V15.1481H33.5194V33.4733C34.7748 33.4232 36.0789 33.4232 37.3823 33.4232V15.1467ZM47.669 20.2129H52.9574V24.1855H47.669V33.1993H43.8768V11.1748H54.6719V15.1474H47.6676V20.2129H47.669ZM91.4999 11.1748L86.5979 23.2678L91.4999 36.6019C90.4039 36.4515 89.3079 36.2589 88.2116 36.0663L88.2116 36.0663C87.8586 36.0042 87.5055 35.9422 87.1525 35.8816L84.3761 28.5315L81.5511 35.2858C80.7282 35.14 79.9219 35.0539 79.1128 34.9675C78.5445 34.9069 77.9749 34.8461 77.3972 34.7643L82.372 23.1184L77.8804 11.1748H82.0336L84.5697 17.8547L87.274 11.1748H91.4999ZM70.9805 34.2793L70.7802 34.2672V11.1748H74.5716V34.5648C73.3841 34.4241 72.1525 34.3499 70.9805 34.2793ZM65.7539 29.9621C64.1657 29.8614 62.5527 29.7591 60.9521 29.7232V11.1748H57.0879V33.4726C60.6137 33.547 64.0668 33.7701 67.5206 33.9947V30.0708C66.9365 30.0371 66.347 29.9997 65.754 29.9621L65.7539 29.9621ZM10.0898 35.285C10.9324 35.1974 11.7614 35.1112 12.5817 34.9632V11.1749H8.69346V25.6018L3.67135 11.1749H0V36.6019C0.120688 36.5835 0.240953 36.5651 0.36093 36.5468C1.53804 36.3668 2.68742 36.1911 3.93629 36.0555V22.1757L8.35646 35.4847C8.94146 35.4044 9.51873 35.3443 10.0898 35.285Z" fill="#9B99AF"/>
<path fill-rule="evenodd" clip-rule="evenodd" d="M307.35 3.77441C296.666 3.77441 288.005 12.647 288.005 23.5917C288.005 34.5375 296.666 43.4097 307.35 43.4097C318.034 43.4097 326.694 34.5376 326.694 23.5917C326.694 12.6477 318.034 3.77536 307.349 3.77536L307.35 3.77441ZM316.22 32.3567C315.873 32.9405 315.13 33.1235 314.562 32.7678C310.02 29.9235 304.302 29.281 297.569 30.8569C296.92 31.0093 296.273 30.5925 296.125 29.928C295.977 29.2633 296.381 28.6007 297.032 28.4492C304.401 26.7233 310.721 27.4662 315.82 30.6581C316.388 31.0154 316.569 31.7751 316.22 32.3572L316.22 32.3567ZM316.515 27.4703C317.224 27.9168 318.152 27.6887 318.589 26.9615L318.589 26.9617C319.026 26.2362 318.802 25.2848 318.092 24.8376C312.121 21.0784 303.388 20.0206 296.362 22.2044C295.566 22.4529 295.116 23.3143 295.357 24.1314C295.599 24.9471 296.441 25.4077 297.239 25.1608C303.389 23.2482 311.316 24.1965 316.515 27.4703ZM318.791 21.3428C312.555 17.5491 302.27 17.2003 296.317 19.0511C295.362 19.3481 294.351 18.7953 294.061 17.8161C293.771 16.8364 294.311 15.8015 295.267 15.5038C302.1 13.3787 313.459 13.7893 320.637 18.1547C321.497 18.6775 321.779 19.815 321.27 20.6946C320.761 21.5754 319.648 21.8658 318.791 21.3428H318.791ZM336.699 19.4777C336.699 20.681 337.294 21.2537 340.634 22.0697L340.641 22.0727C344.709 23.0865 346.37 24.6602 346.363 27.5024C346.363 30.8692 343.852 33.0444 339.966 33.0444C337.219 33.0444 334.673 32.0446 332.603 30.1516C332.515 30.0716 332.505 29.9334 332.582 29.8409L334.41 27.6115C334.447 27.5653 334.501 27.5374 334.56 27.5324C334.616 27.5291 334.677 27.5468 334.721 27.5859C336.5 29.1641 338.09 29.8369 340.039 29.8369C341.795 29.8369 342.886 29.0588 342.886 27.8072C342.886 26.6777 342.346 26.0458 339.15 25.2916C335.395 24.3618 333.222 23.1573 333.222 19.7555C333.222 16.5832 335.741 14.3661 339.347 14.3661C341.8 14.3661 343.898 15.1108 345.762 16.6426C345.852 16.7167 345.87 16.8504 345.803 16.9474L344.173 19.3026C344.138 19.352 344.087 19.3849 344.028 19.3939C343.97 19.4033 343.91 19.3889 343.863 19.3527C342.297 18.1567 340.804 17.5757 339.298 17.5757C337.744 17.5757 336.699 18.3408 336.699 19.4777ZM355.154 18.6949C353.47 18.6949 352.088 19.3746 350.949 20.7672V19.1997C350.949 19.0759 350.851 18.9751 350.731 18.9751H347.74C347.619 18.9751 347.521 19.0759 347.521 19.1997V36.6174C347.521 36.7411 347.619 36.8419 347.74 36.8419H350.731C350.851 36.8419 350.949 36.7412 350.949 36.6174V31.1194C352.089 32.4294 353.47 33.0696 355.154 33.0696C358.284 33.0696 361.453 30.6014 361.453 25.8831C361.457 21.1636 358.288 18.6947 355.158 18.6947L355.154 18.6949ZM354.462 29.9625C356.53 29.9625 357.975 28.2858 357.975 25.8831L357.975 25.8829C357.975 23.5188 356.497 21.8036 354.462 21.8038C352.417 21.8038 350.874 23.5569 350.874 25.8831C350.874 28.2096 352.417 29.9625 354.462 29.9625ZM369.574 18.6951C365.543 18.6951 362.385 21.8747 362.385 25.9346C362.385 29.9502 365.522 33.0964 369.524 33.0964C373.569 33.0964 376.737 29.9275 376.737 25.8832C376.737 21.8529 373.591 18.6955 369.574 18.6955L369.574 18.6951ZM365.814 25.8818C365.814 28.2215 367.43 29.9862 369.574 29.9862H369.574C371.738 29.9862 373.309 28.2824 373.309 25.9331C373.309 23.5918 371.682 21.8271 369.524 21.8271C367.374 21.8271 365.814 23.5321 365.814 25.8818ZM385.345 18.9753H382.054V15.5283C382.054 15.4048 381.956 15.304 381.835 15.304H378.845C378.724 15.304 378.626 15.4048 378.626 15.5283V18.9753H377.188C377.068 18.9753 376.97 19.0761 376.97 19.1999V21.833C376.97 21.9566 377.068 22.0576 377.188 22.0576H378.626V28.8709C378.626 31.6243 379.964 33.0203 382.602 33.0203C383.675 33.0203 384.565 32.7933 385.403 32.3061C385.472 32.267 385.514 32.1918 385.514 32.1118V29.6043C385.514 29.5269 385.475 29.4538 385.41 29.4133C385.345 29.3714 385.264 29.3693 385.197 29.4031C384.621 29.7001 384.064 29.8372 383.441 29.8372C382.482 29.8372 382.054 29.3908 382.054 28.3905V22.0588H385.345C385.466 22.0588 385.563 21.958 385.563 21.8342V19.2013C385.567 19.0775 385.47 18.9767 385.348 18.9767L385.345 18.9753ZM396.81 18.5652V18.9885L396.81 18.9892H401.919C402.01 18.9892 402.091 19.0467 402.123 19.1336L405.617 28.4726L408.806 19.1397C408.837 19.05 408.92 18.9892 409.013 18.9892H412.127C412.199 18.9892 412.265 19.0259 412.307 19.0867C412.348 19.148 412.356 19.2261 412.33 19.2952L407.141 33.0302C406.065 35.8652 404.845 36.919 402.636 36.919C401.456 36.919 400.501 36.6684 399.442 36.0813C399.341 36.0255 399.3 35.8991 399.348 35.7914L400.362 33.5132C400.386 33.4564 400.434 33.4129 400.491 33.3923C400.549 33.374 400.612 33.379 400.665 33.4091C401.233 33.7271 401.787 33.8883 402.314 33.8883C402.966 33.8883 403.444 33.6687 403.929 32.5647L399.652 22.0581H396.86V32.5666C396.86 32.6903 396.761 32.7912 396.64 32.7912H393.65C393.529 32.7912 393.432 32.6903 393.432 32.5666V22.0573H391.995C391.874 22.0573 391.775 21.9563 391.775 21.8328V19.1861C391.775 19.0626 391.874 18.9618 391.995 18.9618H393.432V18.3133C393.432 15.3001 394.892 13.7065 397.654 13.7065C398.789 13.7065 399.547 13.8918 400.14 14.0724C400.233 14.1015 400.295 14.1888 400.295 14.2875V16.8693C400.295 16.9413 400.262 17.0092 400.204 17.0516C400.148 17.0939 400.076 17.1051 400.007 17.0828C399.446 16.8911 398.945 16.7643 398.322 16.7643C397.276 16.7643 396.81 17.3197 396.81 18.5652ZM390.162 18.9752H387.171C387.05 18.9752 386.952 19.076 386.952 19.1998V32.5668C386.952 32.6905 387.05 32.7913 387.171 32.7913H390.162C390.283 32.7913 390.381 32.6905 390.381 32.5668V19.2007C390.381 19.1411 390.358 19.0838 390.317 19.0417C390.276 18.9995 390.22 18.976 390.162 18.9762L390.162 18.9752ZM386.538 15.0851C386.538 13.8713 387.499 12.8888 388.684 12.8888H388.685C389.868 12.8888 390.829 13.8716 390.829 15.0851C390.829 16.2996 389.868 17.2833 388.684 17.2833C387.499 17.2833 386.538 16.2996 386.538 15.0851ZM414.884 23.2732C413.701 23.2731 412.78 22.2993 412.78 21.1168C412.78 19.9343 413.713 18.9494 414.895 18.9494C416.079 18.9494 417 19.923 417 21.1045C417 22.2871 416.067 23.2732 414.884 23.2732ZM413.002 21.1163C413.002 20.0412 413.818 19.1633 414.896 19.1633H414.897C415.969 19.1633 416.78 20.0294 416.78 21.104C416.78 22.1798 415.963 23.0571 414.885 23.0571C413.812 23.0571 413.002 22.1909 413.002 21.1163ZM415.362 21.3258L415.958 22.1797H415.456L414.92 21.3964H414.459V22.1797H414.039V19.9164H415.024C415.537 19.9164 415.875 20.1854 415.875 20.6384C415.877 21.0095 415.667 21.2362 415.364 21.3259L415.362 21.3258ZM414.459 20.3047H415.007L415.007 20.3048C415.28 20.3048 415.444 20.4295 415.444 20.6623C415.444 20.8836 415.28 21.0206 415.007 21.0206H414.459V20.3047Z" fill="#9B99AF"/>
<defs>
<clipPath id="clip0">
<rect width="100.5" height="31.6888" fill="white" transform="translate(139.5 9.56128)"/>
</clipPath>
</defs>
</svg>
