<svg xmlns="http://www.w3.org/2000/svg" width="271" height="80" viewBox="0 0 271 80" fill="none">
<path fill-rule="evenodd" clip-rule="evenodd" d="M216.727 23.5232C217.288 23.4648 217.841 23.4073 218.388 23.3087V7.44977H215.796V17.0677L212.448 7.44977H210V24.4011C210.08 24.3889 210.161 24.3766 210.241 24.3644C211.025 24.2444 211.792 24.1273 212.624 24.0368V14.7836L215.571 23.6563C215.961 23.6028 216.346 23.5628 216.727 23.5232ZM225.25 13.632H225.25C225.858 13.6197 226.454 13.6077 226.904 13.6077V16.2566C225.761 16.2566 224.424 16.2566 223.458 16.3062V20.2459C223.888 20.2177 224.318 20.1868 224.749 20.1559C225.833 20.0781 226.919 20.0001 228.014 19.9646V22.5133L220.883 23.0927V7.44977H228.014V10.0982H223.458V13.6573V13.6578C223.968 13.6578 224.615 13.6448 225.25 13.632ZM234.921 10.0977H237.594V7.44977H229.673V10.0986H232.346V22.3154C233.183 22.282 234.052 22.282 234.921 22.282V10.0977ZM241.779 13.4752H245.305V16.1236H241.779V22.1328H239.251V7.44977H246.448V10.0982H241.778V13.4752H241.779ZM271 7.44977L267.732 15.5118L271 24.4011C270.269 24.3009 269.539 24.1725 268.808 24.0441L268.808 24.0441C268.573 24.0027 268.337 23.9614 268.102 23.921L266.251 19.0209L264.368 23.5237C263.819 23.4265 263.281 23.3692 262.742 23.3116C262.363 23.2712 261.983 23.2306 261.598 23.1761L264.915 15.4121L261.92 7.44977H264.689L266.38 11.903L268.183 7.44977H271ZM257.32 22.8528L257.187 22.8447V7.44977H259.714V23.0431C258.923 22.9493 258.102 22.8998 257.32 22.8528ZM253.836 19.9747C252.777 19.9075 251.702 19.8393 250.635 19.8153V7.44977H248.058V22.3149C250.409 22.3645 252.711 22.5133 255.014 22.663V20.0471C254.624 20.0246 254.231 19.9997 253.836 19.9747Z" fill="#9B99AF"/>
<g clip-path="url(#clip0)">
<path fill-rule="evenodd" clip-rule="evenodd" d="M85.4195 59.3588C82.9354 59.3588 81.0096 61.0639 80.2261 63.868C79.0299 61.9732 78.1258 59.6982 77.5959 57.7814H74.9215V65.1318C74.9215 66.5801 73.803 67.7617 72.4313 67.7617C71.0606 67.7617 69.9421 66.5801 69.9421 65.1318V57.7818H67.2676V65.1318C67.2574 68.142 69.5773 70.6132 72.4262 70.6132C75.276 70.6132 77.5959 68.142 77.5959 65.1318V63.8994C78.1161 65.0449 78.7526 66.2003 79.5263 67.2279L77.8862 75.3642H80.6239L81.8108 69.4621C82.8512 70.1658 84.0474 70.6076 85.4191 70.6076C88.3503 70.6076 90.7391 68.0706 90.7391 64.9726C90.7391 61.8803 88.3508 59.3583 85.4191 59.3583L85.4195 59.3588ZM85.4195 67.772C84.3401 67.772 83.3286 67.289 82.4101 66.5031L82.6339 65.3942L82.6437 65.3529C82.8419 64.1712 83.4747 62.1887 85.4195 62.1887C86.8777 62.1887 88.0656 63.4417 88.0656 64.9825C88.06 66.5186 86.874 67.772 85.4195 67.772Z" fill="#9B99AF"/>
<path fill-rule="evenodd" clip-rule="evenodd" d="M129.675 64.5719C131.294 63.6067 132.393 61.7725 132.393 59.6717H130.112C130.112 61.4434 128.751 62.8819 127.074 62.8819H126.767V54.5498H124.487V70.2942H126.767V65.2921H127.04C127.263 65.2921 127.555 65.4461 127.686 65.6357L130.925 70.2952H133.658L129.675 64.571L129.675 64.5719H129.675ZM122.021 62.0547C120.5 62.0547 119.269 63.3593 119.269 64.9625V70.2942H116.988V59.6773H119.269V61.3106C119.269 61.3106 120.242 59.6717 122.24 59.6717H122.94V62.0556H122.021V62.0551V62.0547ZM110.219 68.2962C108.489 68.2962 107.088 66.8169 107.088 64.9883C107.088 63.1593 108.494 61.6796 110.219 61.6796C111.951 61.6796 113.351 63.1593 113.351 64.9883C113.351 66.8117 111.951 68.2962 110.22 68.2962H110.219ZM110.219 59.359C107.278 59.359 104.895 61.88 104.895 64.9827C104.895 68.0906 107.282 70.6073 110.22 70.6073C113.161 70.6073 115.549 68.0915 115.549 64.9827C115.549 61.8758 113.161 59.359 110.22 59.359H110.219ZM98.9042 59.6768L100.63 67.0272L102.531 59.6768H104.797L101.875 70.2994H99.6091L97.815 62.902L96.0255 70.2942H93.7596L90.8367 59.6707H93.1031L95.0038 67.0211L96.7304 59.6712H98.9037V59.6768H98.9042Z" fill="#9B99AF"/>
</g>
<path fill-rule="evenodd" clip-rule="evenodd" d="M103.9 2.51624C96.7776 2.51624 91.0037 8.4313 91.0037 15.7278C91.0037 23.025 96.7776 28.9397 103.9 28.9397C111.022 28.9397 116.796 23.025 116.796 15.7278C116.796 8.43177 111.023 2.51687 103.9 2.51687L103.9 2.51624ZM109.813 21.5711C109.582 21.9603 109.087 22.0823 108.708 21.8451C105.68 19.949 101.868 19.5206 97.3791 20.5712C96.9465 20.6728 96.5153 20.395 96.4168 19.952C96.3177 19.5088 96.5877 19.0671 97.0213 18.9661C101.934 17.8155 106.148 18.3108 109.547 20.4387C109.926 20.6769 110.046 21.1833 109.813 21.5714L109.813 21.5711ZM110.01 18.3135C110.482 18.6112 111.101 18.4591 111.393 17.9743L111.393 17.9745C111.684 17.4908 111.534 16.8566 111.062 16.5584C107.081 14.0523 101.258 13.3471 96.5749 14.8029C96.044 14.9686 95.7442 15.5428 95.9044 16.0876C96.0657 16.6314 96.6274 16.9384 97.1591 16.7739C101.259 15.4988 106.544 16.131 110.01 18.3135ZM111.527 14.2285C107.37 11.6994 100.513 11.4668 96.545 12.7007C95.9077 12.8987 95.2338 12.5302 95.0407 11.8773C94.8476 11.2242 95.207 10.5343 95.8447 10.3358C100.4 8.9191 107.973 9.19281 112.758 12.1031C113.331 12.4516 113.519 13.21 113.18 13.7964C112.841 14.3836 112.099 14.5772 111.527 14.2285H111.527ZM123.466 12.9851C123.466 13.7873 123.863 14.1691 126.089 14.7131L126.094 14.7151C128.806 15.391 129.913 16.4401 129.909 18.3349C129.909 20.5794 128.234 22.0296 125.644 22.0296C123.812 22.0296 122.115 21.363 120.736 20.101C120.676 20.0477 120.67 19.9556 120.721 19.8939L121.94 18.4076C121.965 18.3768 122.001 18.3582 122.04 18.3549C122.077 18.3527 122.118 18.3645 122.147 18.3905C123.333 19.4427 124.393 19.8912 125.693 19.8912C126.863 19.8912 127.59 19.3725 127.59 18.5381C127.59 17.7851 127.231 17.3638 125.1 16.861C122.597 16.2412 121.148 15.4381 121.148 13.1703C121.148 11.0554 122.827 9.57734 125.232 9.57734C126.867 9.57734 128.266 10.0738 129.508 11.095C129.568 11.1444 129.58 11.2336 129.536 11.2982L128.448 12.8683C128.426 12.9013 128.391 12.9232 128.352 12.9292C128.313 12.9355 128.274 12.9259 128.242 12.9018C127.198 12.1044 126.203 11.7171 125.199 11.7171C124.163 11.7171 123.466 12.2272 123.466 12.9851ZM135.77 12.4633C134.647 12.4633 133.726 12.9164 132.966 13.8448V12.7998C132.966 12.7173 132.901 12.6501 132.82 12.6501H130.827C130.746 12.6501 130.681 12.7173 130.681 12.7998V24.4116C130.681 24.4941 130.746 24.5613 130.827 24.5613H132.82C132.901 24.5613 132.966 24.4941 132.966 24.4116V20.7462C133.726 21.6196 134.647 22.0464 135.77 22.0464C137.856 22.0464 139.968 20.4009 139.968 17.2554C139.971 14.1091 137.859 12.4631 135.772 12.4631L135.77 12.4633ZM135.308 19.975C136.687 19.975 137.65 18.8573 137.65 17.2555L137.65 17.2553C137.65 15.6793 136.664 14.5358 135.308 14.5359C133.944 14.5359 132.916 15.7047 132.916 17.2555C132.916 18.8065 133.944 19.975 135.308 19.975ZM145.383 12.4633C142.696 12.4633 140.59 14.5831 140.59 17.2897C140.59 19.9668 142.681 22.0643 145.35 22.0643C148.046 22.0643 150.158 19.9516 150.158 17.2554C150.158 14.5685 148.06 12.4636 145.382 12.4636L145.383 12.4633ZM142.876 17.2546C142.876 18.8144 143.953 19.9908 145.382 19.9908H145.383C146.826 19.9908 147.873 18.8549 147.873 17.2888C147.873 15.7279 146.788 14.5514 145.35 14.5514C143.916 14.5514 142.876 15.6881 142.876 17.2546ZM155.896 12.6503H153.702V10.3522C153.702 10.2699 153.637 10.2027 153.557 10.2027H151.563C151.483 10.2027 151.417 10.2699 151.417 10.3522V12.6503H150.459C150.378 12.6503 150.313 12.7175 150.313 12.8V14.5554C150.313 14.6378 150.378 14.7051 150.459 14.7051H151.417V19.2473C151.417 21.0829 152.309 22.0136 154.068 22.0136C154.783 22.0136 155.376 21.8623 155.936 21.5374C155.981 21.5114 156.009 21.4612 156.009 21.4079V19.7362C156.009 19.6847 155.983 19.6359 155.94 19.6089C155.896 19.581 155.842 19.5796 155.798 19.6021C155.414 19.8001 155.043 19.8915 154.628 19.8915C153.988 19.8915 153.702 19.5939 153.702 18.9271V14.7059H155.896C155.977 14.7059 156.042 14.6387 156.042 14.5562V12.8009C156.045 12.7184 155.98 12.6512 155.899 12.6512L155.896 12.6503ZM163.54 12.3767V12.659L163.54 12.6594H166.946C167.007 12.6594 167.061 12.6978 167.082 12.7557L169.411 18.9817L171.537 12.7598C171.558 12.7 171.613 12.6594 171.676 12.6594H173.751C173.799 12.6594 173.844 12.6839 173.871 12.7244C173.899 12.7653 173.904 12.8174 173.887 12.8634L170.428 22.0201C169.71 23.9101 168.897 24.6126 167.424 24.6126C166.637 24.6126 166 24.4456 165.295 24.0541C165.228 24.0169 165.2 23.9327 165.232 23.8609L165.908 22.3421C165.924 22.3042 165.956 22.2752 165.994 22.2615C166.032 22.2493 166.075 22.2526 166.11 22.2727C166.488 22.4847 166.858 22.5921 167.21 22.5921C167.644 22.5921 167.963 22.4457 168.286 21.7098L165.435 14.7053H163.573V21.711C163.573 21.7935 163.508 21.8607 163.427 21.8607H161.433C161.353 21.8607 161.288 21.7935 161.288 21.711V14.7048H160.33C160.25 14.7048 160.184 14.6375 160.184 14.5551V12.7907C160.184 12.7083 160.25 12.6411 160.33 12.6411H161.288V12.2089C161.288 10.2 162.261 9.13765 164.103 9.13765C164.859 9.13765 165.365 9.26118 165.76 9.38156C165.822 9.40097 165.863 9.45918 165.863 9.52497V11.2462C165.863 11.2941 165.841 11.3394 165.803 11.3677C165.765 11.3959 165.717 11.4033 165.671 11.3885C165.297 11.2607 164.964 11.1761 164.548 11.1761C163.851 11.1761 163.54 11.5464 163.54 12.3767ZM159.108 12.6501H157.114C157.034 12.6501 156.968 12.7173 156.968 12.7998V21.7112C156.968 21.7937 157.034 21.8609 157.114 21.8609H159.108C159.188 21.8609 159.254 21.7937 159.254 21.7112V12.8005C159.254 12.7607 159.239 12.7225 159.211 12.6944C159.184 12.6663 159.147 12.6506 159.108 12.6507L159.108 12.6501ZM156.692 10.0567C156.692 9.24756 157.333 8.59253 158.123 8.59253H158.123C158.912 8.59253 159.553 9.24773 159.553 10.0567C159.553 10.8664 158.912 11.5222 158.123 11.5222C157.333 11.5222 156.692 10.8664 156.692 10.0567ZM175.589 15.5154C174.8 15.5153 174.187 14.8662 174.187 14.0779C174.187 13.2895 174.809 12.6329 175.597 12.6329C176.386 12.6329 177 13.2819 177 14.0697C177 14.858 176.378 15.5154 175.589 15.5154ZM174.335 14.0775C174.335 13.3608 174.879 12.7755 175.597 12.7755H175.598C176.313 12.7755 176.853 13.3529 176.853 14.0693C176.853 14.7865 176.309 15.3714 175.59 15.3714C174.875 15.3714 174.335 14.7939 174.335 14.0775ZM175.908 14.2173L176.305 14.7865H175.971L175.613 14.2643H175.306V14.7865H175.026V13.2776H175.683C176.025 13.2776 176.25 13.457 176.25 13.759C176.251 14.0063 176.111 14.1575 175.91 14.2173L175.908 14.2173ZM175.306 13.5365H175.671L175.671 13.5365C175.853 13.5365 175.962 13.6196 175.962 13.7748C175.962 13.9223 175.853 14.0137 175.671 14.0137H175.306V13.5365Z" fill="#9B99AF"/>
<path d="M182.177 75C191.989 75 197.354 66.9214 197.354 59.9162C197.354 59.6865 197.35 59.4585 197.339 59.2309C198.378 58.4863 199.278 57.5567 200 56.4858C199.023 56.9156 197.992 57.1968 196.937 57.3201C198.038 56.664 198.884 55.6257 199.283 54.3882C198.231 55.0074 197.086 55.4423 195.895 55.6746C194.921 54.6441 193.536 54 192.002 54C189.056 54 186.667 56.3746 186.667 59.3005C186.667 59.7165 186.714 60.1215 186.805 60.5092C182.372 60.2876 178.44 58.1784 175.809 54.9704C175.337 55.7738 175.087 56.6953 175.087 57.6348C175.087 59.4744 176.029 61.0983 177.461 62.0482C176.617 62.0232 175.789 61.7961 175.045 61.3847C175.044 61.4071 175.044 61.429 175.044 61.4526C175.044 64.0199 176.883 66.1635 179.324 66.6496C178.537 66.8617 177.715 66.893 176.915 66.7402C177.594 68.8463 179.563 70.3797 181.898 70.4222C180.072 71.8444 177.772 72.6916 175.273 72.6916C174.842 72.6916 174.417 72.6671 174 72.6181C176.361 74.1223 179.164 75 182.177 75Z" fill="#9B99AF"/>
<path fill-rule="evenodd" clip-rule="evenodd" d="M14.9092 30.0765V21.3957H17.2142V30.0765H14.9092ZM25.4069 23.4984C25.3741 23.4888 24.4325 23.2363 23.6586 23.2363C22.7625 23.2363 22.2751 23.5274 22.2751 23.9404C22.2751 24.4641 22.9332 24.647 23.3008 24.76L23.9174 24.9507C25.3692 25.3986 26.0299 26.3629 26.0299 27.4103C26.0299 29.5704 24.0732 30.2969 22.361 30.2969C21.1718 30.2969 20.0577 30.0838 19.9478 30.0617V28.082C20.1451 28.1302 21.0822 28.4018 22.06 28.4018C23.1723 28.4018 23.684 28.0864 23.684 27.5995C23.684 27.1634 23.2406 26.9116 22.6863 26.7434C22.5515 26.6985 22.3476 26.6363 22.2086 26.5933C20.9638 26.2109 19.9251 25.4998 19.9251 24.0773C19.9251 22.4686 21.1662 21.3891 23.2279 21.3891C24.3163 21.3891 25.3404 21.6456 25.4066 21.6626V23.498L25.4069 23.4984ZM46.6748 25.8424C46.6748 28.3032 44.7184 30.2962 41.9926 30.2962C39.2668 30.2962 37.3126 28.3032 37.3126 25.8417C37.3126 23.3861 39.2675 21.3909 41.9926 21.3909C44.718 21.3909 46.6748 23.3861 46.6748 25.8424ZM41.9926 23.5812C40.6659 23.5812 39.6802 24.5944 39.6802 25.8424C39.6802 27.0942 40.6659 28.1055 41.9926 28.1055C43.3174 28.1055 44.3057 27.0942 44.3057 25.8424C44.3057 24.5944 43.3174 23.5812 41.9926 23.5812ZM11.6165 24.0081C11.5265 23.9625 10.8079 23.5495 9.73783 23.5495C8.29014 23.5495 7.2873 24.5256 7.2873 25.8428C7.2873 27.1207 8.24831 28.1379 9.73895 28.1379C10.7896 28.1379 11.5206 27.7327 11.6165 27.6819V29.9899C11.339 30.0661 10.5756 30.2962 9.57685 30.2962C7.06469 30.2962 4.8588 28.6135 4.8588 25.8417C4.8588 23.275 6.8559 21.3909 9.5776 21.3909C10.6298 21.3909 11.4063 21.6383 11.6165 21.6994V24.0081ZM34.9577 24.0081C34.8662 23.9625 34.1461 23.5495 33.0775 23.5495C31.6306 23.5495 30.6281 24.5256 30.6281 25.8428C30.6281 27.1207 31.5872 28.1379 33.0768 28.1379C34.1278 28.1379 34.8595 27.7327 34.9577 27.6819V29.9899C34.6776 30.0661 33.9127 30.2962 32.9203 30.2962C30.4047 30.2962 28.197 28.6135 28.197 25.8417C28.197 23.275 30.1948 21.3909 32.9203 21.3909C33.9687 21.3909 34.7463 21.6383 34.9577 21.6994V24.0081Z" fill="#9B99AF"/>
<path fill-rule="evenodd" clip-rule="evenodd" d="M51 9.65727C50.9989 9.06214 50.5025 8.58037 49.8922 8.5811C49.2812 8.58037 48.7851 9.06214 48.784 9.65764V11.9149C48.7739 12.3061 48.9831 12.6719 49.3297 12.8699C49.6767 13.0687 50.1066 13.0687 50.4539 12.8699C50.8009 12.6712 51.0093 12.3054 50.9993 11.9149V9.65727H51ZM44.9104 6.69488C44.9104 6.10196 44.4159 5.61908 43.7899 5.61908C43.18 5.61798 42.6848 6.09901 42.6836 6.6934V6.69414V11.9152C42.6836 12.5096 43.1778 12.9914 43.7877 12.9914H43.7899C44.4152 12.9914 44.9104 12.5104 44.9104 11.9145V6.69304V6.69451V6.69488ZM38.8093 2.64086C38.8086 2.0461 38.3133 1.5647 37.7034 1.56543H37.7026C37.0927 1.56433 36.5971 2.04536 36.596 2.64012V2.64049V14.0595C36.5773 14.4555 36.7838 14.8298 37.1338 15.0322C37.4845 15.235 37.9211 15.2343 38.2711 15.0304C38.62 14.8283 38.8269 14.4555 38.8089 14.0602V2.64086H38.8093ZM32.7067 6.69488C32.7059 6.10048 32.2103 5.61908 31.6008 5.61981C30.9905 5.61871 30.4952 6.10011 30.4937 6.69451V6.69488V11.9149C30.4948 12.5092 30.9901 12.9907 31.6004 12.9895H31.6008C32.2103 12.9907 32.7059 12.5092 32.7067 11.9149V6.6934V6.69488ZM26.6063 9.65727C26.6048 9.06398 26.1107 8.58405 25.5019 8.58478C24.8927 8.58331 24.3971 9.06251 24.3933 9.65653V11.9152C24.3941 12.5096 24.8893 12.991 25.4996 12.9899C26.1096 12.9914 26.6052 12.51 26.6063 11.9156V11.9152V9.65764V9.65727ZM20.5156 6.69488C20.5145 6.09791 20.0174 5.6154 19.4052 5.61614C18.7931 5.6154 18.2955 6.09791 18.2948 6.69488V11.9149C18.2955 12.5111 18.7927 12.9936 19.4045 12.9929H19.4048C20.0166 12.994 20.5134 12.5115 20.5149 11.9152V11.9149V6.6934V6.69488H20.5156ZM14.4167 2.64086C14.4167 2.04831 13.9181 1.56691 13.3067 1.56691C12.6945 1.56691 12.1959 2.0472 12.1959 2.64086V14.0595C12.197 14.6561 12.6942 15.1389 13.3063 15.1378C13.9185 15.1389 14.4156 14.6561 14.4167 14.0595V2.64086ZM8.31898 6.69488C8.31786 6.09791 7.82073 5.6154 7.20819 5.61614C6.59602 5.6154 6.09889 6.09791 6.09777 6.69488V11.9149C6.09889 12.5111 6.59565 12.9936 7.20744 12.9929H7.20781C7.81998 12.994 8.31674 12.5115 8.31823 11.9152V11.9149V6.6934V6.69488H8.31898ZM2.22046 9.65764C2.22046 9.06545 1.72184 8.58442 1.11042 8.58442C0.498997 8.58442 0 9.06545 0 9.6569V11.9145C0.0011205 12.5111 0.49825 12.994 1.11042 12.9929C1.72221 12.994 2.21971 12.5115 2.22083 11.9149V9.65727L2.22046 9.65764Z" fill="#9B99AF"/>
<defs>
<clipPath id="clip0">
<rect width="67" height="21.1259" fill="white" transform="translate(67 54.3741)"/>
</clipPath>
</defs>
</svg>
