<svg width="46" height="22" viewBox="0 0 46 22" fill="none" xmlns="http://www.w3.org/2000/svg">
<path d="M18.3418 14.0154C15.1393 17.443 12.6438 18.1775 11.1049 18.1775C7.02897 18.1775 3.70166 14.9132 3.70166 10.9143C3.70166 6.91553 7.02897 3.65117 11.1049 3.65117C12.6438 3.65117 15.1393 4.38563 18.3418 7.81318C19.2568 8.79249 20.0886 9.81263 20.8373 10.9143C20.0886 12.0161 19.2568 13.0361 18.3418 14.0154ZM34.8952 18.1775C33.3563 18.1775 30.8608 17.443 27.6583 14.0154C26.7433 13.0361 25.9114 12.0161 25.1628 10.9143C25.9114 9.81263 26.7433 8.79249 27.6583 7.81318C30.8608 4.38563 33.3563 3.65117 34.8952 3.65117C38.9711 3.65117 42.2984 6.91553 42.2984 10.9143C42.2984 14.9132 39.0127 18.1775 34.8952 18.1775Z" fill="#F44862"/>
<path d="M34.8951 0.019577C29.7378 0.019577 25.4539 4.42647 23 7.65C20.5461 4.42647 16.2622 0.019577 11.1049 0.019577C4.94937 0.019577 0 4.91612 0 10.9143C0 16.9534 4.99096 21.8091 11.1049 21.8091C16.2622 21.8091 20.5461 17.4022 23 14.1787C25.4539 17.4022 29.7378 21.8091 34.8951 21.8091C41.0506 21.8091 46 16.9126 46 10.9143C46 4.87531 41.0506 0.019577 34.8951 0.019577ZM18.3418 14.0154C15.1392 17.443 12.6438 18.1775 11.1049 18.1775C7.02894 18.1775 3.70162 14.9132 3.70162 10.9143C3.70162 6.91553 7.02894 3.65117 11.1049 3.65117C12.6438 3.65117 15.1392 4.38562 18.3418 7.81318C19.2568 8.79248 20.0886 9.81263 20.8373 10.9143C20.0886 12.0161 19.2568 13.0361 18.3418 14.0154ZM34.8951 18.1775C33.3562 18.1775 30.8608 17.443 27.6582 14.0154C26.7432 13.0361 25.9114 12.0161 25.1627 10.9143C25.9114 9.81263 26.7432 8.79248 27.6582 7.81318C30.8608 4.38562 33.3562 3.65117 34.8951 3.65117C38.9711 3.65117 42.2984 6.91553 42.2984 10.9143C42.2984 14.9132 39.0127 18.1775 34.8951 18.1775Z" fill="#213548"/>
</svg>
