<svg width="29" height="40" viewBox="0 0 29 40" fill="none" xmlns="http://www.w3.org/2000/svg">
<g clip-path="url(#clip0)">
<path d="M14.2117 40C17.09 40 19.4234 39.5228 19.4234 38.9342C19.4234 38.3455 17.09 37.8683 14.2117 37.8683C11.3334 37.8683 9 38.3455 9 38.9342C9 39.5228 11.3334 40 14.2117 40Z" fill="#B0C1D1"/>
<path d="M14.2118 0C6.38378 0 0 6.39496 0 14.1902C0 24.4932 14.2118 38.9133 14.2118 38.9133C14.2118 38.9133 28.4235 24.5977 28.4235 14.1902C28.57 6.39496 22.1653 0 14.2118 0Z" fill="#213548"/>
<path d="M14.2221 24C19.6222 24 23.9999 19.6223 23.9999 14.2222C23.9999 8.82209 19.6222 4.44444 14.2221 4.44444C8.82201 4.44444 4.44434 8.82209 4.44434 14.2222C4.44434 19.6223 8.82201 24 14.2221 24Z" fill="#F44862"/>
<path d="M7.10669 16.2975V15.3861L9.1814 12.4444H10.3432V15.3032H10.9242V16.2975H10.3432V17.1262H9.2644V16.2975H7.10669ZM9.34739 13.6874L8.18556 15.2618H9.34739V13.6874Z" fill="white"/>
<path d="M11.6296 14.7646C11.6296 14.0188 11.7956 13.5216 12.0446 13.1073C12.2935 12.693 12.7915 12.4444 13.4554 12.4444C14.1193 12.4444 14.5342 12.693 14.8662 13.1073C15.1981 13.5216 15.2811 14.1017 15.2811 14.7646C15.2811 15.5103 15.1151 16.0075 14.8662 16.4218C14.5342 16.8361 14.1193 17.0848 13.4554 17.0848C12.7915 17.0848 12.3765 16.8361 12.0446 16.4218C11.7956 16.049 11.6296 15.4689 11.6296 14.7646ZM14.2023 14.7646C14.2023 14.3503 14.1193 14.0188 14.0363 13.8531C13.9533 13.6045 13.7873 13.5216 13.4554 13.5216C13.2064 13.5216 12.9575 13.6045 12.8745 13.8531C12.7915 14.1017 12.7085 14.3503 12.7085 14.7646C12.7085 15.1789 12.7915 15.5104 12.8745 15.6761C12.9575 15.9247 13.2064 16.0075 13.4554 16.0075C13.7043 16.0075 13.9533 15.9247 14.0363 15.6761C14.1193 15.4689 14.2023 15.2203 14.2023 14.7646Z" fill="white"/>
<path d="M19.5556 12.4444H18.6667V16.8889H19.5556V12.4444Z" fill="white"/>
<path d="M16.8889 14.2222V15.1111H21.3334V14.2222H16.8889Z" fill="white"/>
</g>
<defs>
<clipPath id="clip0">
<rect width="28.4444" height="40" fill="white"/>
</clipPath>
</defs>
</svg>
