<svg width="36" height="36" viewBox="0 0 36 36" fill="none" xmlns="http://www.w3.org/2000/svg">
<path d="M18 36C27.9411 36 36 27.9411 36 18C36 8.05887 27.9411 0 18 0C8.05887 0 0 8.05887 0 18C0 27.9411 8.05887 36 18 36Z" fill="#213548"/>
<path d="M18 18.495V0C19.485 0 20.97 0.179978 22.41 0.539978C23.805 0.899978 25.155 1.39498 26.415 2.11498C28.935 3.46498 31.095 5.35499 32.715 7.69499L18 18.495Z" fill="#F44862"/>
<path d="M18.0001 21.15C19.7398 21.15 21.1501 19.7397 21.1501 18C21.1501 16.2603 19.7398 14.85 18.0001 14.85C16.2604 14.85 14.8501 16.2603 14.8501 18C14.8501 19.7397 16.2604 21.15 18.0001 21.15Z" fill="#E0F6FF"/>
<path d="M3.15005 18.9C3.89563 18.9 4.50005 18.2956 4.50005 17.55C4.50005 16.8044 3.89563 16.2 3.15005 16.2C2.40446 16.2 1.80005 16.8044 1.80005 17.55C1.80005 18.2956 2.40446 18.9 3.15005 18.9Z" fill="#F44862"/>
<path d="M32.85 18.9C33.5956 18.9 34.2 18.2956 34.2 17.55C34.2 16.8044 33.5956 16.2 32.85 16.2C32.1044 16.2 31.5 16.8044 31.5 17.55C31.5 18.2956 32.1044 18.9 32.85 18.9Z" fill="#F44862"/>
<path d="M18.0001 34.2C18.7457 34.2 19.3501 33.5956 19.3501 32.85C19.3501 32.1044 18.7457 31.5 18.0001 31.5C17.2546 31.5 16.6501 32.1044 16.6501 32.85C16.6501 33.5956 17.2546 34.2 18.0001 34.2Z" fill="#F44862"/>
<path d="M4.90518 26.37C5.65076 26.37 6.25518 25.7656 6.25518 25.02C6.25518 24.2745 5.65076 23.67 4.90518 23.67C4.15959 23.67 3.55518 24.2745 3.55518 25.02C3.55518 25.7656 4.15959 26.37 4.90518 26.37Z" fill="#F44862"/>
<path d="M10.5751 6.48001C11.3207 6.48001 11.9251 5.8756 11.9251 5.13001C11.9251 4.38443 11.3207 3.78001 10.5751 3.78001C9.82951 3.78001 9.2251 4.38443 9.2251 5.13001C9.2251 5.8756 9.82951 6.48001 10.5751 6.48001Z" fill="#F44862"/>
<path d="M25.425 32.22C26.1705 32.22 26.775 31.6156 26.775 30.87C26.775 30.1245 26.1705 29.5201 25.425 29.5201C24.6794 29.5201 24.075 30.1245 24.075 30.87C24.075 31.6156 24.6794 32.22 25.425 32.22Z" fill="#F44862"/>
<path d="M10.1701 31.995C10.9157 31.995 11.5201 31.3906 11.5201 30.645C11.5201 29.8995 10.9157 29.295 10.1701 29.295C9.42448 29.295 8.82007 29.8995 8.82007 30.645C8.82007 31.3906 9.42448 31.995 10.1701 31.995Z" fill="#F44862"/>
<path d="M5.13003 11.925C5.87561 11.925 6.48003 11.3206 6.48003 10.575C6.48003 9.82942 5.87561 9.22501 5.13003 9.22501C4.38444 9.22501 3.78003 9.82942 3.78003 10.575C3.78003 11.3206 4.38444 11.925 5.13003 11.925Z" fill="#F44862"/>
<path d="M30.87 26.775C31.6156 26.775 32.22 26.1706 32.22 25.425C32.22 24.6794 31.6156 24.075 30.87 24.075C30.1244 24.075 29.52 24.6794 29.52 25.425C29.52 26.1706 30.1244 26.775 30.87 26.775Z" fill="#F44862"/>
</svg>
