<svg id="trustradius-logo" xmlns="http://www.w3.org/2000/svg" xmlns:xlink="http://www.w3.org/1999/xlink" viewBox="0 0 494 84"><defs><linearGradient id="linear-gradient" x1="259.37" y1="111.04" x2="260.37" y2="111.04" gradientTransform="translate(-1759.77 21871) rotate(-90) scale(84 16.28)" gradientUnits="userSpaceOnUse"><stop offset="0.71" stop-color="#116bf2"></stop><stop offset="1" stop-color="#1e50e5"></stop></linearGradient><linearGradient id="linear-gradient-2" x1="259.37" y1="111.04" x2="260.37" y2="111.04" gradientTransform="translate(-1735.77 21871.02) rotate(-90) scale(84 16.28)" xlink:href="#linear-gradient"></linearGradient><linearGradient id="linear-gradient-3" x1="257.35" y1="130.68" x2="258.35" y2="130.68" gradientTransform="translate(-3809.59 -16134.91) rotate(45) scale(55.15 66.43)" gradientUnits="userSpaceOnUse"><stop offset="0.41" stop-color="#116bf2"></stop><stop offset="1" stop-color="#185dec"></stop></linearGradient><linearGradient id="linear-gradient-4" x1="259" y1="122.42" x2="260" y2="122.42" gradientTransform="translate(-6849.13 13852.56) rotate(-90) scale(53.28 56.7)" gradientUnits="userSpaceOnUse"><stop offset="0.58" stop-color="#116bf2"></stop><stop offset="1" stop-color="#1e50e5"></stop></linearGradient><linearGradient id="linear-gradient-5" x1="269.79" y1="134.03" x2="270.79" y2="134.03" gradientTransform="translate(6499.5 -2173) rotate(135) scale(22.63)" gradientUnits="userSpaceOnUse"><stop offset="0.03" stop-color="#59c5ff"></stop><stop offset="0.99" stop-color="#21b1ff"></stop></linearGradient><linearGradient id="linear-gradient-6" x1="253.54" y1="137.44" x2="254.54" y2="137.44" gradientTransform="translate(-1780 -6253) rotate(45) scale(22.63)" gradientUnits="userSpaceOnUse"><stop offset="0.04" stop-color="#59c5ff"></stop><stop offset="0.99" stop-color="#21b1ff"></stop></linearGradient><linearGradient id="linear-gradient-7" x1="268.62" y1="114.64" x2="269.62" y2="114.64" gradientTransform="translate(1961 4644.47) rotate(-135) scale(16.97)" gradientUnits="userSpaceOnUse"><stop offset="0.04" stop-color="#57c4ff"></stop><stop offset="0.99" stop-color="#21b1ff"></stop></linearGradient></defs><title>trustradius-logo</title><g id="logo"><path d="M40,.35a3.15,3.15,0,0,1,.88.61L55.11,15.2A3,3,0,0,1,56,17.32V82.91a1,1,0,0,1-1,1,1.08,1.08,0,0,1-.7-.29L40.87,70.21A3,3,0,0,1,40,68.09Z" fill="url(#linear-gradient)"></path><path d="M79.13,1A2.92,2.92,0,0,1,80,.35V68.08a3,3,0,0,1-.88,2.13L65.7,83.62a1,1,0,0,1-1.41,0,1,1,0,0,1-.29-.68V17.3a3,3,0,0,1,.87-2.08h0L79.11,1Z" fill="url(#linear-gradient-2)"></path><path d="M105,53.08l-1-1v-14H90.41a1,1,0,0,0-.7.29h0L80,48.08,111.11,79.2h0a3,3,0,0,0,2.11.86h16.34a1,1,0,0,0,1-1,1.08,1.08,0,0,0-.29-.7Z" fill="url(#linear-gradient-3)"></path><path d="M81.24.08A3,3,0,0,0,79.13,1h0L64.87,15.2h0a3,3,0,0,0-.6.86H104v36l1,1L119.11,39a3,3,0,0,0,.88-2.12V17.33a3,3,0,0,0-.88-2.12L104.87,1a3,3,0,0,0-2.12-.88Z" fill="url(#linear-gradient-4)"></path><path d="M40.87,1A3,3,0,0,0,38.75.08H1.41a1,1,0,0,0-1,1,1,1,0,0,0,.3.72L14.11,15.2a3,3,0,0,0,2.12.88H54a2,2,0,0,1,2,2v-.75a3,3,0,0,0-.88-2.12Z" fill="url(#linear-gradient-5)"></path><path d="M79.11,1A3,3,0,0,1,81.24.08h21.51a3,3,0,0,1,2.12.88L119.11,15.2a3,3,0,0,1,.88,2.13v.75a2,2,0,0,0-2-2H66a2,2,0,0,0-2,2v-.75a3,3,0,0,1,.88-2.12Z" fill="url(#linear-gradient-6)"></path><path d="M120,36.08a2,2,0,0,1-2,2H91.2a.5.5,0,0,0-.35.86L105,53.08,119.12,39a3,3,0,0,0,.88-2.12Z" fill="url(#linear-gradient-7)"></path></g><g id="wordmark"><path d="M259.83,42c-5.67-1.4-7.19-2.52-7.19-4.51s1.78-3.31,5.48-3.31a26.1,26.1,0,0,1,11.68,3.18L271,30.1a32.34,32.34,0,0,0-12.81-2.52c-8.51,0-13.53,4.38-13.53,10.48,0,6.56,3.7,9.08,12.61,11.26,6.2,1.46,7.92,2.46,7.92,5.11,0,2.38-2.38,3.84-6.54,3.84a26,26,0,0,1-13.4-4.19L244,61.39a33.7,33.7,0,0,0,14.35,3.44c9.65,0,14.81-4.17,14.81-11.2C273.16,46.87,269.27,44.35,259.83,42Z" fill="#007bff"></path><path d="M335.86,30.63c0-9.24-6.67-14.5-17.69-14.5H303v48h9V45.58h4.35l13.47,19,9.47-1.75L325.5,44C331.77,42,335.86,37.63,335.86,30.63ZM317,38.83H311.9V23.58h5.61c6.14,0,9.37,2.69,9.37,7.5C326.88,36.08,323.12,38.83,317,38.83Z" fill="#007bff"></path><path d="M231.25,52.53c-2.84,2.78-5.9,4.62-9,4.62-3.56,0-5-2.17-5-5.34V28.08H208.5v26c0,6.66,3.7,10.69,10.76,10.69,5,0,9-2.56,12.49-5.73L233,64l7,0v-36h-8.75Z" fill="#007bff"></path><path d="M298.49,35.08l-1.5-7h-7.62V15.58l-8.52,1.51v11H275v7h5.86v19c0,8,4.76,10.56,11.88,10.56a24.06,24.06,0,0,0,5.74-.57l-1.06-7.19a14.64,14.64,0,0,1-3.1.26c-3.57,0-4.95-1.58-4.95-4.48V35.08Z" fill="#007bff"></path><path d="M191.17,35.58l-1.68-7.49H183v36h8.5V43.58a16.82,16.82,0,0,1,13-7.5l-2-8.5C197,28.58,193.68,31.48,191.17,35.58Z" fill="#007bff"></path><path d="M451.25,52.53c-2.84,2.78-5.9,4.62-9,4.62-3.56,0-5-2.17-5-5.34V28.08H428.5v26c0,6.66,3.7,10.69,10.76,10.69,4.95,0,9-2.56,12.49-5.73L453,64l7,0v-36h-8.75Z" fill="#007bff"></path><circle cx="419" cy="17.34" r="5" fill="#007bff"></circle><path d="M480.26,42c-5.67-1.4-7.19-2.52-7.19-4.51s1.78-3.31,5.48-3.31a26.1,26.1,0,0,1,11.68,3.18l1.19-7.23a32.34,32.34,0,0,0-12.81-2.52c-8.51,0-13.53,4.38-13.53,10.48,0,6.56,3.7,9.08,12.61,11.26,6.2,1.46,7.92,2.46,7.92,5.11,0,2.38-2.38,3.84-6.54,3.84a26.56,26.56,0,0,1-13.53-4.17l-1.12,7.29a33.57,33.57,0,0,0,14.32,3.44c9.64,0,14.85-4.17,14.85-11.2C493.59,46.87,489.7,44.35,480.26,42Z" fill="#007bff"></path><rect x="414.67" y="28.08" width="8.65" height="36" fill="#007bff"></rect><path d="M400.85,29.43a27,27,0,0,0-8.77-1.38c-8.72,0-16.44,5.94-16.44,19.2,0,12,6.34,17.56,14.19,17.56,5.22,0,8.85-2.64,11.55-5.68l.76,4.95h7.36V10.58l-8.65,1.5Zm0,22.64c-2.57,3.1-5.34,5.08-8.91,5.08-4.35,0-7.59-3.36-7.59-10.42,0-7.92,3.77-11.75,8.91-11.75a16.57,16.57,0,0,1,7.59,1.58Z" fill="#007bff"></path><path d="M357.87,27.72a37.94,37.94,0,0,0-14.65,2.9l1.06,6.87a33,33,0,0,1,12.54-2.84c4.15,0,6.6,1.45,6.6,5.34v1.13c-15.32,1.45-22.71,5.14-22.71,13.79,0,6.2,4.29,9.9,10.69,9.9a17.42,17.42,0,0,0,12.54-5.35l.8,4.62H372V39.6C372,31.15,367.38,27.72,357.87,27.72Zm5.55,26.53a14,14,0,0,1-9.24,4c-3,0-4.89-1.65-4.89-4.23,0-3.43,2.71-6.53,14.13-7.79Z" fill="#007bff"></path><polygon points="186.49 16.08 144 16.08 144 24.08 160 24.08 160 64.08 169 64.08 169 24.08 188.49 24.08 186.49 16.08" fill="#007bff"></polygon></g></svg>
