<svg width="80" height="80" viewBox="0 0 80 80" fill="none" xmlns="http://www.w3.org/2000/svg">
<circle cx="40" cy="40" r="40" fill="#5FB7DD"/>
<path d="M26.1445 25.9388C25.7662 25.9388 25.4636 25.6362 25.4636 25.2579V20.6809C25.4636 20.3026 25.7662 20 26.1445 20C26.5227 20 26.8253 20.3026 26.8253 20.6809V25.2579C26.8253 25.6362 26.5227 25.9388 26.1445 25.9388Z" fill="#F7F8FA"/>
<path d="M35.5257 25.9388C35.1474 25.9388 34.8448 25.6362 34.8448 25.2579V20.6809C34.8448 20.3026 35.1474 20 35.5257 20C35.904 20 36.2066 20.3026 36.2066 20.6809V25.2579C36.2444 25.6362 35.904 25.9388 35.5257 25.9388Z" fill="#F7F8FA"/>
<path d="M54.742 25.9388C54.3638 25.9388 54.0612 25.6362 54.0612 25.2579V20.6809C54.0612 20.3026 54.3638 20 54.742 20C55.1203 20 55.4229 20.3026 55.4229 20.6809V25.2579C55.4229 25.6362 55.1203 25.9388 54.742 25.9388Z" fill="#F7F8FA"/>
<path d="M45.1338 25.9388C44.7556 25.9388 44.4529 25.6362 44.4529 25.2579V20.6809C44.4529 20.3026 44.7556 20 45.1338 20C45.5121 20 45.8147 20.3026 45.8147 20.6809V25.2579C45.8147 25.6362 45.5121 25.9388 45.1338 25.9388Z" fill="#F7F8FA"/>
<path d="M50.7322 34.147C49.9378 33.3527 48.6139 33.3527 47.8195 34.1849L43.4694 38.724L32.8399 35.2062L30.5702 37.4001L39.4218 42.8471L34.9582 47.5376L32.0833 47.0837L30.0785 49.0885L34.3152 50.5637L35.7904 54.8003L37.7953 52.7955L37.3413 49.9207L42.0319 45.4193L47.4791 54.2707L49.7109 52.039L46.1929 41.4097L50.7322 37.0597C51.5266 36.2653 51.5644 34.9414 50.7322 34.147Z" stroke="#F7F8FA" stroke-width="1.3" stroke-miterlimit="10" stroke-linejoin="round"/>
<path d="M58.4869 31.6127V54.9895C58.4869 56.8808 56.9738 58.3938 55.0824 58.3938H25.9176C24.0262 58.3938 22.5131 56.8808 22.5131 54.9895V31.6127H58.4869ZM60 30.0996H21V54.9895C21 57.713 23.194 59.9069 25.9176 59.9069H55.0446C57.7682 59.9069 59.9622 57.713 59.9622 54.9895V30.0996H60Z" fill="#F7F8FA"/>
<path d="M51.6023 23.4801V25.2579C51.6023 26.998 53.0019 28.3975 54.742 28.3975C56.4821 28.3975 57.8817 26.998 57.8817 25.2579V24.9175C58.2599 25.4849 58.4869 26.1658 58.4869 26.8845V30.1376H22.5131V26.8845C22.5131 26.2414 22.7022 25.5984 23.0427 25.0688V25.2201C23.0427 26.9601 24.4423 28.3597 26.1823 28.3597C27.9224 28.3597 29.322 26.9601 29.322 25.2201V23.4801H32.4617V25.2579C32.4617 26.998 33.8613 28.3975 35.6014 28.3975C37.3414 28.3975 38.741 26.998 38.741 25.2579V23.4801H42.0698V25.2579C42.0698 26.998 43.4694 28.3975 45.2095 28.3975C46.9496 28.3975 48.3492 26.998 48.3492 25.2579V23.4801H51.6023ZM53.1154 21.967H46.7604V25.2579C46.7604 26.1658 46.0417 26.8845 45.1339 26.8845C44.226 26.8845 43.5073 26.1658 43.5073 25.2579V21.967H37.1523V25.2579C37.1523 26.1658 36.4336 26.8845 35.5257 26.8845C34.6178 26.8845 33.8991 26.1658 33.8991 25.2579V21.967H27.7711V25.2579C27.7711 26.1658 27.0524 26.8845 26.1445 26.8845C25.2367 26.8845 24.5179 26.1658 24.5179 25.2579V22.194C22.5131 22.7614 21 24.6527 21 26.9223V31.6885H60V26.9223C60 24.6527 58.4491 22.7236 56.3686 22.1562V25.2579C56.3686 26.1658 55.6499 26.8845 54.742 26.8845C53.8341 26.8845 53.1154 26.1658 53.1154 25.2579V21.967Z" fill="#F7F8FA"/>
</svg>
