<svg width="80" height="80" viewBox="0 0 80 80" fill="none" xmlns="http://www.w3.org/2000/svg">
<circle cx="40" cy="40" r="40" fill="#5FB7DD"/>
<path d="M46.1847 40.8457H20.337C19.6542 40.8457 19.1 40.2916 19.1 39.6088C19.1 38.926 19.6542 38.3719 20.337 38.3719H46.1847C46.8675 38.3719 47.4216 38.926 47.4216 39.6088C47.4216 40.2916 46.8675 40.8457 46.1847 40.8457Z" fill="#F7F8FA" stroke="#5FB7DD" stroke-width="0.2"/>
<path d="M38.18 47.6133L38.1803 47.6135C38.4211 47.8558 38.7372 47.976 39.0543 47.976C39.3713 47.976 39.6874 47.8559 39.9299 47.6116L39.9301 47.6113L47.0605 40.481C47.5437 39.9978 47.5437 39.2144 47.0605 38.7312L39.9301 31.6006C39.9301 31.6006 39.9301 31.6006 39.9301 31.6006C39.447 31.1174 38.6636 31.1174 38.18 31.6006C38.18 31.6006 38.18 31.6006 38.18 31.6006M38.18 47.6133L38.1093 33.4214C37.5871 32.8991 37.5871 32.0521 38.1093 31.5299L38.18 31.6006M38.18 47.6133C37.6969 47.1301 37.6968 46.3467 38.1801 45.8632M38.18 47.6133L38.1801 45.8632M38.18 31.6006C37.6969 32.0838 37.6969 32.8675 38.18 33.3507L44.3658 39.5364L44.4365 39.6071L44.3658 39.6778L38.1801 45.8632M38.18 31.6006L38.1801 45.8632M38.1801 45.8632L38.1093 45.7925L38.18 45.8632L38.1801 45.8632Z" fill="#F7F8FA" stroke="#5FB7DD" stroke-width="0.2"/>
<path d="M23.1865 46.7452L23.1864 46.7451C22.9359 46.1123 23.2488 45.3931 23.8841 45.1424C24.5177 44.8951 25.2384 45.2038 25.4889 45.8418L25.4889 45.8419C28.0727 52.4027 34.297 56.6437 41.3437 56.6437C50.7361 56.6437 58.3786 49.0012 58.3786 39.6088C58.3786 30.2164 50.7361 22.5739 41.3437 22.5739C34.297 22.5739 28.0727 26.8149 25.4889 33.3757C25.2364 34.0141 24.5173 34.3225 23.8839 34.0752C23.2488 33.8243 22.936 33.1053 23.1864 32.4725L23.1865 32.4724C26.1466 24.9556 33.2721 20.1 41.3437 20.1C52.1 20.1 60.8525 28.8525 60.8525 39.6088C60.8525 50.3651 52.1 59.1176 41.3437 59.1176C33.2721 59.1176 26.1466 54.262 23.1865 46.7452Z" fill="#F7F8FA" stroke="#5FB7DD" stroke-width="0.2"/>
</svg>
